<svg width="1363" height="163" viewBox="0 0 1363 163" fill="none" xmlns="http://www.w3.org/2000/svg">
<path d="M0 15C0 6.71573 6.71573 0 15 0H37V163H15C6.71573 163 0 156.284 0 148V15Z" fill="#424242"/>
<rect width="1097" height="163" transform="translate(37)" fill="#F0F0F0"/>
<path d="M105.973 58.2578V61H96.8906V58.2578H105.973ZM98.0391 43.9375V61H94.5234V43.9375H98.0391ZM104.789 50.8867V53.5586H96.8906V50.8867H104.789ZM105.961 43.9375V46.6914H96.8906V43.9375H105.961ZM115.066 58.2344V43H118.465V61H115.406L115.066 58.2344ZM107.051 54.8125V54.5664C107.051 53.5977 107.16 52.7188 107.379 51.9297C107.598 51.1328 107.918 50.4492 108.34 49.8789C108.762 49.3086 109.281 48.8672 109.898 48.5547C110.516 48.2422 111.219 48.0859 112.008 48.0859C112.75 48.0859 113.398 48.2422 113.953 48.5547C114.516 48.8672 114.992 49.3125 115.383 49.8906C115.781 50.4609 116.102 51.1367 116.344 51.918C116.586 52.6914 116.762 53.5391 116.871 54.4609V55C116.762 55.8828 116.586 56.7031 116.344 57.4609C116.102 58.2188 115.781 58.8828 115.383 59.4531C114.992 60.0156 114.516 60.4531 113.953 60.7656C113.391 61.0781 112.734 61.2344 111.984 61.2344C111.195 61.2344 110.492 61.0742 109.875 60.7539C109.266 60.4336 108.75 59.9844 108.328 59.4062C107.914 58.8281 107.598 58.1484 107.379 57.3672C107.16 56.5859 107.051 55.7344 107.051 54.8125ZM110.426 54.5664V54.8125C110.426 55.3359 110.465 55.8242 110.543 56.2773C110.629 56.7305 110.766 57.1328 110.953 57.4844C111.148 57.8281 111.398 58.0977 111.703 58.293C112.016 58.4805 112.395 58.5742 112.84 58.5742C113.418 58.5742 113.895 58.4453 114.27 58.1875C114.645 57.9219 114.93 57.5586 115.125 57.0977C115.328 56.6367 115.445 56.1055 115.477 55.5039V53.9688C115.453 53.4766 115.383 53.0352 115.266 52.6445C115.156 52.2461 114.992 51.9062 114.773 51.625C114.562 51.3438 114.297 51.125 113.977 50.9688C113.664 50.8125 113.293 50.7344 112.863 50.7344C112.426 50.7344 112.051 50.8359 111.738 51.0391C111.426 51.2344 111.172 51.5039 110.977 51.8477C110.789 52.1914 110.648 52.5977 110.555 53.0664C110.469 53.5273 110.426 54.0273 110.426 54.5664ZM128.602 57.9648V48.3203H131.977V61H128.801L128.602 57.9648ZM128.977 55.3633L129.973 55.3398C129.973 56.1836 129.875 56.9688 129.68 57.6953C129.484 58.4141 129.191 59.0391 128.801 59.5703C128.41 60.0938 127.918 60.5039 127.324 60.8008C126.73 61.0898 126.031 61.2344 125.227 61.2344C124.609 61.2344 124.039 61.1484 123.516 60.9766C123 60.7969 122.555 60.5195 122.18 60.1445C121.812 59.7617 121.523 59.2734 121.312 58.6797C121.109 58.0781 121.008 57.3555 121.008 56.5117V48.3203H124.383V56.5352C124.383 56.9102 124.426 57.2266 124.512 57.4844C124.605 57.7422 124.734 57.9531 124.898 58.1172C125.062 58.2812 125.254 58.3984 125.473 58.4688C125.699 58.5391 125.949 58.5742 126.223 58.5742C126.918 58.5742 127.465 58.4336 127.863 58.1523C128.27 57.8711 128.555 57.4883 128.719 57.0039C128.891 56.5117 128.977 55.9648 128.977 55.3633ZM136.371 43.9375H139.348L143.73 56.4648L148.113 43.9375H151.09L144.926 61H142.535L136.371 43.9375ZM134.766 43.9375H137.73L138.27 56.1484V61H134.766V43.9375ZM149.73 43.9375H152.707V61H149.191V56.1484L149.73 43.9375ZM159.141 48.3203V61H155.754V48.3203H159.141ZM155.543 45.0156C155.543 44.5234 155.715 44.1172 156.059 43.7969C156.402 43.4766 156.863 43.3164 157.441 43.3164C158.012 43.3164 158.469 43.4766 158.812 43.7969C159.164 44.1172 159.34 44.5234 159.34 45.0156C159.34 45.5078 159.164 45.9141 158.812 46.2344C158.469 46.5547 158.012 46.7148 157.441 46.7148C156.863 46.7148 156.402 46.5547 156.059 46.2344C155.715 45.9141 155.543 45.5078 155.543 45.0156ZM165.234 51.0273V61H161.859V48.3203H165.023L165.234 51.0273ZM164.742 54.2148H163.828C163.828 53.2773 163.949 52.4336 164.191 51.6836C164.434 50.9258 164.773 50.2812 165.211 49.75C165.648 49.2109 166.168 48.8008 166.77 48.5195C167.379 48.2305 168.059 48.0859 168.809 48.0859C169.402 48.0859 169.945 48.1719 170.438 48.3438C170.93 48.5156 171.352 48.7891 171.703 49.1641C172.062 49.5391 172.336 50.0352 172.523 50.6523C172.719 51.2695 172.816 52.0234 172.816 52.9141V61H169.418V52.9023C169.418 52.3398 169.34 51.9023 169.184 51.5898C169.027 51.2773 168.797 51.0586 168.492 50.9336C168.195 50.8008 167.828 50.7344 167.391 50.7344C166.938 50.7344 166.543 50.8242 166.207 51.0039C165.879 51.1836 165.605 51.4336 165.387 51.7539C165.176 52.0664 165.016 52.4336 164.906 52.8555C164.797 53.2773 164.742 53.7305 164.742 54.2148ZM182.871 58.2344V43H186.27V61H183.211L182.871 58.2344ZM174.855 54.8125V54.5664C174.855 53.5977 174.965 52.7188 175.184 51.9297C175.402 51.1328 175.723 50.4492 176.145 49.8789C176.566 49.3086 177.086 48.8672 177.703 48.5547C178.32 48.2422 179.023 48.0859 179.812 48.0859C180.555 48.0859 181.203 48.2422 181.758 48.5547C182.32 48.8672 182.797 49.3125 183.188 49.8906C183.586 50.4609 183.906 51.1367 184.148 51.918C184.391 52.6914 184.566 53.5391 184.676 54.4609V55C184.566 55.8828 184.391 56.7031 184.148 57.4609C183.906 58.2188 183.586 58.8828 183.188 59.4531C182.797 60.0156 182.32 60.4531 181.758 60.7656C181.195 61.0781 180.539 61.2344 179.789 61.2344C179 61.2344 178.297 61.0742 177.68 60.7539C177.07 60.4336 176.555 59.9844 176.133 59.4062C175.719 58.8281 175.402 58.1484 175.184 57.3672C174.965 56.5859 174.855 55.7344 174.855 54.8125ZM178.23 54.5664V54.8125C178.23 55.3359 178.27 55.8242 178.348 56.2773C178.434 56.7305 178.57 57.1328 178.758 57.4844C178.953 57.8281 179.203 58.0977 179.508 58.293C179.82 58.4805 180.199 58.5742 180.645 58.5742C181.223 58.5742 181.699 58.4453 182.074 58.1875C182.449 57.9219 182.734 57.5586 182.93 57.0977C183.133 56.6367 183.25 56.1055 183.281 55.5039V53.9688C183.258 53.4766 183.188 53.0352 183.07 52.6445C182.961 52.2461 182.797 51.9062 182.578 51.625C182.367 51.3438 182.102 51.125 181.781 50.9688C181.469 50.8125 181.098 50.7344 180.668 50.7344C180.23 50.7344 179.855 50.8359 179.543 51.0391C179.23 51.2344 178.977 51.5039 178.781 51.8477C178.594 52.1914 178.453 52.5977 178.359 53.0664C178.273 53.5273 178.23 54.0273 178.23 54.5664Z" fill="#888888"/>
<path d="M118.594 98.4219V104.75H101.086V98.4219H118.594ZM103.828 84.875V119H95.6016V84.875H103.828ZM124.125 84.875V119H115.922V84.875H124.125ZM127.992 106.578V106.086C127.992 104.227 128.258 102.516 128.789 100.953C129.32 99.375 130.102 98.0078 131.133 96.8516C132.164 95.6953 133.438 94.7969 134.953 94.1562C136.469 93.5 138.219 93.1719 140.203 93.1719C142.203 93.1719 143.961 93.5 145.477 94.1562C147.008 94.7969 148.289 95.6953 149.32 96.8516C150.352 98.0078 151.133 99.375 151.664 100.953C152.195 102.516 152.461 104.227 152.461 106.086V106.578C152.461 108.422 152.195 110.133 151.664 111.711C151.133 113.273 150.352 114.641 149.32 115.812C148.289 116.969 147.016 117.867 145.5 118.508C143.984 119.148 142.234 119.469 140.25 119.469C138.266 119.469 136.508 119.148 134.977 118.508C133.445 117.867 132.164 116.969 131.133 115.812C130.102 114.641 129.32 113.273 128.789 111.711C128.258 110.133 127.992 108.422 127.992 106.578ZM135.891 106.086V106.578C135.891 107.531 135.961 108.422 136.102 109.25C136.242 110.078 136.477 110.805 136.805 111.43C137.133 112.039 137.578 112.516 138.141 112.859C138.703 113.203 139.406 113.375 140.25 113.375C141.078 113.375 141.766 113.203 142.312 112.859C142.875 112.516 143.32 112.039 143.648 111.43C143.977 110.805 144.211 110.078 144.352 109.25C144.492 108.422 144.562 107.531 144.562 106.578V106.086C144.562 105.164 144.492 104.297 144.352 103.484C144.211 102.656 143.977 101.93 143.648 101.305C143.32 100.664 142.875 100.164 142.312 99.8047C141.75 99.4453 141.047 99.2656 140.203 99.2656C139.375 99.2656 138.68 99.4453 138.117 99.8047C137.57 100.164 137.133 100.664 136.805 101.305C136.477 101.93 136.242 102.656 136.102 103.484C135.961 104.297 135.891 105.164 135.891 106.086ZM163.688 111.453L168.375 93.6406H173.32L171.562 102.57L166.922 119H162.961L163.688 111.453ZM161.836 93.6406L164.742 111.312L165.07 119H160.266L154.266 93.6406H161.836ZM177.492 110.938L180.422 93.6406H187.992L182.039 119H177.234L177.492 110.938ZM173.883 93.6406L178.617 111.406L179.344 119H175.336L170.789 102.617L169.102 93.6406H173.883ZM218.297 84.875V119H210.07V84.875H218.297ZM228.562 84.875V91.2266H200.039V84.875H228.562ZM225.773 106.578V106.086C225.773 104.227 226.039 102.516 226.57 100.953C227.102 99.375 227.883 98.0078 228.914 96.8516C229.945 95.6953 231.219 94.7969 232.734 94.1562C234.25 93.5 236 93.1719 237.984 93.1719C239.984 93.1719 241.742 93.5 243.258 94.1562C244.789 94.7969 246.07 95.6953 247.102 96.8516C248.133 98.0078 248.914 99.375 249.445 100.953C249.977 102.516 250.242 104.227 250.242 106.086V106.578C250.242 108.422 249.977 110.133 249.445 111.711C248.914 113.273 248.133 114.641 247.102 115.812C246.07 116.969 244.797 117.867 243.281 118.508C241.766 119.148 240.016 119.469 238.031 119.469C236.047 119.469 234.289 119.148 232.758 118.508C231.227 117.867 229.945 116.969 228.914 115.812C227.883 114.641 227.102 113.273 226.57 111.711C226.039 110.133 225.773 108.422 225.773 106.578ZM233.672 106.086V106.578C233.672 107.531 233.742 108.422 233.883 109.25C234.023 110.078 234.258 110.805 234.586 111.43C234.914 112.039 235.359 112.516 235.922 112.859C236.484 113.203 237.188 113.375 238.031 113.375C238.859 113.375 239.547 113.203 240.094 112.859C240.656 112.516 241.102 112.039 241.43 111.43C241.758 110.805 241.992 110.078 242.133 109.25C242.273 108.422 242.344 107.531 242.344 106.578V106.086C242.344 105.164 242.273 104.297 242.133 103.484C241.992 102.656 241.758 101.93 241.43 101.305C241.102 100.664 240.656 100.164 240.094 99.8047C239.531 99.4453 238.828 99.2656 237.984 99.2656C237.156 99.2656 236.461 99.4453 235.898 99.8047C235.352 100.164 234.914 100.664 234.586 101.305C234.258 101.93 234.023 102.656 233.883 103.484C233.742 104.297 233.672 105.164 233.672 106.086ZM266.086 84.875H279.516C282.141 84.875 284.422 85.2656 286.359 86.0469C288.297 86.8281 289.789 87.9844 290.836 89.5156C291.898 91.0469 292.43 92.9375 292.43 95.1875C292.43 97.1406 292.125 98.7734 291.516 100.086C290.906 101.398 290.055 102.484 288.961 103.344C287.883 104.188 286.625 104.883 285.188 105.43L282.492 106.953H271.219L271.172 100.602H279.516C280.562 100.602 281.43 100.414 282.117 100.039C282.805 99.6641 283.32 99.1328 283.664 98.4453C284.023 97.7422 284.203 96.9062 284.203 95.9375C284.203 94.9531 284.023 94.1094 283.664 93.4062C283.305 92.7031 282.773 92.1641 282.07 91.7891C281.383 91.4141 280.531 91.2266 279.516 91.2266H274.312V119H266.086V84.875ZM284.766 119L277.219 103.906L285.938 103.859L293.578 118.648V119H284.766ZM311.836 112.836V93.6406H319.758V119H312.352L311.836 112.836ZM312.586 107.68L314.648 107.633C314.648 109.336 314.445 110.914 314.039 112.367C313.633 113.805 313.031 115.055 312.234 116.117C311.453 117.18 310.484 118.008 309.328 118.602C308.188 119.18 306.867 119.469 305.367 119.469C304.117 119.469 302.969 119.297 301.922 118.953C300.891 118.594 300 118.039 299.25 117.289C298.5 116.523 297.914 115.547 297.492 114.359C297.086 113.156 296.883 111.719 296.883 110.047V93.6406H304.781V110.094C304.781 110.656 304.852 111.141 304.992 111.547C305.133 111.953 305.336 112.297 305.602 112.578C305.867 112.844 306.195 113.047 306.586 113.188C306.992 113.312 307.453 113.375 307.969 113.375C309.156 113.375 310.086 113.125 310.758 112.625C311.43 112.125 311.898 111.445 312.164 110.586C312.445 109.727 312.586 108.758 312.586 107.68ZM331.875 99.0547V119H323.977V93.6406H331.383L331.875 99.0547ZM330.938 105.453L329.086 105.5C329.086 103.562 329.32 101.836 329.789 100.32C330.258 98.7891 330.922 97.4922 331.781 96.4297C332.641 95.3672 333.664 94.5625 334.852 94.0156C336.055 93.4531 337.391 93.1719 338.859 93.1719C340.031 93.1719 341.102 93.3438 342.07 93.6875C343.055 94.0312 343.898 94.5859 344.602 95.3516C345.32 96.1172 345.867 97.1328 346.242 98.3984C346.633 99.6484 346.828 101.195 346.828 103.039V119H338.883V103.016C338.883 102 338.742 101.227 338.461 100.695C338.18 100.148 337.773 99.7734 337.242 99.5703C336.711 99.3672 336.062 99.2656 335.297 99.2656C334.484 99.2656 333.797 99.4219 333.234 99.7344C332.672 100.047 332.219 100.484 331.875 101.047C331.547 101.594 331.305 102.242 331.148 102.992C331.008 103.742 330.938 104.562 330.938 105.453ZM363.773 108.195H357.047C357.047 106.82 357.141 105.609 357.328 104.562C357.531 103.5 357.875 102.547 358.359 101.703C358.844 100.859 359.5 100.078 360.328 99.3594C361.062 98.75 361.695 98.1641 362.227 97.6016C362.758 97.0391 363.164 96.4688 363.445 95.8906C363.727 95.3125 363.867 94.6953 363.867 94.0391C363.867 93.2266 363.75 92.5625 363.516 92.0469C363.297 91.5312 362.961 91.1484 362.508 90.8984C362.07 90.6328 361.516 90.5 360.844 90.5C360.297 90.5 359.781 90.6328 359.297 90.8984C358.828 91.1641 358.445 91.5781 358.148 92.1406C357.852 92.6875 357.688 93.4141 357.656 94.3203H349.711C349.758 91.9922 350.273 90.1016 351.258 88.6484C352.258 87.1797 353.586 86.1094 355.242 85.4375C356.914 84.75 358.781 84.4062 360.844 84.4062C363.125 84.4062 365.086 84.7578 366.727 85.4609C368.367 86.1641 369.625 87.2109 370.5 88.6016C371.375 89.9766 371.812 91.6719 371.812 93.6875C371.812 95.0312 371.555 96.2031 371.039 97.2031C370.539 98.1875 369.859 99.1094 369 99.9688C368.156 100.812 367.211 101.719 366.164 102.688C365.258 103.484 364.641 104.297 364.312 105.125C363.984 105.938 363.805 106.961 363.773 108.195ZM356.086 115.32C356.086 114.195 356.492 113.258 357.305 112.508C358.117 111.742 359.172 111.359 360.469 111.359C361.766 111.359 362.82 111.742 363.633 112.508C364.445 113.258 364.852 114.195 364.852 115.32C364.852 116.445 364.445 117.391 363.633 118.156C362.82 118.906 361.766 119.281 360.469 119.281C359.172 119.281 358.117 118.906 357.305 118.156C356.492 117.391 356.086 116.445 356.086 115.32Z" fill="black"/>
<path d="M1134 0H1348C1356.28 0 1363 6.71573 1363 15V148C1363 156.284 1356.28 163 1348 163H1134V0Z" fill="#A6F0DD"/>
<path d="M1260.62 78.8847C1263.81 78.8847 1266.93 79.805 1269.59 81.5293C1272.25 83.2536 1274.32 85.7044 1275.54 88.5718C1276.76 91.4391 1277.08 94.5943 1276.46 97.6383C1275.84 100.682 1274.3 103.478 1272.04 105.673C1269.78 107.868 1266.9 109.362 1263.77 109.968C1260.63 110.573 1257.39 110.262 1254.43 109.075C1251.48 107.887 1248.96 105.876 1247.18 103.295C1245.41 100.714 1244.46 97.6806 1244.46 94.5769C1244.46 90.4151 1246.16 86.4237 1249.19 83.4808C1252.22 80.538 1256.33 78.8847 1260.62 78.8847ZM1260.62 73.6539C1256.36 73.6539 1252.19 74.881 1248.65 77.1801C1245.11 79.4791 1242.35 82.7469 1240.72 86.57C1239.09 90.3932 1238.66 94.6001 1239.49 98.6588C1240.32 102.717 1242.37 106.446 1245.39 109.372C1248.4 112.298 1252.24 114.291 1256.41 115.098C1260.59 115.905 1264.92 115.491 1268.86 113.907C1272.79 112.324 1276.16 109.642 1278.52 106.201C1280.89 102.76 1282.15 98.7151 1282.15 94.5769C1282.15 89.0278 1279.88 83.706 1275.85 79.7821C1271.81 75.8583 1266.33 73.6539 1260.62 73.6539Z" fill="white"/>
<path d="M1274.08 47.5H1220.23C1218.8 47.5 1217.43 48.0511 1216.42 49.0321C1215.41 50.013 1214.85 51.3435 1214.85 52.7307V105.038C1214.85 106.426 1215.41 107.756 1216.42 108.737C1217.43 109.718 1218.8 110.269 1220.23 110.269H1231V105.038H1220.23V68.423H1279.46V52.7307C1279.46 51.3435 1278.89 50.013 1277.88 49.0321C1276.87 48.0511 1275.5 47.5 1274.08 47.5ZM1220.23 63.1922V52.7307H1274.08V63.1922H1220.23Z" fill="white"/>
<path d="M1255.23 86.731V102.423L1268.69 94.5771L1255.23 86.731Z" fill="white"/>
</svg>
