<svg width="1363" height="163" viewBox="0 0 1363 163" fill="none" xmlns="http://www.w3.org/2000/svg">
<path d="M0 15C0 6.71573 6.71573 0 15 0H37V163H15C6.71573 163 0 156.284 0 148V15Z" fill="#424242"/>
<rect width="1097" height="163" transform="translate(37)" fill="#F0F0F0"/>
<path d="M105.973 58.2578V61H96.8906V58.2578H105.973ZM98.0391 43.9375V61H94.5234V43.9375H98.0391ZM104.789 50.8867V53.5586H96.8906V50.8867H104.789ZM105.961 43.9375V46.6914H96.8906V43.9375H105.961ZM115.066 58.2344V43H118.465V61H115.406L115.066 58.2344ZM107.051 54.8125V54.5664C107.051 53.5977 107.16 52.7188 107.379 51.9297C107.598 51.1328 107.918 50.4492 108.34 49.8789C108.762 49.3086 109.281 48.8672 109.898 48.5547C110.516 48.2422 111.219 48.0859 112.008 48.0859C112.75 48.0859 113.398 48.2422 113.953 48.5547C114.516 48.8672 114.992 49.3125 115.383 49.8906C115.781 50.4609 116.102 51.1367 116.344 51.918C116.586 52.6914 116.762 53.5391 116.871 54.4609V55C116.762 55.8828 116.586 56.7031 116.344 57.4609C116.102 58.2188 115.781 58.8828 115.383 59.4531C114.992 60.0156 114.516 60.4531 113.953 60.7656C113.391 61.0781 112.734 61.2344 111.984 61.2344C111.195 61.2344 110.492 61.0742 109.875 60.7539C109.266 60.4336 108.75 59.9844 108.328 59.4062C107.914 58.8281 107.598 58.1484 107.379 57.3672C107.16 56.5859 107.051 55.7344 107.051 54.8125ZM110.426 54.5664V54.8125C110.426 55.3359 110.465 55.8242 110.543 56.2773C110.629 56.7305 110.766 57.1328 110.953 57.4844C111.148 57.8281 111.398 58.0977 111.703 58.293C112.016 58.4805 112.395 58.5742 112.84 58.5742C113.418 58.5742 113.895 58.4453 114.27 58.1875C114.645 57.9219 114.93 57.5586 115.125 57.0977C115.328 56.6367 115.445 56.1055 115.477 55.5039V53.9688C115.453 53.4766 115.383 53.0352 115.266 52.6445C115.156 52.2461 114.992 51.9062 114.773 51.625C114.562 51.3438 114.297 51.125 113.977 50.9688C113.664 50.8125 113.293 50.7344 112.863 50.7344C112.426 50.7344 112.051 50.8359 111.738 51.0391C111.426 51.2344 111.172 51.5039 110.977 51.8477C110.789 52.1914 110.648 52.5977 110.555 53.0664C110.469 53.5273 110.426 54.0273 110.426 54.5664ZM128.602 57.9648V48.3203H131.977V61H128.801L128.602 57.9648ZM128.977 55.3633L129.973 55.3398C129.973 56.1836 129.875 56.9688 129.68 57.6953C129.484 58.4141 129.191 59.0391 128.801 59.5703C128.41 60.0938 127.918 60.5039 127.324 60.8008C126.73 61.0898 126.031 61.2344 125.227 61.2344C124.609 61.2344 124.039 61.1484 123.516 60.9766C123 60.7969 122.555 60.5195 122.18 60.1445C121.812 59.7617 121.523 59.2734 121.312 58.6797C121.109 58.0781 121.008 57.3555 121.008 56.5117V48.3203H124.383V56.5352C124.383 56.9102 124.426 57.2266 124.512 57.4844C124.605 57.7422 124.734 57.9531 124.898 58.1172C125.062 58.2812 125.254 58.3984 125.473 58.4688C125.699 58.5391 125.949 58.5742 126.223 58.5742C126.918 58.5742 127.465 58.4336 127.863 58.1523C128.27 57.8711 128.555 57.4883 128.719 57.0039C128.891 56.5117 128.977 55.9648 128.977 55.3633ZM136.371 43.9375H139.348L143.73 56.4648L148.113 43.9375H151.09L144.926 61H142.535L136.371 43.9375ZM134.766 43.9375H137.73L138.27 56.1484V61H134.766V43.9375ZM149.73 43.9375H152.707V61H149.191V56.1484L149.73 43.9375ZM159.141 48.3203V61H155.754V48.3203H159.141ZM155.543 45.0156C155.543 44.5234 155.715 44.1172 156.059 43.7969C156.402 43.4766 156.863 43.3164 157.441 43.3164C158.012 43.3164 158.469 43.4766 158.812 43.7969C159.164 44.1172 159.34 44.5234 159.34 45.0156C159.34 45.5078 159.164 45.9141 158.812 46.2344C158.469 46.5547 158.012 46.7148 157.441 46.7148C156.863 46.7148 156.402 46.5547 156.059 46.2344C155.715 45.9141 155.543 45.5078 155.543 45.0156ZM165.234 51.0273V61H161.859V48.3203H165.023L165.234 51.0273ZM164.742 54.2148H163.828C163.828 53.2773 163.949 52.4336 164.191 51.6836C164.434 50.9258 164.773 50.2812 165.211 49.75C165.648 49.2109 166.168 48.8008 166.77 48.5195C167.379 48.2305 168.059 48.0859 168.809 48.0859C169.402 48.0859 169.945 48.1719 170.438 48.3438C170.93 48.5156 171.352 48.7891 171.703 49.1641C172.062 49.5391 172.336 50.0352 172.523 50.6523C172.719 51.2695 172.816 52.0234 172.816 52.9141V61H169.418V52.9023C169.418 52.3398 169.34 51.9023 169.184 51.5898C169.027 51.2773 168.797 51.0586 168.492 50.9336C168.195 50.8008 167.828 50.7344 167.391 50.7344C166.938 50.7344 166.543 50.8242 166.207 51.0039C165.879 51.1836 165.605 51.4336 165.387 51.7539C165.176 52.0664 165.016 52.4336 164.906 52.8555C164.797 53.2773 164.742 53.7305 164.742 54.2148ZM182.871 58.2344V43H186.27V61H183.211L182.871 58.2344ZM174.855 54.8125V54.5664C174.855 53.5977 174.965 52.7188 175.184 51.9297C175.402 51.1328 175.723 50.4492 176.145 49.8789C176.566 49.3086 177.086 48.8672 177.703 48.5547C178.32 48.2422 179.023 48.0859 179.812 48.0859C180.555 48.0859 181.203 48.2422 181.758 48.5547C182.32 48.8672 182.797 49.3125 183.188 49.8906C183.586 50.4609 183.906 51.1367 184.148 51.918C184.391 52.6914 184.566 53.5391 184.676 54.4609V55C184.566 55.8828 184.391 56.7031 184.148 57.4609C183.906 58.2188 183.586 58.8828 183.188 59.4531C182.797 60.0156 182.32 60.4531 181.758 60.7656C181.195 61.0781 180.539 61.2344 179.789 61.2344C179 61.2344 178.297 61.0742 177.68 60.7539C177.07 60.4336 176.555 59.9844 176.133 59.4062C175.719 58.8281 175.402 58.1484 175.184 57.3672C174.965 56.5859 174.855 55.7344 174.855 54.8125ZM178.23 54.5664V54.8125C178.23 55.3359 178.27 55.8242 178.348 56.2773C178.434 56.7305 178.57 57.1328 178.758 57.4844C178.953 57.8281 179.203 58.0977 179.508 58.293C179.82 58.4805 180.199 58.5742 180.645 58.5742C181.223 58.5742 181.699 58.4453 182.074 58.1875C182.449 57.9219 182.734 57.5586 182.93 57.0977C183.133 56.6367 183.25 56.1055 183.281 55.5039V53.9688C183.258 53.4766 183.188 53.0352 183.07 52.6445C182.961 52.2461 182.797 51.9062 182.578 51.625C182.367 51.3438 182.102 51.125 181.781 50.9688C181.469 50.8125 181.098 50.7344 180.668 50.7344C180.23 50.7344 179.855 50.8359 179.543 51.0391C179.23 51.2344 178.977 51.5039 178.781 51.8477C178.594 52.1914 178.453 52.5977 178.359 53.0664C178.273 53.5273 178.23 54.0273 178.23 54.5664Z" fill="#888888"/>
<path d="M112.125 84.875V119H103.898V84.875H112.125ZM122.391 84.875V91.2266H93.8672V84.875H122.391ZM135.68 119.469C133.617 119.469 131.773 119.148 130.148 118.508C128.523 117.852 127.148 116.953 126.023 115.812C124.914 114.672 124.062 113.359 123.469 111.875C122.891 110.391 122.602 108.82 122.602 107.164V106.273C122.602 104.414 122.859 102.695 123.375 101.117C123.891 99.5234 124.656 98.1328 125.672 96.9453C126.688 95.7578 127.961 94.8359 129.492 94.1797C131.023 93.5078 132.805 93.1719 134.836 93.1719C136.633 93.1719 138.242 93.4609 139.664 94.0391C141.086 94.6172 142.289 95.4453 143.273 96.5234C144.273 97.6016 145.031 98.9062 145.547 100.438C146.078 101.969 146.344 103.688 146.344 105.594V108.805H125.625V103.859H138.633V103.25C138.648 102.406 138.5 101.688 138.188 101.094C137.891 100.5 137.453 100.047 136.875 99.7344C136.297 99.4219 135.594 99.2656 134.766 99.2656C133.906 99.2656 133.195 99.4531 132.633 99.8281C132.086 100.203 131.656 100.719 131.344 101.375C131.047 102.016 130.836 102.758 130.711 103.602C130.586 104.445 130.523 105.336 130.523 106.273V107.164C130.523 108.102 130.648 108.953 130.898 109.719C131.164 110.484 131.539 111.141 132.023 111.688C132.523 112.219 133.117 112.633 133.805 112.93C134.508 113.227 135.305 113.375 136.195 113.375C137.273 113.375 138.336 113.172 139.383 112.766C140.43 112.359 141.328 111.688 142.078 110.75L145.664 115.016C145.148 115.75 144.414 116.461 143.461 117.148C142.523 117.836 141.398 118.398 140.086 118.836C138.773 119.258 137.305 119.469 135.68 119.469ZM160.266 113.375C161 113.375 161.625 113.242 162.141 112.977C162.672 112.695 163.07 112.305 163.336 111.805C163.617 111.289 163.75 110.672 163.734 109.953H171.164C171.18 111.859 170.711 113.531 169.758 114.969C168.82 116.391 167.539 117.5 165.914 118.297C164.305 119.078 162.484 119.469 160.453 119.469C158.469 119.469 156.734 119.148 155.25 118.508C153.766 117.852 152.523 116.945 151.523 115.789C150.539 114.617 149.797 113.25 149.297 111.688C148.812 110.125 148.57 108.43 148.57 106.602V106.062C148.57 104.234 148.812 102.539 149.297 100.977C149.797 99.3984 150.539 98.0312 151.523 96.875C152.523 95.7031 153.758 94.7969 155.227 94.1562C156.711 93.5 158.438 93.1719 160.406 93.1719C162.516 93.1719 164.375 93.5703 165.984 94.3672C167.609 95.1641 168.883 96.3203 169.805 97.8359C170.727 99.3516 171.18 101.188 171.164 103.344H163.734C163.75 102.578 163.633 101.891 163.383 101.281C163.133 100.672 162.742 100.188 162.211 99.8281C161.695 99.4531 161.031 99.2656 160.219 99.2656C159.406 99.2656 158.75 99.4453 158.25 99.8047C157.75 100.164 157.367 100.664 157.102 101.305C156.852 101.93 156.68 102.648 156.586 103.461C156.508 104.273 156.469 105.141 156.469 106.062V106.602C156.469 107.539 156.508 108.422 156.586 109.25C156.68 110.062 156.859 110.781 157.125 111.406C157.391 112.016 157.773 112.5 158.273 112.859C158.773 113.203 159.438 113.375 160.266 113.375ZM182.273 83V119H174.375V83H182.273ZM181.336 105.453L179.484 105.5C179.484 103.719 179.703 102.078 180.141 100.578C180.578 99.0781 181.203 97.7734 182.016 96.6641C182.828 95.5547 183.805 94.6953 184.945 94.0859C186.086 93.4766 187.352 93.1719 188.742 93.1719C189.992 93.1719 191.133 93.3516 192.164 93.7109C193.211 94.0703 194.109 94.6484 194.859 95.4453C195.625 96.2422 196.211 97.2812 196.617 98.5625C197.039 99.8438 197.25 101.406 197.25 103.25V119H189.305V103.203C189.305 102.172 189.156 101.375 188.859 100.812C188.578 100.234 188.172 99.8359 187.641 99.6172C187.109 99.3828 186.461 99.2656 185.695 99.2656C184.773 99.2656 184.023 99.4219 183.445 99.7344C182.867 100.047 182.422 100.484 182.109 101.047C181.812 101.594 181.609 102.242 181.5 102.992C181.391 103.742 181.336 104.562 181.336 105.453ZM231.539 109.93C231.539 109.398 231.461 108.922 231.305 108.5C231.148 108.062 230.859 107.656 230.438 107.281C230.016 106.906 229.406 106.531 228.609 106.156C227.828 105.766 226.797 105.359 225.516 104.938C224.016 104.438 222.57 103.875 221.18 103.25C219.789 102.609 218.547 101.867 217.453 101.023C216.359 100.164 215.492 99.1641 214.852 98.0234C214.211 96.8672 213.891 95.5234 213.891 93.9922C213.891 92.5234 214.219 91.2031 214.875 90.0312C215.531 88.8438 216.445 87.8359 217.617 87.0078C218.805 86.1641 220.195 85.5234 221.789 85.0859C223.383 84.6328 225.125 84.4062 227.016 84.4062C229.516 84.4062 231.719 84.8438 233.625 85.7188C235.547 86.5781 237.047 87.8047 238.125 89.3984C239.219 90.9766 239.766 92.8438 239.766 95H231.586C231.586 94.1406 231.406 93.3828 231.047 92.7266C230.703 92.0703 230.18 91.5547 229.477 91.1797C228.773 90.8047 227.891 90.6172 226.828 90.6172C225.797 90.6172 224.93 90.7734 224.227 91.0859C223.523 91.3984 222.992 91.8203 222.633 92.3516C222.273 92.8672 222.094 93.4375 222.094 94.0625C222.094 94.5781 222.234 95.0469 222.516 95.4688C222.812 95.875 223.227 96.2578 223.758 96.6172C224.305 96.9766 224.961 97.3203 225.727 97.6484C226.508 97.9766 227.383 98.2969 228.352 98.6094C230.164 99.1875 231.773 99.8359 233.18 100.555C234.602 101.258 235.797 102.062 236.766 102.969C237.75 103.859 238.492 104.875 238.992 106.016C239.508 107.156 239.766 108.445 239.766 109.883C239.766 111.414 239.469 112.773 238.875 113.961C238.281 115.148 237.43 116.156 236.32 116.984C235.211 117.797 233.883 118.414 232.336 118.836C230.789 119.258 229.062 119.469 227.156 119.469C225.406 119.469 223.68 119.25 221.977 118.812C220.289 118.359 218.758 117.672 217.383 116.75C216.008 115.812 214.906 114.617 214.078 113.164C213.266 111.695 212.859 109.953 212.859 107.938H221.109C221.109 108.938 221.242 109.781 221.508 110.469C221.773 111.156 222.164 111.711 222.68 112.133C223.195 112.539 223.828 112.836 224.578 113.023C225.328 113.195 226.188 113.281 227.156 113.281C228.203 113.281 229.047 113.133 229.688 112.836C230.328 112.523 230.797 112.117 231.094 111.617C231.391 111.102 231.539 110.539 231.539 109.93ZM256.992 93.6406V99.125H241.711V93.6406H256.992ZM244.922 87.3359H252.82V110.727C252.82 111.398 252.898 111.922 253.055 112.297C253.211 112.656 253.477 112.914 253.852 113.07C254.242 113.211 254.758 113.281 255.398 113.281C255.852 113.281 256.227 113.273 256.523 113.258C256.82 113.227 257.102 113.188 257.367 113.141V118.789C256.695 119.008 255.992 119.172 255.258 119.281C254.523 119.406 253.742 119.469 252.914 119.469C251.227 119.469 249.781 119.203 248.578 118.672C247.391 118.141 246.484 117.305 245.859 116.164C245.234 115.023 244.922 113.539 244.922 111.711V87.3359ZM273.305 112.625V102.172C273.305 101.453 273.203 100.836 273 100.32C272.797 99.8047 272.477 99.4062 272.039 99.125C271.602 98.8281 271.016 98.6797 270.281 98.6797C269.688 98.6797 269.18 98.7812 268.758 98.9844C268.336 99.1875 268.016 99.4922 267.797 99.8984C267.578 100.305 267.469 100.82 267.469 101.445H259.57C259.57 100.273 259.828 99.1875 260.344 98.1875C260.875 97.1719 261.625 96.2891 262.594 95.5391C263.578 94.7891 264.75 94.2109 266.109 93.8047C267.484 93.3828 269.016 93.1719 270.703 93.1719C272.719 93.1719 274.516 93.5078 276.094 94.1797C277.688 94.8516 278.945 95.8594 279.867 97.2031C280.789 98.5312 281.25 100.203 281.25 102.219V112.602C281.25 114.258 281.344 115.516 281.531 116.375C281.719 117.219 281.984 117.961 282.328 118.602V119H274.406C274.031 118.219 273.75 117.266 273.562 116.141C273.391 115 273.305 113.828 273.305 112.625ZM274.266 103.508L274.312 107.727H270.82C270.086 107.727 269.461 107.828 268.945 108.031C268.445 108.234 268.039 108.516 267.727 108.875C267.43 109.219 267.211 109.609 267.07 110.047C266.945 110.484 266.883 110.945 266.883 111.43C266.883 111.898 266.992 112.32 267.211 112.695C267.445 113.055 267.758 113.336 268.148 113.539C268.539 113.742 268.977 113.844 269.461 113.844C270.336 113.844 271.078 113.68 271.688 113.352C272.312 113.008 272.789 112.594 273.117 112.109C273.445 111.625 273.609 111.172 273.609 110.75L275.344 113.984C275.031 114.609 274.672 115.242 274.266 115.883C273.875 116.523 273.383 117.117 272.789 117.664C272.211 118.195 271.5 118.633 270.656 118.977C269.812 119.305 268.789 119.469 267.586 119.469C266.023 119.469 264.586 119.148 263.273 118.508C261.977 117.867 260.938 116.977 260.156 115.836C259.375 114.68 258.984 113.352 258.984 111.852C258.984 110.539 259.219 109.367 259.688 108.336C260.172 107.305 260.898 106.43 261.867 105.711C262.836 104.992 264.07 104.445 265.57 104.07C267.07 103.695 268.836 103.508 270.867 103.508H274.266ZM296.344 113.375C297.078 113.375 297.703 113.242 298.219 112.977C298.75 112.695 299.148 112.305 299.414 111.805C299.695 111.289 299.828 110.672 299.812 109.953H307.242C307.258 111.859 306.789 113.531 305.836 114.969C304.898 116.391 303.617 117.5 301.992 118.297C300.383 119.078 298.562 119.469 296.531 119.469C294.547 119.469 292.812 119.148 291.328 118.508C289.844 117.852 288.602 116.945 287.602 115.789C286.617 114.617 285.875 113.25 285.375 111.688C284.891 110.125 284.648 108.43 284.648 106.602V106.062C284.648 104.234 284.891 102.539 285.375 100.977C285.875 99.3984 286.617 98.0312 287.602 96.875C288.602 95.7031 289.836 94.7969 291.305 94.1562C292.789 93.5 294.516 93.1719 296.484 93.1719C298.594 93.1719 300.453 93.5703 302.062 94.3672C303.688 95.1641 304.961 96.3203 305.883 97.8359C306.805 99.3516 307.258 101.188 307.242 103.344H299.812C299.828 102.578 299.711 101.891 299.461 101.281C299.211 100.672 298.82 100.188 298.289 99.8281C297.773 99.4531 297.109 99.2656 296.297 99.2656C295.484 99.2656 294.828 99.4453 294.328 99.8047C293.828 100.164 293.445 100.664 293.18 101.305C292.93 101.93 292.758 102.648 292.664 103.461C292.586 104.273 292.547 105.141 292.547 106.062V106.602C292.547 107.539 292.586 108.422 292.664 109.25C292.758 110.062 292.938 110.781 293.203 111.406C293.469 112.016 293.852 112.5 294.352 112.859C294.852 113.203 295.516 113.375 296.344 113.375ZM318.586 82.9766V119H310.688V82.9766H318.586ZM334.805 93.6406L323.789 106.555L318.023 112.32L314.578 107.305L319.383 101.047L325.336 93.6406H334.805ZM326.344 119L319.57 107.445L325.406 103.297L335.391 119H326.344ZM350.156 111.875C350.156 111.438 350.008 111.062 349.711 110.75C349.43 110.422 348.93 110.125 348.211 109.859C347.492 109.578 346.484 109.297 345.188 109.016C343.953 108.75 342.789 108.398 341.695 107.961C340.617 107.523 339.672 106.992 338.859 106.367C338.047 105.742 337.406 105 336.938 104.141C336.484 103.281 336.258 102.297 336.258 101.188C336.258 100.109 336.484 99.0938 336.938 98.1406C337.406 97.1719 338.086 96.3203 338.977 95.5859C339.883 94.8359 340.984 94.25 342.281 93.8281C343.578 93.3906 345.055 93.1719 346.711 93.1719C348.992 93.1719 350.961 93.5234 352.617 94.2266C354.273 94.9141 355.547 95.8828 356.438 97.1328C357.344 98.3672 357.797 99.7969 357.797 101.422H349.898C349.898 100.781 349.789 100.234 349.57 99.7812C349.367 99.3281 349.031 98.9844 348.562 98.75C348.094 98.5 347.469 98.375 346.688 98.375C346.141 98.375 345.641 98.4766 345.188 98.6797C344.75 98.8828 344.398 99.1641 344.133 99.5234C343.867 99.8828 343.734 100.305 343.734 100.789C343.734 101.133 343.812 101.445 343.969 101.727C344.141 101.992 344.398 102.242 344.742 102.477C345.086 102.695 345.523 102.898 346.055 103.086C346.586 103.258 347.227 103.414 347.977 103.555C349.68 103.867 351.273 104.312 352.758 104.891C354.242 105.469 355.445 106.289 356.367 107.352C357.305 108.414 357.773 109.844 357.773 111.641C357.773 112.766 357.516 113.805 357 114.758C356.484 115.695 355.742 116.523 354.773 117.242C353.805 117.945 352.641 118.492 351.281 118.883C349.922 119.273 348.391 119.469 346.688 119.469C344.266 119.469 342.219 119.039 340.547 118.18C338.875 117.305 337.609 116.211 336.75 114.898C335.906 113.57 335.484 112.227 335.484 110.867H342.844C342.875 111.648 343.062 112.289 343.406 112.789C343.766 113.289 344.242 113.656 344.836 113.891C345.43 114.125 346.117 114.242 346.898 114.242C347.617 114.242 348.211 114.141 348.68 113.938C349.164 113.734 349.531 113.461 349.781 113.117C350.031 112.758 350.156 112.344 350.156 111.875Z" fill="black"/>
<path d="M1134 0H1348C1356.28 0 1363 6.71573 1363 15V148C1363 156.284 1356.28 163 1348 163H1134V0Z" fill="#A6F0DD"/>
<path fill-rule="evenodd" clip-rule="evenodd" d="M1219.98 53C1219.85 53 1219.73 53.0527 1219.64 53.1464C1219.55 53.2402 1219.5 53.3674 1219.5 53.5V109.5C1219.5 109.633 1219.55 109.76 1219.64 109.854C1219.73 109.947 1219.85 110 1219.98 110H1277.02C1277.15 110 1277.27 109.947 1277.36 109.854C1277.45 109.76 1277.5 109.633 1277.5 109.5V64C1277.5 63.8674 1277.45 63.7402 1277.36 63.6464C1277.27 63.5527 1277.15 63.5 1277.02 63.5H1248.5C1247.65 63.5 1246.84 63.1045 1246.29 62.4206L1238.77 53H1219.98ZM1215.58 48.9038C1216.74 47.6848 1218.33 47 1219.98 47H1240.11C1240.97 47 1241.77 47.3955 1242.32 48.0794L1249.85 57.5H1277.02C1278.67 57.5 1280.26 58.1848 1281.42 59.4038C1282.59 60.6228 1283.25 62.2761 1283.25 64V109.5C1283.25 111.224 1282.59 112.877 1281.42 114.096C1280.26 115.315 1278.67 116 1277.02 116H1219.98C1218.33 116 1216.74 115.315 1215.58 114.096C1214.41 112.877 1213.75 111.224 1213.75 109.5V53.5C1213.75 51.7761 1214.41 50.1228 1215.58 48.9038Z" fill="white"/>
<path fill-rule="evenodd" clip-rule="evenodd" d="M1244.16 75.5251C1245.47 76.892 1245.47 79.108 1244.16 80.4749L1238.15 86.75L1244.16 93.0251C1245.47 94.392 1245.47 96.608 1244.16 97.9749C1242.85 99.3417 1240.73 99.3417 1239.42 97.9749L1231.03 89.2249C1229.72 87.858 1229.72 85.642 1231.03 84.2751L1239.42 75.5251C1240.73 74.1583 1242.85 74.1583 1244.16 75.5251Z" fill="white"/>
<path fill-rule="evenodd" clip-rule="evenodd" d="M1252.12 97.9749C1250.81 96.608 1250.81 94.392 1252.12 93.0251L1258.13 86.75L1252.12 80.4749C1250.81 79.108 1250.81 76.892 1252.12 75.5251C1253.43 74.1583 1255.55 74.1583 1256.86 75.5251L1265.25 84.2751C1266.56 85.642 1266.56 87.858 1265.25 89.2249L1256.86 97.9749C1255.55 99.3417 1253.43 99.3417 1252.12 97.9749Z" fill="white"/>
</svg>
