<svg width="1363" height="163" viewBox="0 0 1363 163" fill="none" xmlns="http://www.w3.org/2000/svg">
<path d="M0 15C0 6.71573 6.71573 0 15 0H37V163H15C6.71573 163 0 156.284 0 148V15Z" fill="#424242"/>
<rect width="1097" height="163" transform="translate(37)" fill="#F0F0F0"/>
<path d="M101.906 53.9219L94.3945 51.2383V48.0859L104.602 52.375V54.6367L101.906 53.9219ZM94.3945 56.1719L101.918 53.4297L104.602 52.7852V55.0352L94.3945 59.3242V56.1719ZM124.348 58.2578V61H115.266V58.2578H124.348ZM116.414 43.9375V61H112.898V43.9375H116.414ZM123.164 50.8867V53.5586H115.266V50.8867H123.164ZM124.336 43.9375V46.6914H115.266V43.9375H124.336ZM133.441 58.2344V43H136.84V61H133.781L133.441 58.2344ZM125.426 54.8125V54.5664C125.426 53.5977 125.535 52.7188 125.754 51.9297C125.973 51.1328 126.293 50.4492 126.715 49.8789C127.137 49.3086 127.656 48.8672 128.273 48.5547C128.891 48.2422 129.594 48.0859 130.383 48.0859C131.125 48.0859 131.773 48.2422 132.328 48.5547C132.891 48.8672 133.367 49.3125 133.758 49.8906C134.156 50.4609 134.477 51.1367 134.719 51.918C134.961 52.6914 135.137 53.5391 135.246 54.4609V55C135.137 55.8828 134.961 56.7031 134.719 57.4609C134.477 58.2188 134.156 58.8828 133.758 59.4531C133.367 60.0156 132.891 60.4531 132.328 60.7656C131.766 61.0781 131.109 61.2344 130.359 61.2344C129.57 61.2344 128.867 61.0742 128.25 60.7539C127.641 60.4336 127.125 59.9844 126.703 59.4062C126.289 58.8281 125.973 58.1484 125.754 57.3672C125.535 56.5859 125.426 55.7344 125.426 54.8125ZM128.801 54.5664V54.8125C128.801 55.3359 128.84 55.8242 128.918 56.2773C129.004 56.7305 129.141 57.1328 129.328 57.4844C129.523 57.8281 129.773 58.0977 130.078 58.293C130.391 58.4805 130.77 58.5742 131.215 58.5742C131.793 58.5742 132.27 58.4453 132.645 58.1875C133.02 57.9219 133.305 57.5586 133.5 57.0977C133.703 56.6367 133.82 56.1055 133.852 55.5039V53.9688C133.828 53.4766 133.758 53.0352 133.641 52.6445C133.531 52.2461 133.367 51.9062 133.148 51.625C132.938 51.3438 132.672 51.125 132.352 50.9688C132.039 50.8125 131.668 50.7344 131.238 50.7344C130.801 50.7344 130.426 50.8359 130.113 51.0391C129.801 51.2344 129.547 51.5039 129.352 51.8477C129.164 52.1914 129.023 52.5977 128.93 53.0664C128.844 53.5273 128.801 54.0273 128.801 54.5664ZM146.977 57.9648V48.3203H150.352V61H147.176L146.977 57.9648ZM147.352 55.3633L148.348 55.3398C148.348 56.1836 148.25 56.9688 148.055 57.6953C147.859 58.4141 147.566 59.0391 147.176 59.5703C146.785 60.0938 146.293 60.5039 145.699 60.8008C145.105 61.0898 144.406 61.2344 143.602 61.2344C142.984 61.2344 142.414 61.1484 141.891 60.9766C141.375 60.7969 140.93 60.5195 140.555 60.1445C140.188 59.7617 139.898 59.2734 139.688 58.6797C139.484 58.0781 139.383 57.3555 139.383 56.5117V48.3203H142.758V56.5352C142.758 56.9102 142.801 57.2266 142.887 57.4844C142.98 57.7422 143.109 57.9531 143.273 58.1172C143.438 58.2812 143.629 58.3984 143.848 58.4688C144.074 58.5391 144.324 58.5742 144.598 58.5742C145.293 58.5742 145.84 58.4336 146.238 58.1523C146.645 57.8711 146.93 57.4883 147.094 57.0039C147.266 56.5117 147.352 55.9648 147.352 55.3633ZM154.746 43.9375H157.723L162.105 56.4648L166.488 43.9375H169.465L163.301 61H160.91L154.746 43.9375ZM153.141 43.9375H156.105L156.645 56.1484V61H153.141V43.9375ZM168.105 43.9375H171.082V61H167.566V56.1484L168.105 43.9375ZM177.516 48.3203V61H174.129V48.3203H177.516ZM173.918 45.0156C173.918 44.5234 174.09 44.1172 174.434 43.7969C174.777 43.4766 175.238 43.3164 175.816 43.3164C176.387 43.3164 176.844 43.4766 177.188 43.7969C177.539 44.1172 177.715 44.5234 177.715 45.0156C177.715 45.5078 177.539 45.9141 177.188 46.2344C176.844 46.5547 176.387 46.7148 175.816 46.7148C175.238 46.7148 174.777 46.5547 174.434 46.2344C174.09 45.9141 173.918 45.5078 173.918 45.0156ZM183.609 51.0273V61H180.234V48.3203H183.398L183.609 51.0273ZM183.117 54.2148H182.203C182.203 53.2773 182.324 52.4336 182.566 51.6836C182.809 50.9258 183.148 50.2812 183.586 49.75C184.023 49.2109 184.543 48.8008 185.145 48.5195C185.754 48.2305 186.434 48.0859 187.184 48.0859C187.777 48.0859 188.32 48.1719 188.812 48.3438C189.305 48.5156 189.727 48.7891 190.078 49.1641C190.438 49.5391 190.711 50.0352 190.898 50.6523C191.094 51.2695 191.191 52.0234 191.191 52.9141V61H187.793V52.9023C187.793 52.3398 187.715 51.9023 187.559 51.5898C187.402 51.2773 187.172 51.0586 186.867 50.9336C186.57 50.8008 186.203 50.7344 185.766 50.7344C185.312 50.7344 184.918 50.8242 184.582 51.0039C184.254 51.1836 183.98 51.4336 183.762 51.7539C183.551 52.0664 183.391 52.4336 183.281 52.8555C183.172 53.2773 183.117 53.7305 183.117 54.2148ZM201.246 58.2344V43H204.645V61H201.586L201.246 58.2344ZM193.23 54.8125V54.5664C193.23 53.5977 193.34 52.7188 193.559 51.9297C193.777 51.1328 194.098 50.4492 194.52 49.8789C194.941 49.3086 195.461 48.8672 196.078 48.5547C196.695 48.2422 197.398 48.0859 198.188 48.0859C198.93 48.0859 199.578 48.2422 200.133 48.5547C200.695 48.8672 201.172 49.3125 201.562 49.8906C201.961 50.4609 202.281 51.1367 202.523 51.918C202.766 52.6914 202.941 53.5391 203.051 54.4609V55C202.941 55.8828 202.766 56.7031 202.523 57.4609C202.281 58.2188 201.961 58.8828 201.562 59.4531C201.172 60.0156 200.695 60.4531 200.133 60.7656C199.57 61.0781 198.914 61.2344 198.164 61.2344C197.375 61.2344 196.672 61.0742 196.055 60.7539C195.445 60.4336 194.93 59.9844 194.508 59.4062C194.094 58.8281 193.777 58.1484 193.559 57.3672C193.34 56.5859 193.23 55.7344 193.23 54.8125ZM196.605 54.5664V54.8125C196.605 55.3359 196.645 55.8242 196.723 56.2773C196.809 56.7305 196.945 57.1328 197.133 57.4844C197.328 57.8281 197.578 58.0977 197.883 58.293C198.195 58.4805 198.574 58.5742 199.02 58.5742C199.598 58.5742 200.074 58.4453 200.449 58.1875C200.824 57.9219 201.109 57.5586 201.305 57.0977C201.508 56.6367 201.625 56.1055 201.656 55.5039V53.9688C201.633 53.4766 201.562 53.0352 201.445 52.6445C201.336 52.2461 201.172 51.9062 200.953 51.625C200.742 51.3438 200.477 51.125 200.156 50.9688C199.844 50.8125 199.473 50.7344 199.043 50.7344C198.605 50.7344 198.23 50.8359 197.918 51.0391C197.605 51.2344 197.352 51.5039 197.156 51.8477C196.969 52.1914 196.828 52.5977 196.734 53.0664C196.648 53.5273 196.605 54.0273 196.605 54.5664Z" fill="#888888"/>
<path d="M106.688 119H99.1172L99.1641 112.672H106.688C108.25 112.672 109.57 112.297 110.648 111.547C111.742 110.797 112.57 109.68 113.133 108.195C113.711 106.695 114 104.852 114 102.664V101.188C114 99.5469 113.836 98.1094 113.508 96.875C113.195 95.625 112.727 94.5859 112.102 93.7578C111.477 92.9141 110.695 92.2812 109.758 91.8594C108.836 91.4375 107.773 91.2266 106.57 91.2266H98.9766V84.875H106.57C108.883 84.875 111 85.2734 112.922 86.0703C114.859 86.8516 116.531 87.9766 117.938 89.4453C119.359 90.8984 120.453 92.625 121.219 94.625C122 96.6094 122.391 98.8125 122.391 101.234V102.664C122.391 105.07 122 107.273 121.219 109.273C120.453 111.273 119.367 113 117.961 114.453C116.555 115.906 114.891 117.031 112.969 117.828C111.062 118.609 108.969 119 106.688 119ZM103.828 84.875V119H95.6016V84.875H103.828ZM138.586 119.469C136.523 119.469 134.68 119.148 133.055 118.508C131.43 117.852 130.055 116.953 128.93 115.812C127.82 114.672 126.969 113.359 126.375 111.875C125.797 110.391 125.508 108.82 125.508 107.164V106.273C125.508 104.414 125.766 102.695 126.281 101.117C126.797 99.5234 127.562 98.1328 128.578 96.9453C129.594 95.7578 130.867 94.8359 132.398 94.1797C133.93 93.5078 135.711 93.1719 137.742 93.1719C139.539 93.1719 141.148 93.4609 142.57 94.0391C143.992 94.6172 145.195 95.4453 146.18 96.5234C147.18 97.6016 147.938 98.9062 148.453 100.438C148.984 101.969 149.25 103.688 149.25 105.594V108.805H128.531V103.859H141.539V103.25C141.555 102.406 141.406 101.688 141.094 101.094C140.797 100.5 140.359 100.047 139.781 99.7344C139.203 99.4219 138.5 99.2656 137.672 99.2656C136.812 99.2656 136.102 99.4531 135.539 99.8281C134.992 100.203 134.562 100.719 134.25 101.375C133.953 102.016 133.742 102.758 133.617 103.602C133.492 104.445 133.43 105.336 133.43 106.273V107.164C133.43 108.102 133.555 108.953 133.805 109.719C134.07 110.484 134.445 111.141 134.93 111.688C135.43 112.219 136.023 112.633 136.711 112.93C137.414 113.227 138.211 113.375 139.102 113.375C140.18 113.375 141.242 113.172 142.289 112.766C143.336 112.359 144.234 111.688 144.984 110.75L148.57 115.016C148.055 115.75 147.32 116.461 146.367 117.148C145.43 117.836 144.305 118.398 142.992 118.836C141.68 119.258 140.211 119.469 138.586 119.469ZM160.43 99.0078V119H152.531V93.6406H159.938L160.43 99.0078ZM159.469 105.453L157.664 105.5C157.664 103.719 157.875 102.078 158.297 100.578C158.719 99.0781 159.344 97.7734 160.172 96.6641C161 95.5547 162.016 94.6953 163.219 94.0859C164.438 93.4766 165.844 93.1719 167.438 93.1719C168.547 93.1719 169.555 93.3438 170.461 93.6875C171.367 94.0156 172.148 94.5391 172.805 95.2578C173.461 95.9609 173.961 96.8828 174.305 98.0234C174.664 99.1484 174.844 100.5 174.844 102.078V119H166.945V103.086C166.945 102.008 166.82 101.195 166.57 100.648C166.336 100.102 165.992 99.7344 165.539 99.5469C165.086 99.3594 164.531 99.2656 163.875 99.2656C163.188 99.2656 162.57 99.4219 162.023 99.7344C161.477 100.047 161.008 100.484 160.617 101.047C160.242 101.594 159.953 102.242 159.75 102.992C159.562 103.742 159.469 104.562 159.469 105.453ZM173.953 105.453L171.75 105.5C171.75 103.719 171.945 102.078 172.336 100.578C172.742 99.0781 173.344 97.7734 174.141 96.6641C174.953 95.5547 175.961 94.6953 177.164 94.0859C178.367 93.4766 179.766 93.1719 181.359 93.1719C182.516 93.1719 183.578 93.3438 184.547 93.6875C185.516 94.0312 186.352 94.5859 187.055 95.3516C187.758 96.1172 188.305 97.1328 188.695 98.3984C189.086 99.6484 189.281 101.195 189.281 103.039V119H181.359V103.039C181.359 101.992 181.234 101.203 180.984 100.672C180.75 100.125 180.406 99.7578 179.953 99.5703C179.5 99.3672 178.961 99.2656 178.336 99.2656C177.586 99.2656 176.938 99.4219 176.391 99.7344C175.844 100.047 175.383 100.484 175.008 101.047C174.648 101.594 174.383 102.242 174.211 102.992C174.039 103.742 173.953 104.562 173.953 105.453ZM192.82 106.578V106.086C192.82 104.227 193.086 102.516 193.617 100.953C194.148 99.375 194.93 98.0078 195.961 96.8516C196.992 95.6953 198.266 94.7969 199.781 94.1562C201.297 93.5 203.047 93.1719 205.031 93.1719C207.031 93.1719 208.789 93.5 210.305 94.1562C211.836 94.7969 213.117 95.6953 214.148 96.8516C215.18 98.0078 215.961 99.375 216.492 100.953C217.023 102.516 217.289 104.227 217.289 106.086V106.578C217.289 108.422 217.023 110.133 216.492 111.711C215.961 113.273 215.18 114.641 214.148 115.812C213.117 116.969 211.844 117.867 210.328 118.508C208.812 119.148 207.062 119.469 205.078 119.469C203.094 119.469 201.336 119.148 199.805 118.508C198.273 117.867 196.992 116.969 195.961 115.812C194.93 114.641 194.148 113.273 193.617 111.711C193.086 110.133 192.82 108.422 192.82 106.578ZM200.719 106.086V106.578C200.719 107.531 200.789 108.422 200.93 109.25C201.07 110.078 201.305 110.805 201.633 111.43C201.961 112.039 202.406 112.516 202.969 112.859C203.531 113.203 204.234 113.375 205.078 113.375C205.906 113.375 206.594 113.203 207.141 112.859C207.703 112.516 208.148 112.039 208.477 111.43C208.805 110.805 209.039 110.078 209.18 109.25C209.32 108.422 209.391 107.531 209.391 106.578V106.086C209.391 105.164 209.32 104.297 209.18 103.484C209.039 102.656 208.805 101.93 208.477 101.305C208.148 100.664 207.703 100.164 207.141 99.8047C206.578 99.4453 205.875 99.2656 205.031 99.2656C204.203 99.2656 203.508 99.4453 202.945 99.8047C202.398 100.164 201.961 100.664 201.633 101.305C201.305 101.93 201.07 102.656 200.93 103.484C200.789 104.297 200.719 105.164 200.719 106.086Z" fill="black"/>
<path d="M1134 0H1348C1356.28 0 1363 6.71573 1363 15V148C1363 156.284 1356.28 163 1348 163H1134V0Z" fill="#C2ADCC"/>
<path d="M1280.07 47.5H1216.93L1214.5 49.9286V113.071L1216.93 115.5H1280.07L1282.5 113.071V49.9286L1280.07 47.5ZM1277.64 110.643H1233.93V100.929H1245.1C1246.56 103.843 1249.96 105.786 1253.36 105.786C1258.7 105.786 1263.07 101.414 1263.07 96.0714C1263.07 90.7286 1258.7 86.3571 1253.36 86.3571C1248.01 86.3571 1243.64 90.7286 1243.64 96.0714H1229.07V110.643H1219.36V52.3571H1229.07V63.5286C1226.16 64.9857 1224.21 68.3857 1224.21 71.7857C1224.21 77.1286 1228.59 81.5 1233.93 81.5C1239.27 81.5 1243.64 77.1286 1243.64 71.7857H1253.36C1253.36 77.1286 1257.73 81.5 1263.07 81.5C1268.41 81.5 1272.79 77.1286 1272.79 71.7857C1272.79 66.4429 1268.41 62.0714 1263.07 62.0714C1259.67 62.0714 1256.27 64.0143 1254.81 66.9286H1242.19C1240.73 64.0143 1237.33 62.0714 1233.93 62.0714V52.3571H1277.64V110.643ZM1248.5 96.0714C1248.5 93.1571 1250.44 91.2143 1253.36 91.2143C1256.27 91.2143 1258.21 93.1571 1258.21 96.0714C1258.21 98.9857 1256.27 100.929 1253.36 100.929C1250.44 100.929 1248.5 98.9857 1248.5 96.0714ZM1233.93 66.9286C1236.84 66.9286 1238.79 68.8714 1238.79 71.7857C1238.79 74.7 1236.84 76.6429 1233.93 76.6429C1231.01 76.6429 1229.07 74.7 1229.07 71.7857C1229.07 68.8714 1231.01 66.9286 1233.93 66.9286ZM1263.07 66.9286C1265.99 66.9286 1267.93 68.8714 1267.93 71.7857C1267.93 74.7 1265.99 76.6429 1263.07 76.6429C1260.16 76.6429 1258.21 74.7 1258.21 71.7857C1258.21 68.8714 1260.16 66.9286 1263.07 66.9286Z" fill="white"/>
</svg>
