<svg width="1363" height="163" viewBox="0 0 1363 163" fill="none" xmlns="http://www.w3.org/2000/svg">
<path d="M0 15C0 6.71573 6.71573 0 15 0H37V163H15C6.71573 163 0 156.284 0 148V15Z" fill="#424242"/>
<rect width="1097" height="163" transform="translate(37)" fill="#F0F0F0"/>
<path d="M105.973 58.2578V61H96.8906V58.2578H105.973ZM98.0391 43.9375V61H94.5234V43.9375H98.0391ZM104.789 50.8867V53.5586H96.8906V50.8867H104.789ZM105.961 43.9375V46.6914H96.8906V43.9375H105.961ZM115.066 58.2344V43H118.465V61H115.406L115.066 58.2344ZM107.051 54.8125V54.5664C107.051 53.5977 107.16 52.7188 107.379 51.9297C107.598 51.1328 107.918 50.4492 108.34 49.8789C108.762 49.3086 109.281 48.8672 109.898 48.5547C110.516 48.2422 111.219 48.0859 112.008 48.0859C112.75 48.0859 113.398 48.2422 113.953 48.5547C114.516 48.8672 114.992 49.3125 115.383 49.8906C115.781 50.4609 116.102 51.1367 116.344 51.918C116.586 52.6914 116.762 53.5391 116.871 54.4609V55C116.762 55.8828 116.586 56.7031 116.344 57.4609C116.102 58.2188 115.781 58.8828 115.383 59.4531C114.992 60.0156 114.516 60.4531 113.953 60.7656C113.391 61.0781 112.734 61.2344 111.984 61.2344C111.195 61.2344 110.492 61.0742 109.875 60.7539C109.266 60.4336 108.75 59.9844 108.328 59.4062C107.914 58.8281 107.598 58.1484 107.379 57.3672C107.16 56.5859 107.051 55.7344 107.051 54.8125ZM110.426 54.5664V54.8125C110.426 55.3359 110.465 55.8242 110.543 56.2773C110.629 56.7305 110.766 57.1328 110.953 57.4844C111.148 57.8281 111.398 58.0977 111.703 58.293C112.016 58.4805 112.395 58.5742 112.84 58.5742C113.418 58.5742 113.895 58.4453 114.27 58.1875C114.645 57.9219 114.93 57.5586 115.125 57.0977C115.328 56.6367 115.445 56.1055 115.477 55.5039V53.9688C115.453 53.4766 115.383 53.0352 115.266 52.6445C115.156 52.2461 114.992 51.9062 114.773 51.625C114.562 51.3438 114.297 51.125 113.977 50.9688C113.664 50.8125 113.293 50.7344 112.863 50.7344C112.426 50.7344 112.051 50.8359 111.738 51.0391C111.426 51.2344 111.172 51.5039 110.977 51.8477C110.789 52.1914 110.648 52.5977 110.555 53.0664C110.469 53.5273 110.426 54.0273 110.426 54.5664ZM128.602 57.9648V48.3203H131.977V61H128.801L128.602 57.9648ZM128.977 55.3633L129.973 55.3398C129.973 56.1836 129.875 56.9688 129.68 57.6953C129.484 58.4141 129.191 59.0391 128.801 59.5703C128.41 60.0938 127.918 60.5039 127.324 60.8008C126.73 61.0898 126.031 61.2344 125.227 61.2344C124.609 61.2344 124.039 61.1484 123.516 60.9766C123 60.7969 122.555 60.5195 122.18 60.1445C121.812 59.7617 121.523 59.2734 121.312 58.6797C121.109 58.0781 121.008 57.3555 121.008 56.5117V48.3203H124.383V56.5352C124.383 56.9102 124.426 57.2266 124.512 57.4844C124.605 57.7422 124.734 57.9531 124.898 58.1172C125.062 58.2812 125.254 58.3984 125.473 58.4688C125.699 58.5391 125.949 58.5742 126.223 58.5742C126.918 58.5742 127.465 58.4336 127.863 58.1523C128.27 57.8711 128.555 57.4883 128.719 57.0039C128.891 56.5117 128.977 55.9648 128.977 55.3633ZM136.371 43.9375H139.348L143.73 56.4648L148.113 43.9375H151.09L144.926 61H142.535L136.371 43.9375ZM134.766 43.9375H137.73L138.27 56.1484V61H134.766V43.9375ZM149.73 43.9375H152.707V61H149.191V56.1484L149.73 43.9375ZM159.141 48.3203V61H155.754V48.3203H159.141ZM155.543 45.0156C155.543 44.5234 155.715 44.1172 156.059 43.7969C156.402 43.4766 156.863 43.3164 157.441 43.3164C158.012 43.3164 158.469 43.4766 158.812 43.7969C159.164 44.1172 159.34 44.5234 159.34 45.0156C159.34 45.5078 159.164 45.9141 158.812 46.2344C158.469 46.5547 158.012 46.7148 157.441 46.7148C156.863 46.7148 156.402 46.5547 156.059 46.2344C155.715 45.9141 155.543 45.5078 155.543 45.0156ZM165.234 51.0273V61H161.859V48.3203H165.023L165.234 51.0273ZM164.742 54.2148H163.828C163.828 53.2773 163.949 52.4336 164.191 51.6836C164.434 50.9258 164.773 50.2812 165.211 49.75C165.648 49.2109 166.168 48.8008 166.77 48.5195C167.379 48.2305 168.059 48.0859 168.809 48.0859C169.402 48.0859 169.945 48.1719 170.438 48.3438C170.93 48.5156 171.352 48.7891 171.703 49.1641C172.062 49.5391 172.336 50.0352 172.523 50.6523C172.719 51.2695 172.816 52.0234 172.816 52.9141V61H169.418V52.9023C169.418 52.3398 169.34 51.9023 169.184 51.5898C169.027 51.2773 168.797 51.0586 168.492 50.9336C168.195 50.8008 167.828 50.7344 167.391 50.7344C166.938 50.7344 166.543 50.8242 166.207 51.0039C165.879 51.1836 165.605 51.4336 165.387 51.7539C165.176 52.0664 165.016 52.4336 164.906 52.8555C164.797 53.2773 164.742 53.7305 164.742 54.2148ZM182.871 58.2344V43H186.27V61H183.211L182.871 58.2344ZM174.855 54.8125V54.5664C174.855 53.5977 174.965 52.7188 175.184 51.9297C175.402 51.1328 175.723 50.4492 176.145 49.8789C176.566 49.3086 177.086 48.8672 177.703 48.5547C178.32 48.2422 179.023 48.0859 179.812 48.0859C180.555 48.0859 181.203 48.2422 181.758 48.5547C182.32 48.8672 182.797 49.3125 183.188 49.8906C183.586 50.4609 183.906 51.1367 184.148 51.918C184.391 52.6914 184.566 53.5391 184.676 54.4609V55C184.566 55.8828 184.391 56.7031 184.148 57.4609C183.906 58.2188 183.586 58.8828 183.188 59.4531C182.797 60.0156 182.32 60.4531 181.758 60.7656C181.195 61.0781 180.539 61.2344 179.789 61.2344C179 61.2344 178.297 61.0742 177.68 60.7539C177.07 60.4336 176.555 59.9844 176.133 59.4062C175.719 58.8281 175.402 58.1484 175.184 57.3672C174.965 56.5859 174.855 55.7344 174.855 54.8125ZM178.23 54.5664V54.8125C178.23 55.3359 178.27 55.8242 178.348 56.2773C178.434 56.7305 178.57 57.1328 178.758 57.4844C178.953 57.8281 179.203 58.0977 179.508 58.293C179.82 58.4805 180.199 58.5742 180.645 58.5742C181.223 58.5742 181.699 58.4453 182.074 58.1875C182.449 57.9219 182.734 57.5586 182.93 57.0977C183.133 56.6367 183.25 56.1055 183.281 55.5039V53.9688C183.258 53.4766 183.188 53.0352 183.07 52.6445C182.961 52.2461 182.797 51.9062 182.578 51.625C182.367 51.3438 182.102 51.125 181.781 50.9688C181.469 50.8125 181.098 50.7344 180.668 50.7344C180.23 50.7344 179.855 50.8359 179.543 51.0391C179.23 51.2344 178.977 51.5039 178.781 51.8477C178.594 52.1914 178.453 52.5977 178.359 53.0664C178.273 53.5273 178.23 54.0273 178.23 54.5664Z" fill="#888888"/>
<path d="M114.117 84.875H122.344V107.164C122.344 109.82 121.789 112.07 120.68 113.914C119.57 115.742 118.016 117.125 116.016 118.062C114.016 119 111.664 119.469 108.961 119.469C106.289 119.469 103.938 119 101.906 118.062C99.8906 117.125 98.3125 115.742 97.1719 113.914C96.0469 112.07 95.4844 109.82 95.4844 107.164V84.875H103.734V107.164C103.734 108.57 103.938 109.719 104.344 110.609C104.75 111.484 105.344 112.125 106.125 112.531C106.906 112.938 107.852 113.141 108.961 113.141C110.086 113.141 111.031 112.938 111.797 112.531C112.562 112.125 113.141 111.484 113.531 110.609C113.922 109.719 114.117 108.57 114.117 107.164V84.875ZM136.266 84.875V119H128.062V84.875H136.266ZM172.523 84.875H180.75V107.164C180.75 109.82 180.195 112.07 179.086 113.914C177.977 115.742 176.422 117.125 174.422 118.062C172.422 119 170.07 119.469 167.367 119.469C164.695 119.469 162.344 119 160.312 118.062C158.297 117.125 156.719 115.742 155.578 113.914C154.453 112.07 153.891 109.82 153.891 107.164V84.875H162.141V107.164C162.141 108.57 162.344 109.719 162.75 110.609C163.156 111.484 163.75 112.125 164.531 112.531C165.312 112.938 166.258 113.141 167.367 113.141C168.492 113.141 169.438 112.938 170.203 112.531C170.969 112.125 171.547 111.484 171.938 110.609C172.328 109.719 172.523 108.57 172.523 107.164V84.875ZM193.078 84.875L198.656 96.2188L204.234 84.875H213.609L204.094 101.797L213.867 119H204.398L198.656 107.445L192.914 119H183.422L193.219 101.797L183.68 84.875H193.078Z" fill="black"/>
<path d="M1134 0H1348C1356.28 0 1363 6.71573 1363 15V148C1363 156.284 1356.28 163 1348 163H1134V0Z" fill="#A6F0DD"/>
<path d="M1248.5 111.917C1244.51 111.917 1240.55 111.13 1236.86 109.601C1233.17 108.073 1229.82 105.832 1226.99 103.008C1221.29 97.3036 1218.08 89.567 1218.08 81.5C1218.08 73.433 1221.29 65.6964 1226.99 59.9922C1232.7 54.2879 1240.43 51.0833 1248.5 51.0833C1265.23 51.0833 1278.92 63.25 1278.92 78.4583C1278.92 83.2985 1276.99 87.9405 1273.57 91.363C1270.15 94.7856 1265.51 96.7083 1260.67 96.7083H1255.19C1254.28 96.7083 1253.67 97.3167 1253.67 98.2292C1253.67 98.5333 1253.97 98.8375 1253.97 99.1417C1255.19 100.662 1255.8 102.487 1255.8 104.312C1256.1 108.571 1252.76 111.917 1248.5 111.917ZM1248.5 57.1667C1242.05 57.1667 1235.86 59.7303 1231.29 64.2937C1226.73 68.8571 1224.17 75.0464 1224.17 81.5C1224.17 87.9536 1226.73 94.1429 1231.29 98.7063C1235.86 103.27 1242.05 105.833 1248.5 105.833C1249.41 105.833 1250.02 105.225 1250.02 104.312C1250.02 103.704 1249.72 103.4 1249.72 103.096C1248.5 101.575 1247.89 100.054 1247.89 98.2292C1247.89 93.9708 1251.24 90.625 1255.5 90.625H1260.67C1263.89 90.625 1266.99 89.3432 1269.27 87.0615C1271.55 84.7798 1272.83 81.6851 1272.83 78.4583C1272.83 66.5958 1261.88 57.1667 1248.5 57.1667ZM1231.77 75.4167C1234.2 75.4167 1236.33 77.5458 1236.33 79.9792C1236.33 82.4125 1234.2 84.5417 1231.77 84.5417C1229.34 84.5417 1227.21 82.4125 1227.21 79.9792C1227.21 77.5458 1229.34 75.4167 1231.77 75.4167ZM1240.9 63.25C1243.33 63.25 1245.46 65.3792 1245.46 67.8125C1245.46 70.2458 1243.33 72.375 1240.9 72.375C1238.46 72.375 1236.33 70.2458 1236.33 67.8125C1236.33 65.3792 1238.46 63.25 1240.9 63.25ZM1256.1 63.25C1258.54 63.25 1260.67 65.3792 1260.67 67.8125C1260.67 70.2458 1258.54 72.375 1256.1 72.375C1253.67 72.375 1251.54 70.2458 1251.54 67.8125C1251.54 65.3792 1253.67 63.25 1256.1 63.25ZM1265.23 75.4167C1267.66 75.4167 1269.79 77.5458 1269.79 79.9792C1269.79 82.4125 1267.66 84.5417 1265.23 84.5417C1262.8 84.5417 1260.67 82.4125 1260.67 79.9792C1260.67 77.5458 1262.8 75.4167 1265.23 75.4167Z" fill="white"/>
</svg>
