<svg width="1363" height="174" viewBox="0 0 1363 174" fill="none" xmlns="http://www.w3.org/2000/svg">
<path d="M0 15C0 6.71573 6.71573 0 15 0H37V174H15C6.71573 174 0 167.284 0 159V15Z" fill="#424242"/>
<rect width="1097" height="174" transform="translate(37)" fill="#F0F0F0"/>
<path d="M105.973 58.2578V61H96.8906V58.2578H105.973ZM98.0391 43.9375V61H94.5234V43.9375H98.0391ZM104.789 50.8867V53.5586H96.8906V50.8867H104.789ZM105.961 43.9375V46.6914H96.8906V43.9375H105.961ZM115.066 58.2344V43H118.465V61H115.406L115.066 58.2344ZM107.051 54.8125V54.5664C107.051 53.5977 107.16 52.7188 107.379 51.9297C107.598 51.1328 107.918 50.4492 108.34 49.8789C108.762 49.3086 109.281 48.8672 109.898 48.5547C110.516 48.2422 111.219 48.0859 112.008 48.0859C112.75 48.0859 113.398 48.2422 113.953 48.5547C114.516 48.8672 114.992 49.3125 115.383 49.8906C115.781 50.4609 116.102 51.1367 116.344 51.918C116.586 52.6914 116.762 53.5391 116.871 54.4609V55C116.762 55.8828 116.586 56.7031 116.344 57.4609C116.102 58.2188 115.781 58.8828 115.383 59.4531C114.992 60.0156 114.516 60.4531 113.953 60.7656C113.391 61.0781 112.734 61.2344 111.984 61.2344C111.195 61.2344 110.492 61.0742 109.875 60.7539C109.266 60.4336 108.75 59.9844 108.328 59.4062C107.914 58.8281 107.598 58.1484 107.379 57.3672C107.16 56.5859 107.051 55.7344 107.051 54.8125ZM110.426 54.5664V54.8125C110.426 55.3359 110.465 55.8242 110.543 56.2773C110.629 56.7305 110.766 57.1328 110.953 57.4844C111.148 57.8281 111.398 58.0977 111.703 58.293C112.016 58.4805 112.395 58.5742 112.84 58.5742C113.418 58.5742 113.895 58.4453 114.27 58.1875C114.645 57.9219 114.93 57.5586 115.125 57.0977C115.328 56.6367 115.445 56.1055 115.477 55.5039V53.9688C115.453 53.4766 115.383 53.0352 115.266 52.6445C115.156 52.2461 114.992 51.9062 114.773 51.625C114.562 51.3438 114.297 51.125 113.977 50.9688C113.664 50.8125 113.293 50.7344 112.863 50.7344C112.426 50.7344 112.051 50.8359 111.738 51.0391C111.426 51.2344 111.172 51.5039 110.977 51.8477C110.789 52.1914 110.648 52.5977 110.555 53.0664C110.469 53.5273 110.426 54.0273 110.426 54.5664ZM128.602 57.9648V48.3203H131.977V61H128.801L128.602 57.9648ZM128.977 55.3633L129.973 55.3398C129.973 56.1836 129.875 56.9688 129.68 57.6953C129.484 58.4141 129.191 59.0391 128.801 59.5703C128.41 60.0938 127.918 60.5039 127.324 60.8008C126.73 61.0898 126.031 61.2344 125.227 61.2344C124.609 61.2344 124.039 61.1484 123.516 60.9766C123 60.7969 122.555 60.5195 122.18 60.1445C121.812 59.7617 121.523 59.2734 121.312 58.6797C121.109 58.0781 121.008 57.3555 121.008 56.5117V48.3203H124.383V56.5352C124.383 56.9102 124.426 57.2266 124.512 57.4844C124.605 57.7422 124.734 57.9531 124.898 58.1172C125.062 58.2812 125.254 58.3984 125.473 58.4688C125.699 58.5391 125.949 58.5742 126.223 58.5742C126.918 58.5742 127.465 58.4336 127.863 58.1523C128.27 57.8711 128.555 57.4883 128.719 57.0039C128.891 56.5117 128.977 55.9648 128.977 55.3633ZM136.371 43.9375H139.348L143.73 56.4648L148.113 43.9375H151.09L144.926 61H142.535L136.371 43.9375ZM134.766 43.9375H137.73L138.27 56.1484V61H134.766V43.9375ZM149.73 43.9375H152.707V61H149.191V56.1484L149.73 43.9375ZM159.141 48.3203V61H155.754V48.3203H159.141ZM155.543 45.0156C155.543 44.5234 155.715 44.1172 156.059 43.7969C156.402 43.4766 156.863 43.3164 157.441 43.3164C158.012 43.3164 158.469 43.4766 158.812 43.7969C159.164 44.1172 159.34 44.5234 159.34 45.0156C159.34 45.5078 159.164 45.9141 158.812 46.2344C158.469 46.5547 158.012 46.7148 157.441 46.7148C156.863 46.7148 156.402 46.5547 156.059 46.2344C155.715 45.9141 155.543 45.5078 155.543 45.0156ZM165.234 51.0273V61H161.859V48.3203H165.023L165.234 51.0273ZM164.742 54.2148H163.828C163.828 53.2773 163.949 52.4336 164.191 51.6836C164.434 50.9258 164.773 50.2812 165.211 49.75C165.648 49.2109 166.168 48.8008 166.77 48.5195C167.379 48.2305 168.059 48.0859 168.809 48.0859C169.402 48.0859 169.945 48.1719 170.438 48.3438C170.93 48.5156 171.352 48.7891 171.703 49.1641C172.062 49.5391 172.336 50.0352 172.523 50.6523C172.719 51.2695 172.816 52.0234 172.816 52.9141V61H169.418V52.9023C169.418 52.3398 169.34 51.9023 169.184 51.5898C169.027 51.2773 168.797 51.0586 168.492 50.9336C168.195 50.8008 167.828 50.7344 167.391 50.7344C166.938 50.7344 166.543 50.8242 166.207 51.0039C165.879 51.1836 165.605 51.4336 165.387 51.7539C165.176 52.0664 165.016 52.4336 164.906 52.8555C164.797 53.2773 164.742 53.7305 164.742 54.2148ZM182.871 58.2344V43H186.27V61H183.211L182.871 58.2344ZM174.855 54.8125V54.5664C174.855 53.5977 174.965 52.7188 175.184 51.9297C175.402 51.1328 175.723 50.4492 176.145 49.8789C176.566 49.3086 177.086 48.8672 177.703 48.5547C178.32 48.2422 179.023 48.0859 179.812 48.0859C180.555 48.0859 181.203 48.2422 181.758 48.5547C182.32 48.8672 182.797 49.3125 183.188 49.8906C183.586 50.4609 183.906 51.1367 184.148 51.918C184.391 52.6914 184.566 53.5391 184.676 54.4609V55C184.566 55.8828 184.391 56.7031 184.148 57.4609C183.906 58.2188 183.586 58.8828 183.188 59.4531C182.797 60.0156 182.32 60.4531 181.758 60.7656C181.195 61.0781 180.539 61.2344 179.789 61.2344C179 61.2344 178.297 61.0742 177.68 60.7539C177.07 60.4336 176.555 59.9844 176.133 59.4062C175.719 58.8281 175.402 58.1484 175.184 57.3672C174.965 56.5859 174.855 55.7344 174.855 54.8125ZM178.23 54.5664V54.8125C178.23 55.3359 178.27 55.8242 178.348 56.2773C178.434 56.7305 178.57 57.1328 178.758 57.4844C178.953 57.8281 179.203 58.0977 179.508 58.293C179.82 58.4805 180.199 58.5742 180.645 58.5742C181.223 58.5742 181.699 58.4453 182.074 58.1875C182.449 57.9219 182.734 57.5586 182.93 57.0977C183.133 56.6367 183.25 56.1055 183.281 55.5039V53.9688C183.258 53.4766 183.188 53.0352 183.07 52.6445C182.961 52.2461 182.797 51.9062 182.578 51.625C182.367 51.3438 182.102 51.125 181.781 50.9688C181.469 50.8125 181.098 50.7344 180.668 50.7344C180.23 50.7344 179.855 50.8359 179.543 51.0391C179.23 51.2344 178.977 51.5039 178.781 51.8477C178.594 52.1914 178.453 52.5977 178.359 53.0664C178.273 53.5273 178.23 54.0273 178.23 54.5664Z" fill="#888888"/>
<path d="M104.344 95.875V130H96.1406V95.875H104.344ZM117.727 110.008V130H109.828V104.641H117.234L117.727 110.008ZM116.766 116.453L114.961 116.5C114.961 114.719 115.172 113.078 115.594 111.578C116.016 110.078 116.641 108.773 117.469 107.664C118.297 106.555 119.312 105.695 120.516 105.086C121.734 104.477 123.141 104.172 124.734 104.172C125.844 104.172 126.852 104.344 127.758 104.688C128.664 105.016 129.445 105.539 130.102 106.258C130.758 106.961 131.258 107.883 131.602 109.023C131.961 110.148 132.141 111.5 132.141 113.078V130H124.242V114.086C124.242 113.008 124.117 112.195 123.867 111.648C123.633 111.102 123.289 110.734 122.836 110.547C122.383 110.359 121.828 110.266 121.172 110.266C120.484 110.266 119.867 110.422 119.32 110.734C118.773 111.047 118.305 111.484 117.914 112.047C117.539 112.594 117.25 113.242 117.047 113.992C116.859 114.742 116.766 115.562 116.766 116.453ZM131.25 116.453L129.047 116.5C129.047 114.719 129.242 113.078 129.633 111.578C130.039 110.078 130.641 108.773 131.438 107.664C132.25 106.555 133.258 105.695 134.461 105.086C135.664 104.477 137.062 104.172 138.656 104.172C139.812 104.172 140.875 104.344 141.844 104.688C142.812 105.031 143.648 105.586 144.352 106.352C145.055 107.117 145.602 108.133 145.992 109.398C146.383 110.648 146.578 112.195 146.578 114.039V130H138.656V114.039C138.656 112.992 138.531 112.203 138.281 111.672C138.047 111.125 137.703 110.758 137.25 110.57C136.797 110.367 136.258 110.266 135.633 110.266C134.883 110.266 134.234 110.422 133.688 110.734C133.141 111.047 132.68 111.484 132.305 112.047C131.945 112.594 131.68 113.242 131.508 113.992C131.336 114.742 131.25 115.562 131.25 116.453ZM159.07 109.516V139.75H151.172V104.641H158.531L159.07 109.516ZM174.633 117.016V117.508C174.633 119.352 174.422 121.062 174 122.641C173.578 124.219 172.953 125.594 172.125 126.766C171.297 127.938 170.266 128.852 169.031 129.508C167.812 130.148 166.398 130.469 164.789 130.469C163.273 130.469 161.969 130.133 160.875 129.461C159.781 128.789 158.867 127.859 158.133 126.672C157.398 125.484 156.805 124.125 156.352 122.594C155.898 121.062 155.539 119.445 155.273 117.742V117.109C155.539 115.281 155.898 113.586 156.352 112.023C156.805 110.445 157.398 109.07 158.133 107.898C158.867 106.727 159.773 105.812 160.852 105.156C161.945 104.5 163.25 104.172 164.766 104.172C166.375 104.172 167.789 104.477 169.008 105.086C170.242 105.695 171.273 106.57 172.102 107.711C172.945 108.836 173.578 110.188 174 111.766C174.422 113.344 174.633 115.094 174.633 117.016ZM166.734 117.508V117.016C166.734 116.031 166.664 115.133 166.523 114.32C166.383 113.492 166.156 112.773 165.844 112.164C165.547 111.555 165.148 111.086 164.648 110.758C164.148 110.43 163.531 110.266 162.797 110.266C161.953 110.266 161.242 110.398 160.664 110.664C160.102 110.914 159.648 111.305 159.305 111.836C158.977 112.352 158.742 113 158.602 113.781C158.477 114.547 158.422 115.445 158.438 116.477V118.398C158.406 119.586 158.523 120.633 158.789 121.539C159.055 122.43 159.516 123.125 160.172 123.625C160.828 124.125 161.719 124.375 162.844 124.375C163.594 124.375 164.219 124.203 164.719 123.859C165.219 123.5 165.617 123.008 165.914 122.383C166.211 121.742 166.422 121.008 166.547 120.18C166.672 119.352 166.734 118.461 166.734 117.508ZM186.492 94V130H178.57V94H186.492ZM203.648 130.469C201.586 130.469 199.742 130.148 198.117 129.508C196.492 128.852 195.117 127.953 193.992 126.812C192.883 125.672 192.031 124.359 191.438 122.875C190.859 121.391 190.57 119.82 190.57 118.164V117.273C190.57 115.414 190.828 113.695 191.344 112.117C191.859 110.523 192.625 109.133 193.641 107.945C194.656 106.758 195.93 105.836 197.461 105.18C198.992 104.508 200.773 104.172 202.805 104.172C204.602 104.172 206.211 104.461 207.633 105.039C209.055 105.617 210.258 106.445 211.242 107.523C212.242 108.602 213 109.906 213.516 111.438C214.047 112.969 214.312 114.688 214.312 116.594V119.805H193.594V114.859H206.602V114.25C206.617 113.406 206.469 112.688 206.156 112.094C205.859 111.5 205.422 111.047 204.844 110.734C204.266 110.422 203.562 110.266 202.734 110.266C201.875 110.266 201.164 110.453 200.602 110.828C200.055 111.203 199.625 111.719 199.312 112.375C199.016 113.016 198.805 113.758 198.68 114.602C198.555 115.445 198.492 116.336 198.492 117.273V118.164C198.492 119.102 198.617 119.953 198.867 120.719C199.133 121.484 199.508 122.141 199.992 122.688C200.492 123.219 201.086 123.633 201.773 123.93C202.477 124.227 203.273 124.375 204.164 124.375C205.242 124.375 206.305 124.172 207.352 123.766C208.398 123.359 209.297 122.688 210.047 121.75L213.633 126.016C213.117 126.75 212.383 127.461 211.43 128.148C210.492 128.836 209.367 129.398 208.055 129.836C206.742 130.258 205.273 130.469 203.648 130.469ZM225.492 110.008V130H217.594V104.641H225L225.492 110.008ZM224.531 116.453L222.727 116.5C222.727 114.719 222.938 113.078 223.359 111.578C223.781 110.078 224.406 108.773 225.234 107.664C226.062 106.555 227.078 105.695 228.281 105.086C229.5 104.477 230.906 104.172 232.5 104.172C233.609 104.172 234.617 104.344 235.523 104.688C236.43 105.016 237.211 105.539 237.867 106.258C238.523 106.961 239.023 107.883 239.367 109.023C239.727 110.148 239.906 111.5 239.906 113.078V130H232.008V114.086C232.008 113.008 231.883 112.195 231.633 111.648C231.398 111.102 231.055 110.734 230.602 110.547C230.148 110.359 229.594 110.266 228.938 110.266C228.25 110.266 227.633 110.422 227.086 110.734C226.539 111.047 226.07 111.484 225.68 112.047C225.305 112.594 225.016 113.242 224.812 113.992C224.625 114.742 224.531 115.562 224.531 116.453ZM239.016 116.453L236.812 116.5C236.812 114.719 237.008 113.078 237.398 111.578C237.805 110.078 238.406 108.773 239.203 107.664C240.016 106.555 241.023 105.695 242.227 105.086C243.43 104.477 244.828 104.172 246.422 104.172C247.578 104.172 248.641 104.344 249.609 104.688C250.578 105.031 251.414 105.586 252.117 106.352C252.82 107.117 253.367 108.133 253.758 109.398C254.148 110.648 254.344 112.195 254.344 114.039V130H246.422V114.039C246.422 112.992 246.297 112.203 246.047 111.672C245.812 111.125 245.469 110.758 245.016 110.57C244.562 110.367 244.023 110.266 243.398 110.266C242.648 110.266 242 110.422 241.453 110.734C240.906 111.047 240.445 111.484 240.07 112.047C239.711 112.594 239.445 113.242 239.273 113.992C239.102 114.742 239.016 115.562 239.016 116.453ZM271.148 130.469C269.086 130.469 267.242 130.148 265.617 129.508C263.992 128.852 262.617 127.953 261.492 126.812C260.383 125.672 259.531 124.359 258.938 122.875C258.359 121.391 258.07 119.82 258.07 118.164V117.273C258.07 115.414 258.328 113.695 258.844 112.117C259.359 110.523 260.125 109.133 261.141 107.945C262.156 106.758 263.43 105.836 264.961 105.18C266.492 104.508 268.273 104.172 270.305 104.172C272.102 104.172 273.711 104.461 275.133 105.039C276.555 105.617 277.758 106.445 278.742 107.523C279.742 108.602 280.5 109.906 281.016 111.438C281.547 112.969 281.812 114.688 281.812 116.594V119.805H261.094V114.859H274.102V114.25C274.117 113.406 273.969 112.688 273.656 112.094C273.359 111.5 272.922 111.047 272.344 110.734C271.766 110.422 271.062 110.266 270.234 110.266C269.375 110.266 268.664 110.453 268.102 110.828C267.555 111.203 267.125 111.719 266.812 112.375C266.516 113.016 266.305 113.758 266.18 114.602C266.055 115.445 265.992 116.336 265.992 117.273V118.164C265.992 119.102 266.117 119.953 266.367 120.719C266.633 121.484 267.008 122.141 267.492 122.688C267.992 123.219 268.586 123.633 269.273 123.93C269.977 124.227 270.773 124.375 271.664 124.375C272.742 124.375 273.805 124.172 274.852 123.766C275.898 123.359 276.797 122.688 277.547 121.75L281.133 126.016C280.617 126.75 279.883 127.461 278.93 128.148C277.992 128.836 276.867 129.398 275.555 129.836C274.242 130.258 272.773 130.469 271.148 130.469ZM292.781 110.055V130H284.883V104.641H292.289L292.781 110.055ZM291.844 116.453L289.992 116.5C289.992 114.562 290.227 112.836 290.695 111.32C291.164 109.789 291.828 108.492 292.688 107.43C293.547 106.367 294.57 105.562 295.758 105.016C296.961 104.453 298.297 104.172 299.766 104.172C300.938 104.172 302.008 104.344 302.977 104.688C303.961 105.031 304.805 105.586 305.508 106.352C306.227 107.117 306.773 108.133 307.148 109.398C307.539 110.648 307.734 112.195 307.734 114.039V130H299.789V114.016C299.789 113 299.648 112.227 299.367 111.695C299.086 111.148 298.68 110.773 298.148 110.57C297.617 110.367 296.969 110.266 296.203 110.266C295.391 110.266 294.703 110.422 294.141 110.734C293.578 111.047 293.125 111.484 292.781 112.047C292.453 112.594 292.211 113.242 292.055 113.992C291.914 114.742 291.844 115.562 291.844 116.453ZM325.477 104.641V110.125H310.195V104.641H325.477ZM313.406 98.3359H321.305V121.727C321.305 122.398 321.383 122.922 321.539 123.297C321.695 123.656 321.961 123.914 322.336 124.07C322.727 124.211 323.242 124.281 323.883 124.281C324.336 124.281 324.711 124.273 325.008 124.258C325.305 124.227 325.586 124.188 325.852 124.141V129.789C325.18 130.008 324.477 130.172 323.742 130.281C323.008 130.406 322.227 130.469 321.398 130.469C319.711 130.469 318.266 130.203 317.062 129.672C315.875 129.141 314.969 128.305 314.344 127.164C313.719 126.023 313.406 124.539 313.406 122.711V98.3359ZM341.789 123.625V113.172C341.789 112.453 341.688 111.836 341.484 111.32C341.281 110.805 340.961 110.406 340.523 110.125C340.086 109.828 339.5 109.68 338.766 109.68C338.172 109.68 337.664 109.781 337.242 109.984C336.82 110.188 336.5 110.492 336.281 110.898C336.062 111.305 335.953 111.82 335.953 112.445H328.055C328.055 111.273 328.312 110.188 328.828 109.188C329.359 108.172 330.109 107.289 331.078 106.539C332.062 105.789 333.234 105.211 334.594 104.805C335.969 104.383 337.5 104.172 339.188 104.172C341.203 104.172 343 104.508 344.578 105.18C346.172 105.852 347.43 106.859 348.352 108.203C349.273 109.531 349.734 111.203 349.734 113.219V123.602C349.734 125.258 349.828 126.516 350.016 127.375C350.203 128.219 350.469 128.961 350.812 129.602V130H342.891C342.516 129.219 342.234 128.266 342.047 127.141C341.875 126 341.789 124.828 341.789 123.625ZM342.75 114.508L342.797 118.727H339.305C338.57 118.727 337.945 118.828 337.43 119.031C336.93 119.234 336.523 119.516 336.211 119.875C335.914 120.219 335.695 120.609 335.555 121.047C335.43 121.484 335.367 121.945 335.367 122.43C335.367 122.898 335.477 123.32 335.695 123.695C335.93 124.055 336.242 124.336 336.633 124.539C337.023 124.742 337.461 124.844 337.945 124.844C338.82 124.844 339.562 124.68 340.172 124.352C340.797 124.008 341.273 123.594 341.602 123.109C341.93 122.625 342.094 122.172 342.094 121.75L343.828 124.984C343.516 125.609 343.156 126.242 342.75 126.883C342.359 127.523 341.867 128.117 341.273 128.664C340.695 129.195 339.984 129.633 339.141 129.977C338.297 130.305 337.273 130.469 336.07 130.469C334.508 130.469 333.07 130.148 331.758 129.508C330.461 128.867 329.422 127.977 328.641 126.836C327.859 125.68 327.469 124.352 327.469 122.852C327.469 121.539 327.703 120.367 328.172 119.336C328.656 118.305 329.383 117.43 330.352 116.711C331.32 115.992 332.555 115.445 334.055 115.07C335.555 114.695 337.32 114.508 339.352 114.508H342.75ZM367.477 104.641V110.125H352.195V104.641H367.477ZM355.406 98.3359H363.305V121.727C363.305 122.398 363.383 122.922 363.539 123.297C363.695 123.656 363.961 123.914 364.336 124.07C364.727 124.211 365.242 124.281 365.883 124.281C366.336 124.281 366.711 124.273 367.008 124.258C367.305 124.227 367.586 124.188 367.852 124.141V129.789C367.18 130.008 366.477 130.172 365.742 130.281C365.008 130.406 364.227 130.469 363.398 130.469C361.711 130.469 360.266 130.203 359.062 129.672C357.875 129.141 356.969 128.305 356.344 127.164C355.719 126.023 355.406 124.539 355.406 122.711V98.3359ZM378.961 104.641V130H371.039V104.641H378.961ZM370.57 98.1016C370.57 96.9766 370.977 96.0547 371.789 95.3359C372.602 94.6172 373.656 94.2578 374.953 94.2578C376.25 94.2578 377.305 94.6172 378.117 95.3359C378.93 96.0547 379.336 96.9766 379.336 98.1016C379.336 99.2266 378.93 100.148 378.117 100.867C377.305 101.586 376.25 101.945 374.953 101.945C373.656 101.945 372.602 101.586 371.789 100.867C370.977 100.148 370.57 99.2266 370.57 98.1016ZM382.852 117.578V117.086C382.852 115.227 383.117 113.516 383.648 111.953C384.18 110.375 384.961 109.008 385.992 107.852C387.023 106.695 388.297 105.797 389.812 105.156C391.328 104.5 393.078 104.172 395.062 104.172C397.062 104.172 398.82 104.5 400.336 105.156C401.867 105.797 403.148 106.695 404.18 107.852C405.211 109.008 405.992 110.375 406.523 111.953C407.055 113.516 407.32 115.227 407.32 117.086V117.578C407.32 119.422 407.055 121.133 406.523 122.711C405.992 124.273 405.211 125.641 404.18 126.812C403.148 127.969 401.875 128.867 400.359 129.508C398.844 130.148 397.094 130.469 395.109 130.469C393.125 130.469 391.367 130.148 389.836 129.508C388.305 128.867 387.023 127.969 385.992 126.812C384.961 125.641 384.18 124.273 383.648 122.711C383.117 121.133 382.852 119.422 382.852 117.578ZM390.75 117.086V117.578C390.75 118.531 390.82 119.422 390.961 120.25C391.102 121.078 391.336 121.805 391.664 122.43C391.992 123.039 392.438 123.516 393 123.859C393.562 124.203 394.266 124.375 395.109 124.375C395.938 124.375 396.625 124.203 397.172 123.859C397.734 123.516 398.18 123.039 398.508 122.43C398.836 121.805 399.07 121.078 399.211 120.25C399.352 119.422 399.422 118.531 399.422 117.578V117.086C399.422 116.164 399.352 115.297 399.211 114.484C399.07 113.656 398.836 112.93 398.508 112.305C398.18 111.664 397.734 111.164 397.172 110.805C396.609 110.445 395.906 110.266 395.062 110.266C394.234 110.266 393.539 110.445 392.977 110.805C392.43 111.164 391.992 111.664 391.664 112.305C391.336 112.93 391.102 113.656 390.961 114.484C390.82 115.297 390.75 116.164 390.75 117.086ZM418.594 110.055V130H410.695V104.641H418.102L418.594 110.055ZM417.656 116.453L415.805 116.5C415.805 114.562 416.039 112.836 416.508 111.32C416.977 109.789 417.641 108.492 418.5 107.43C419.359 106.367 420.383 105.562 421.57 105.016C422.773 104.453 424.109 104.172 425.578 104.172C426.75 104.172 427.82 104.344 428.789 104.688C429.773 105.031 430.617 105.586 431.32 106.352C432.039 107.117 432.586 108.133 432.961 109.398C433.352 110.648 433.547 112.195 433.547 114.039V130H425.602V114.016C425.602 113 425.461 112.227 425.18 111.695C424.898 111.148 424.492 110.773 423.961 110.57C423.43 110.367 422.781 110.266 422.016 110.266C421.203 110.266 420.516 110.422 419.953 110.734C419.391 111.047 418.938 111.484 418.594 112.047C418.266 112.594 418.023 113.242 417.867 113.992C417.727 114.742 417.656 115.562 417.656 116.453Z" fill="black"/>
<path d="M1134 0H1348C1356.28 0 1363 6.71573 1363 15V159C1363 167.284 1356.28 174 1348 174H1134V0Z" fill="#A6F0DD"/>
<path d="M1280.07 53H1216.93L1214.5 55.4286V118.571L1216.93 121H1280.07L1282.5 118.571V55.4286L1280.07 53ZM1277.64 116.143H1233.93V106.429H1245.1C1246.56 109.343 1249.96 111.286 1253.36 111.286C1258.7 111.286 1263.07 106.914 1263.07 101.571C1263.07 96.2286 1258.7 91.8571 1253.36 91.8571C1248.01 91.8571 1243.64 96.2286 1243.64 101.571H1229.07V116.143H1219.36V57.8571H1229.07V69.0286C1226.16 70.4857 1224.21 73.8857 1224.21 77.2857C1224.21 82.6286 1228.59 87 1233.93 87C1239.27 87 1243.64 82.6286 1243.64 77.2857H1253.36C1253.36 82.6286 1257.73 87 1263.07 87C1268.41 87 1272.79 82.6286 1272.79 77.2857C1272.79 71.9429 1268.41 67.5714 1263.07 67.5714C1259.67 67.5714 1256.27 69.5143 1254.81 72.4286H1242.19C1240.73 69.5143 1237.33 67.5714 1233.93 67.5714V57.8571H1277.64V116.143ZM1248.5 101.571C1248.5 98.6571 1250.44 96.7143 1253.36 96.7143C1256.27 96.7143 1258.21 98.6571 1258.21 101.571C1258.21 104.486 1256.27 106.429 1253.36 106.429C1250.44 106.429 1248.5 104.486 1248.5 101.571ZM1233.93 72.4286C1236.84 72.4286 1238.79 74.3714 1238.79 77.2857C1238.79 80.2 1236.84 82.1429 1233.93 82.1429C1231.01 82.1429 1229.07 80.2 1229.07 77.2857C1229.07 74.3714 1231.01 72.4286 1233.93 72.4286ZM1263.07 72.4286C1265.99 72.4286 1267.93 74.3714 1267.93 77.2857C1267.93 80.2 1265.99 82.1429 1263.07 82.1429C1260.16 82.1429 1258.21 80.2 1258.21 77.2857C1258.21 74.3714 1260.16 72.4286 1263.07 72.4286Z" fill="white"/>
</svg>
