<svg width="1363" height="163" viewBox="0 0 1363 163" fill="none" xmlns="http://www.w3.org/2000/svg">
<path d="M0 15C0 6.71573 6.71573 0 15 0H37V163H15C6.71573 163 0 156.284 0 148V15Z" fill="#424242"/>
<rect width="1097" height="163" transform="translate(37)" fill="#F0F0F0"/>
<path d="M101.906 53.9219L94.3945 51.2383V48.0859L104.602 52.375V54.6367L101.906 53.9219ZM94.3945 56.1719L101.918 53.4297L104.602 52.7852V55.0352L94.3945 59.3242V56.1719ZM124.348 58.2578V61H115.266V58.2578H124.348ZM116.414 43.9375V61H112.898V43.9375H116.414ZM123.164 50.8867V53.5586H115.266V50.8867H123.164ZM124.336 43.9375V46.6914H115.266V43.9375H124.336ZM133.441 58.2344V43H136.84V61H133.781L133.441 58.2344ZM125.426 54.8125V54.5664C125.426 53.5977 125.535 52.7188 125.754 51.9297C125.973 51.1328 126.293 50.4492 126.715 49.8789C127.137 49.3086 127.656 48.8672 128.273 48.5547C128.891 48.2422 129.594 48.0859 130.383 48.0859C131.125 48.0859 131.773 48.2422 132.328 48.5547C132.891 48.8672 133.367 49.3125 133.758 49.8906C134.156 50.4609 134.477 51.1367 134.719 51.918C134.961 52.6914 135.137 53.5391 135.246 54.4609V55C135.137 55.8828 134.961 56.7031 134.719 57.4609C134.477 58.2188 134.156 58.8828 133.758 59.4531C133.367 60.0156 132.891 60.4531 132.328 60.7656C131.766 61.0781 131.109 61.2344 130.359 61.2344C129.57 61.2344 128.867 61.0742 128.25 60.7539C127.641 60.4336 127.125 59.9844 126.703 59.4062C126.289 58.8281 125.973 58.1484 125.754 57.3672C125.535 56.5859 125.426 55.7344 125.426 54.8125ZM128.801 54.5664V54.8125C128.801 55.3359 128.84 55.8242 128.918 56.2773C129.004 56.7305 129.141 57.1328 129.328 57.4844C129.523 57.8281 129.773 58.0977 130.078 58.293C130.391 58.4805 130.77 58.5742 131.215 58.5742C131.793 58.5742 132.27 58.4453 132.645 58.1875C133.02 57.9219 133.305 57.5586 133.5 57.0977C133.703 56.6367 133.82 56.1055 133.852 55.5039V53.9688C133.828 53.4766 133.758 53.0352 133.641 52.6445C133.531 52.2461 133.367 51.9062 133.148 51.625C132.938 51.3438 132.672 51.125 132.352 50.9688C132.039 50.8125 131.668 50.7344 131.238 50.7344C130.801 50.7344 130.426 50.8359 130.113 51.0391C129.801 51.2344 129.547 51.5039 129.352 51.8477C129.164 52.1914 129.023 52.5977 128.93 53.0664C128.844 53.5273 128.801 54.0273 128.801 54.5664ZM146.977 57.9648V48.3203H150.352V61H147.176L146.977 57.9648ZM147.352 55.3633L148.348 55.3398C148.348 56.1836 148.25 56.9688 148.055 57.6953C147.859 58.4141 147.566 59.0391 147.176 59.5703C146.785 60.0938 146.293 60.5039 145.699 60.8008C145.105 61.0898 144.406 61.2344 143.602 61.2344C142.984 61.2344 142.414 61.1484 141.891 60.9766C141.375 60.7969 140.93 60.5195 140.555 60.1445C140.188 59.7617 139.898 59.2734 139.688 58.6797C139.484 58.0781 139.383 57.3555 139.383 56.5117V48.3203H142.758V56.5352C142.758 56.9102 142.801 57.2266 142.887 57.4844C142.98 57.7422 143.109 57.9531 143.273 58.1172C143.438 58.2812 143.629 58.3984 143.848 58.4688C144.074 58.5391 144.324 58.5742 144.598 58.5742C145.293 58.5742 145.84 58.4336 146.238 58.1523C146.645 57.8711 146.93 57.4883 147.094 57.0039C147.266 56.5117 147.352 55.9648 147.352 55.3633ZM154.746 43.9375H157.723L162.105 56.4648L166.488 43.9375H169.465L163.301 61H160.91L154.746 43.9375ZM153.141 43.9375H156.105L156.645 56.1484V61H153.141V43.9375ZM168.105 43.9375H171.082V61H167.566V56.1484L168.105 43.9375ZM177.516 48.3203V61H174.129V48.3203H177.516ZM173.918 45.0156C173.918 44.5234 174.09 44.1172 174.434 43.7969C174.777 43.4766 175.238 43.3164 175.816 43.3164C176.387 43.3164 176.844 43.4766 177.188 43.7969C177.539 44.1172 177.715 44.5234 177.715 45.0156C177.715 45.5078 177.539 45.9141 177.188 46.2344C176.844 46.5547 176.387 46.7148 175.816 46.7148C175.238 46.7148 174.777 46.5547 174.434 46.2344C174.09 45.9141 173.918 45.5078 173.918 45.0156ZM183.609 51.0273V61H180.234V48.3203H183.398L183.609 51.0273ZM183.117 54.2148H182.203C182.203 53.2773 182.324 52.4336 182.566 51.6836C182.809 50.9258 183.148 50.2812 183.586 49.75C184.023 49.2109 184.543 48.8008 185.145 48.5195C185.754 48.2305 186.434 48.0859 187.184 48.0859C187.777 48.0859 188.32 48.1719 188.812 48.3438C189.305 48.5156 189.727 48.7891 190.078 49.1641C190.438 49.5391 190.711 50.0352 190.898 50.6523C191.094 51.2695 191.191 52.0234 191.191 52.9141V61H187.793V52.9023C187.793 52.3398 187.715 51.9023 187.559 51.5898C187.402 51.2773 187.172 51.0586 186.867 50.9336C186.57 50.8008 186.203 50.7344 185.766 50.7344C185.312 50.7344 184.918 50.8242 184.582 51.0039C184.254 51.1836 183.98 51.4336 183.762 51.7539C183.551 52.0664 183.391 52.4336 183.281 52.8555C183.172 53.2773 183.117 53.7305 183.117 54.2148ZM201.246 58.2344V43H204.645V61H201.586L201.246 58.2344ZM193.23 54.8125V54.5664C193.23 53.5977 193.34 52.7188 193.559 51.9297C193.777 51.1328 194.098 50.4492 194.52 49.8789C194.941 49.3086 195.461 48.8672 196.078 48.5547C196.695 48.2422 197.398 48.0859 198.188 48.0859C198.93 48.0859 199.578 48.2422 200.133 48.5547C200.695 48.8672 201.172 49.3125 201.562 49.8906C201.961 50.4609 202.281 51.1367 202.523 51.918C202.766 52.6914 202.941 53.5391 203.051 54.4609V55C202.941 55.8828 202.766 56.7031 202.523 57.4609C202.281 58.2188 201.961 58.8828 201.562 59.4531C201.172 60.0156 200.695 60.4531 200.133 60.7656C199.57 61.0781 198.914 61.2344 198.164 61.2344C197.375 61.2344 196.672 61.0742 196.055 60.7539C195.445 60.4336 194.93 59.9844 194.508 59.4062C194.094 58.8281 193.777 58.1484 193.559 57.3672C193.34 56.5859 193.23 55.7344 193.23 54.8125ZM196.605 54.5664V54.8125C196.605 55.3359 196.645 55.8242 196.723 56.2773C196.809 56.7305 196.945 57.1328 197.133 57.4844C197.328 57.8281 197.578 58.0977 197.883 58.293C198.195 58.4805 198.574 58.5742 199.02 58.5742C199.598 58.5742 200.074 58.4453 200.449 58.1875C200.824 57.9219 201.109 57.5586 201.305 57.0977C201.508 56.6367 201.625 56.1055 201.656 55.5039V53.9688C201.633 53.4766 201.562 53.0352 201.445 52.6445C201.336 52.2461 201.172 51.9062 200.953 51.625C200.742 51.3438 200.477 51.125 200.156 50.9688C199.844 50.8125 199.473 50.7344 199.043 50.7344C198.605 50.7344 198.23 50.8359 197.918 51.0391C197.605 51.2344 197.352 51.5039 197.156 51.8477C196.969 52.1914 196.828 52.5977 196.734 53.0664C196.648 53.5273 196.605 54.0273 196.605 54.5664Z" fill="#888888"/>
<path d="M106.688 119H99.1172L99.1641 112.672H106.688C108.25 112.672 109.57 112.297 110.648 111.547C111.742 110.797 112.57 109.68 113.133 108.195C113.711 106.695 114 104.852 114 102.664V101.188C114 99.5469 113.836 98.1094 113.508 96.875C113.195 95.625 112.727 94.5859 112.102 93.7578C111.477 92.9141 110.695 92.2812 109.758 91.8594C108.836 91.4375 107.773 91.2266 106.57 91.2266H98.9766V84.875H106.57C108.883 84.875 111 85.2734 112.922 86.0703C114.859 86.8516 116.531 87.9766 117.938 89.4453C119.359 90.8984 120.453 92.625 121.219 94.625C122 96.6094 122.391 98.8125 122.391 101.234V102.664C122.391 105.07 122 107.273 121.219 109.273C120.453 111.273 119.367 113 117.961 114.453C116.555 115.906 114.891 117.031 112.969 117.828C111.062 118.609 108.969 119 106.688 119ZM103.828 84.875V119H95.6016V84.875H103.828ZM138.586 119.469C136.523 119.469 134.68 119.148 133.055 118.508C131.43 117.852 130.055 116.953 128.93 115.812C127.82 114.672 126.969 113.359 126.375 111.875C125.797 110.391 125.508 108.82 125.508 107.164V106.273C125.508 104.414 125.766 102.695 126.281 101.117C126.797 99.5234 127.562 98.1328 128.578 96.9453C129.594 95.7578 130.867 94.8359 132.398 94.1797C133.93 93.5078 135.711 93.1719 137.742 93.1719C139.539 93.1719 141.148 93.4609 142.57 94.0391C143.992 94.6172 145.195 95.4453 146.18 96.5234C147.18 97.6016 147.938 98.9062 148.453 100.438C148.984 101.969 149.25 103.688 149.25 105.594V108.805H128.531V103.859H141.539V103.25C141.555 102.406 141.406 101.688 141.094 101.094C140.797 100.5 140.359 100.047 139.781 99.7344C139.203 99.4219 138.5 99.2656 137.672 99.2656C136.812 99.2656 136.102 99.4531 135.539 99.8281C134.992 100.203 134.562 100.719 134.25 101.375C133.953 102.016 133.742 102.758 133.617 103.602C133.492 104.445 133.43 105.336 133.43 106.273V107.164C133.43 108.102 133.555 108.953 133.805 109.719C134.07 110.484 134.445 111.141 134.93 111.688C135.43 112.219 136.023 112.633 136.711 112.93C137.414 113.227 138.211 113.375 139.102 113.375C140.18 113.375 141.242 113.172 142.289 112.766C143.336 112.359 144.234 111.688 144.984 110.75L148.57 115.016C148.055 115.75 147.32 116.461 146.367 117.148C145.43 117.836 144.305 118.398 142.992 118.836C141.68 119.258 140.211 119.469 138.586 119.469ZM160.43 98.5156V128.75H152.531V93.6406H159.891L160.43 98.5156ZM175.992 106.016V106.508C175.992 108.352 175.781 110.062 175.359 111.641C174.938 113.219 174.312 114.594 173.484 115.766C172.656 116.938 171.625 117.852 170.391 118.508C169.172 119.148 167.758 119.469 166.148 119.469C164.633 119.469 163.328 119.133 162.234 118.461C161.141 117.789 160.227 116.859 159.492 115.672C158.758 114.484 158.164 113.125 157.711 111.594C157.258 110.062 156.898 108.445 156.633 106.742V106.109C156.898 104.281 157.258 102.586 157.711 101.023C158.164 99.4453 158.758 98.0703 159.492 96.8984C160.227 95.7266 161.133 94.8125 162.211 94.1562C163.305 93.5 164.609 93.1719 166.125 93.1719C167.734 93.1719 169.148 93.4766 170.367 94.0859C171.602 94.6953 172.633 95.5703 173.461 96.7109C174.305 97.8359 174.938 99.1875 175.359 100.766C175.781 102.344 175.992 104.094 175.992 106.016ZM168.094 106.508V106.016C168.094 105.031 168.023 104.133 167.883 103.32C167.742 102.492 167.516 101.773 167.203 101.164C166.906 100.555 166.508 100.086 166.008 99.7578C165.508 99.4297 164.891 99.2656 164.156 99.2656C163.312 99.2656 162.602 99.3984 162.023 99.6641C161.461 99.9141 161.008 100.305 160.664 100.836C160.336 101.352 160.102 102 159.961 102.781C159.836 103.547 159.781 104.445 159.797 105.477V107.398C159.766 108.586 159.883 109.633 160.148 110.539C160.414 111.43 160.875 112.125 161.531 112.625C162.188 113.125 163.078 113.375 164.203 113.375C164.953 113.375 165.578 113.203 166.078 112.859C166.578 112.5 166.977 112.008 167.273 111.383C167.57 110.742 167.781 110.008 167.906 109.18C168.031 108.352 168.094 107.461 168.094 106.508ZM187.852 83V119H179.93V83H187.852ZM191.742 106.578V106.086C191.742 104.227 192.008 102.516 192.539 100.953C193.07 99.375 193.852 98.0078 194.883 96.8516C195.914 95.6953 197.188 94.7969 198.703 94.1562C200.219 93.5 201.969 93.1719 203.953 93.1719C205.953 93.1719 207.711 93.5 209.227 94.1562C210.758 94.7969 212.039 95.6953 213.07 96.8516C214.102 98.0078 214.883 99.375 215.414 100.953C215.945 102.516 216.211 104.227 216.211 106.086V106.578C216.211 108.422 215.945 110.133 215.414 111.711C214.883 113.273 214.102 114.641 213.07 115.812C212.039 116.969 210.766 117.867 209.25 118.508C207.734 119.148 205.984 119.469 204 119.469C202.016 119.469 200.258 119.148 198.727 118.508C197.195 117.867 195.914 116.969 194.883 115.812C193.852 114.641 193.07 113.273 192.539 111.711C192.008 110.133 191.742 108.422 191.742 106.578ZM199.641 106.086V106.578C199.641 107.531 199.711 108.422 199.852 109.25C199.992 110.078 200.227 110.805 200.555 111.43C200.883 112.039 201.328 112.516 201.891 112.859C202.453 113.203 203.156 113.375 204 113.375C204.828 113.375 205.516 113.203 206.062 112.859C206.625 112.516 207.07 112.039 207.398 111.43C207.727 110.805 207.961 110.078 208.102 109.25C208.242 108.422 208.312 107.531 208.312 106.578V106.086C208.312 105.164 208.242 104.297 208.102 103.484C207.961 102.656 207.727 101.93 207.398 101.305C207.07 100.664 206.625 100.164 206.062 99.8047C205.5 99.4453 204.797 99.2656 203.953 99.2656C203.125 99.2656 202.43 99.4453 201.867 99.8047C201.32 100.164 200.883 100.664 200.555 101.305C200.227 101.93 199.992 102.656 199.852 103.484C199.711 104.297 199.641 105.164 199.641 106.086ZM227.133 116.023L233.695 93.6406H242.18L231.984 122.773C231.766 123.414 231.477 124.102 231.117 124.836C230.758 125.586 230.266 126.297 229.641 126.969C229.016 127.641 228.211 128.188 227.227 128.609C226.258 129.031 225.055 129.242 223.617 129.242C222.852 129.242 222.289 129.203 221.93 129.125C221.586 129.062 221.055 128.945 220.336 128.773V123.125C220.539 123.125 220.711 123.125 220.852 123.125C221.008 123.125 221.18 123.125 221.367 123.125C222.211 123.125 222.883 123.039 223.383 122.867C223.898 122.695 224.289 122.445 224.555 122.117C224.836 121.789 225.055 121.391 225.211 120.922L227.133 116.023ZM225.469 93.6406L230.461 111.383L231.328 119.75H226.031L217.008 93.6406H225.469ZM252.211 99.0078V119H244.312V93.6406H251.719L252.211 99.0078ZM251.25 105.453L249.445 105.5C249.445 103.719 249.656 102.078 250.078 100.578C250.5 99.0781 251.125 97.7734 251.953 96.6641C252.781 95.5547 253.797 94.6953 255 94.0859C256.219 93.4766 257.625 93.1719 259.219 93.1719C260.328 93.1719 261.336 93.3438 262.242 93.6875C263.148 94.0156 263.93 94.5391 264.586 95.2578C265.242 95.9609 265.742 96.8828 266.086 98.0234C266.445 99.1484 266.625 100.5 266.625 102.078V119H258.727V103.086C258.727 102.008 258.602 101.195 258.352 100.648C258.117 100.102 257.773 99.7344 257.32 99.5469C256.867 99.3594 256.312 99.2656 255.656 99.2656C254.969 99.2656 254.352 99.4219 253.805 99.7344C253.258 100.047 252.789 100.484 252.398 101.047C252.023 101.594 251.734 102.242 251.531 102.992C251.344 103.742 251.25 104.562 251.25 105.453ZM265.734 105.453L263.531 105.5C263.531 103.719 263.727 102.078 264.117 100.578C264.523 99.0781 265.125 97.7734 265.922 96.6641C266.734 95.5547 267.742 94.6953 268.945 94.0859C270.148 93.4766 271.547 93.1719 273.141 93.1719C274.297 93.1719 275.359 93.3438 276.328 93.6875C277.297 94.0312 278.133 94.5859 278.836 95.3516C279.539 96.1172 280.086 97.1328 280.477 98.3984C280.867 99.6484 281.062 101.195 281.062 103.039V119H273.141V103.039C273.141 101.992 273.016 101.203 272.766 100.672C272.531 100.125 272.188 99.7578 271.734 99.5703C271.281 99.3672 270.742 99.2656 270.117 99.2656C269.367 99.2656 268.719 99.4219 268.172 99.7344C267.625 100.047 267.164 100.484 266.789 101.047C266.43 101.594 266.164 102.242 265.992 102.992C265.82 103.742 265.734 104.562 265.734 105.453ZM297.867 119.469C295.805 119.469 293.961 119.148 292.336 118.508C290.711 117.852 289.336 116.953 288.211 115.812C287.102 114.672 286.25 113.359 285.656 111.875C285.078 110.391 284.789 108.82 284.789 107.164V106.273C284.789 104.414 285.047 102.695 285.562 101.117C286.078 99.5234 286.844 98.1328 287.859 96.9453C288.875 95.7578 290.148 94.8359 291.68 94.1797C293.211 93.5078 294.992 93.1719 297.023 93.1719C298.82 93.1719 300.43 93.4609 301.852 94.0391C303.273 94.6172 304.477 95.4453 305.461 96.5234C306.461 97.6016 307.219 98.9062 307.734 100.438C308.266 101.969 308.531 103.688 308.531 105.594V108.805H287.812V103.859H300.82V103.25C300.836 102.406 300.688 101.688 300.375 101.094C300.078 100.5 299.641 100.047 299.062 99.7344C298.484 99.4219 297.781 99.2656 296.953 99.2656C296.094 99.2656 295.383 99.4531 294.82 99.8281C294.273 100.203 293.844 100.719 293.531 101.375C293.234 102.016 293.023 102.758 292.898 103.602C292.773 104.445 292.711 105.336 292.711 106.273V107.164C292.711 108.102 292.836 108.953 293.086 109.719C293.352 110.484 293.727 111.141 294.211 111.688C294.711 112.219 295.305 112.633 295.992 112.93C296.695 113.227 297.492 113.375 298.383 113.375C299.461 113.375 300.523 113.172 301.57 112.766C302.617 112.359 303.516 111.688 304.266 110.75L307.852 115.016C307.336 115.75 306.602 116.461 305.648 117.148C304.711 117.836 303.586 118.398 302.273 118.836C300.961 119.258 299.492 119.469 297.867 119.469ZM319.5 99.0547V119H311.602V93.6406H319.008L319.5 99.0547ZM318.562 105.453L316.711 105.5C316.711 103.562 316.945 101.836 317.414 100.32C317.883 98.7891 318.547 97.4922 319.406 96.4297C320.266 95.3672 321.289 94.5625 322.477 94.0156C323.68 93.4531 325.016 93.1719 326.484 93.1719C327.656 93.1719 328.727 93.3438 329.695 93.6875C330.68 94.0312 331.523 94.5859 332.227 95.3516C332.945 96.1172 333.492 97.1328 333.867 98.3984C334.258 99.6484 334.453 101.195 334.453 103.039V119H326.508V103.016C326.508 102 326.367 101.227 326.086 100.695C325.805 100.148 325.398 99.7734 324.867 99.5703C324.336 99.3672 323.688 99.2656 322.922 99.2656C322.109 99.2656 321.422 99.4219 320.859 99.7344C320.297 100.047 319.844 100.484 319.5 101.047C319.172 101.594 318.93 102.242 318.773 102.992C318.633 103.742 318.562 104.562 318.562 105.453ZM352.195 93.6406V99.125H336.914V93.6406H352.195ZM340.125 87.3359H348.023V110.727C348.023 111.398 348.102 111.922 348.258 112.297C348.414 112.656 348.68 112.914 349.055 113.07C349.445 113.211 349.961 113.281 350.602 113.281C351.055 113.281 351.43 113.273 351.727 113.258C352.023 113.227 352.305 113.188 352.57 113.141V118.789C351.898 119.008 351.195 119.172 350.461 119.281C349.727 119.406 348.945 119.469 348.117 119.469C346.43 119.469 344.984 119.203 343.781 118.672C342.594 118.141 341.688 117.305 341.062 116.164C340.438 115.023 340.125 113.539 340.125 111.711V87.3359Z" fill="black"/>
<path d="M1134 0H1348C1356.28 0 1363 6.71573 1363 15V148C1363 156.284 1356.28 163 1348 163H1134V0Z" fill="#C2ADCC"/>
<path d="M1212.5 117.5L1212.5 45.5L1284.5 45.5L1284.5 117.5L1212.5 117.5Z" fill="white" fill-opacity="0.01"/>
<path d="M1221.5 81.5125L1221.5 108.5L1275.5 108.5L1275.5 81.5" stroke="white" stroke-width="7.24" stroke-linecap="round" stroke-linejoin="round"/>
<path d="M1262 68L1248.5 54.5L1235 68" stroke="white" stroke-width="7.24" stroke-linecap="round" stroke-linejoin="round"/>
<path d="M1248.49 93.4999L1248.49 54.5" stroke="white" stroke-width="7.24" stroke-linecap="round" stroke-linejoin="round"/>
</svg>
