<svg width="1363" height="297" viewBox="0 0 1363 297" fill="none" xmlns="http://www.w3.org/2000/svg">
<path d="M0 15C0 6.71573 6.71573 0 15 0H37V297H15C6.71573 297 0 290.284 0 282V15Z" fill="#C2ADCC"/>
<path d="M37 0H1066V297H37V0Z" fill="#F0F0F0"/>
<path d="M97.6934 49.4062H102.158L108.732 68.1973L115.307 49.4062H119.771L110.525 75H106.939L97.6934 49.4062ZM95.2852 49.4062H99.7324L100.541 67.7227V75H95.2852V49.4062ZM117.732 49.4062H122.197V75H116.924V67.7227L117.732 49.4062ZM136.77 70.7109V62.2383C136.77 61.6289 136.67 61.1074 136.471 60.6738C136.271 60.2285 135.961 59.8828 135.539 59.6367C135.129 59.3906 134.596 59.2676 133.939 59.2676C133.377 59.2676 132.891 59.3672 132.48 59.5664C132.07 59.7539 131.754 60.0293 131.531 60.3926C131.309 60.7441 131.197 61.1602 131.197 61.6406H126.135C126.135 60.832 126.322 60.0645 126.697 59.3379C127.072 58.6113 127.617 57.9727 128.332 57.4219C129.047 56.8594 129.896 56.4199 130.881 56.1035C131.877 55.7871 132.99 55.6289 134.221 55.6289C135.697 55.6289 137.01 55.875 138.158 56.3672C139.307 56.8594 140.209 57.5977 140.865 58.582C141.533 59.5664 141.867 60.7969 141.867 62.2734V70.4121C141.867 71.4551 141.932 72.3105 142.061 72.9785C142.189 73.6348 142.377 74.209 142.623 74.7012V75H137.508C137.262 74.4844 137.074 73.8398 136.945 73.0664C136.828 72.2812 136.77 71.4961 136.77 70.7109ZM137.438 63.416L137.473 66.2812H134.643C133.975 66.2812 133.395 66.3574 132.902 66.5098C132.41 66.6621 132.006 66.8789 131.689 67.1602C131.373 67.4297 131.139 67.7461 130.986 68.1094C130.846 68.4727 130.775 68.8711 130.775 69.3047C130.775 69.7383 130.875 70.1309 131.074 70.4824C131.273 70.8223 131.561 71.0918 131.936 71.291C132.311 71.4785 132.75 71.5723 133.254 71.5723C134.016 71.5723 134.678 71.4199 135.24 71.1152C135.803 70.8105 136.236 70.4355 136.541 69.9902C136.857 69.5449 137.021 69.123 137.033 68.7246L138.369 70.8691C138.182 71.3496 137.924 71.8477 137.596 72.3633C137.279 72.8789 136.875 73.3652 136.383 73.8223C135.891 74.2676 135.299 74.6367 134.607 74.9297C133.916 75.2109 133.096 75.3516 132.146 75.3516C130.939 75.3516 129.844 75.1113 128.859 74.6309C127.887 74.1387 127.113 73.4648 126.539 72.6094C125.977 71.7422 125.695 70.7578 125.695 69.6562C125.695 68.6602 125.883 67.7754 126.258 67.002C126.633 66.2285 127.184 65.5781 127.91 65.0508C128.648 64.5117 129.568 64.1074 130.67 63.8379C131.771 63.5566 133.049 63.416 134.502 63.416H137.438ZM150.709 48V75H145.646V48H150.709ZM149.988 64.8223H148.6C148.611 63.498 148.787 62.2793 149.127 61.166C149.467 60.041 149.953 59.0684 150.586 58.248C151.219 57.416 151.975 56.7715 152.854 56.3145C153.744 55.8574 154.729 55.6289 155.807 55.6289C156.744 55.6289 157.594 55.7637 158.355 56.0332C159.129 56.291 159.791 56.7129 160.342 57.2988C160.904 57.873 161.338 58.6289 161.643 59.5664C161.947 60.5039 162.1 61.6406 162.1 62.9766V75H157.002V62.9414C157.002 62.0977 156.879 61.4355 156.633 60.9551C156.398 60.4629 156.053 60.1172 155.596 59.918C155.15 59.707 154.6 59.6016 153.943 59.6016C153.217 59.6016 152.596 59.7363 152.08 60.0059C151.576 60.2754 151.172 60.6504 150.867 61.1309C150.562 61.5996 150.34 62.1504 150.199 62.7832C150.059 63.416 149.988 64.0957 149.988 64.8223ZM171.012 59.918V75H165.932V55.9805H170.695L171.012 59.918ZM170.309 64.8223H168.902C168.902 63.498 169.061 62.2793 169.377 61.166C169.705 60.041 170.18 59.0684 170.801 58.248C171.434 57.416 172.213 56.7715 173.139 56.3145C174.064 55.8574 175.137 55.6289 176.355 55.6289C177.199 55.6289 177.973 55.7578 178.676 56.0156C179.379 56.2617 179.982 56.6543 180.486 57.1934C181.002 57.7207 181.4 58.4121 181.682 59.2676C181.963 60.1113 182.104 61.125 182.104 62.3086V75H177.041V62.8711C177.041 62.0039 176.924 61.3359 176.689 60.8672C176.455 60.3984 176.121 60.0703 175.688 59.8828C175.266 59.6953 174.756 59.6016 174.158 59.6016C173.502 59.6016 172.928 59.7363 172.436 60.0059C171.955 60.2754 171.557 60.6504 171.24 61.1309C170.924 61.5996 170.689 62.1504 170.537 62.7832C170.385 63.416 170.309 64.0957 170.309 64.8223ZM181.629 64.2422L179.818 64.4707C179.818 63.2285 179.971 62.0742 180.275 61.0078C180.592 59.9414 181.055 59.0039 181.664 58.1953C182.285 57.3867 183.053 56.7598 183.967 56.3145C184.881 55.8574 185.936 55.6289 187.131 55.6289C188.045 55.6289 188.877 55.7637 189.627 56.0332C190.377 56.291 191.016 56.707 191.543 57.2812C192.082 57.8438 192.492 58.582 192.773 59.4961C193.066 60.4102 193.213 61.5293 193.213 62.8535V75H188.133V62.8535C188.133 61.9746 188.016 61.3066 187.781 60.8496C187.559 60.3809 187.23 60.0586 186.797 59.8828C186.375 59.6953 185.871 59.6016 185.285 59.6016C184.676 59.6016 184.143 59.7246 183.686 59.9707C183.229 60.2051 182.848 60.5332 182.543 60.9551C182.238 61.377 182.01 61.8691 181.857 62.4316C181.705 62.9824 181.629 63.5859 181.629 64.2422ZM196.324 65.6836V65.3145C196.324 63.9199 196.523 62.6367 196.922 61.4648C197.32 60.2812 197.9 59.2559 198.662 58.3887C199.424 57.5215 200.361 56.8477 201.475 56.3672C202.588 55.875 203.865 55.6289 205.307 55.6289C206.748 55.6289 208.031 55.875 209.156 56.3672C210.281 56.8477 211.225 57.5215 211.986 58.3887C212.76 59.2559 213.346 60.2812 213.744 61.4648C214.143 62.6367 214.342 63.9199 214.342 65.3145V65.6836C214.342 67.0664 214.143 68.3496 213.744 69.5332C213.346 70.7051 212.76 71.7305 211.986 72.6094C211.225 73.4766 210.287 74.1504 209.174 74.6309C208.061 75.1113 206.783 75.3516 205.342 75.3516C203.9 75.3516 202.617 75.1113 201.492 74.6309C200.379 74.1504 199.436 73.4766 198.662 72.6094C197.9 71.7305 197.32 70.7051 196.922 69.5332C196.523 68.3496 196.324 67.0664 196.324 65.6836ZM201.387 65.3145V65.6836C201.387 66.4805 201.457 67.2246 201.598 67.916C201.738 68.6074 201.961 69.2168 202.266 69.7441C202.582 70.2598 202.992 70.6641 203.496 70.957C204 71.25 204.615 71.3965 205.342 71.3965C206.045 71.3965 206.648 71.25 207.152 70.957C207.656 70.6641 208.061 70.2598 208.365 69.7441C208.67 69.2168 208.893 68.6074 209.033 67.916C209.186 67.2246 209.262 66.4805 209.262 65.6836V65.3145C209.262 64.541 209.186 63.8145 209.033 63.1348C208.893 62.4434 208.664 61.834 208.348 61.3066C208.043 60.7676 207.639 60.3457 207.135 60.041C206.631 59.7363 206.021 59.584 205.307 59.584C204.592 59.584 203.982 59.7363 203.479 60.041C202.986 60.3457 202.582 60.7676 202.266 61.3066C201.961 61.834 201.738 62.4434 201.598 63.1348C201.457 63.8145 201.387 64.541 201.387 65.3145ZM228.703 70.4473V55.9805H233.766V75H229.002L228.703 70.4473ZM229.266 66.5449L230.76 66.5098C230.76 67.7754 230.613 68.9531 230.32 70.043C230.027 71.1211 229.588 72.0586 229.002 72.8555C228.416 73.6406 227.678 74.2559 226.787 74.7012C225.896 75.1348 224.848 75.3516 223.641 75.3516C222.715 75.3516 221.859 75.2227 221.074 74.9648C220.301 74.6953 219.633 74.2793 219.07 73.7168C218.52 73.1426 218.086 72.4102 217.77 71.5195C217.465 70.6172 217.312 69.5332 217.312 68.2676V55.9805H222.375V68.3027C222.375 68.8652 222.439 69.3398 222.568 69.7266C222.709 70.1133 222.902 70.4297 223.148 70.6758C223.395 70.9219 223.682 71.0977 224.01 71.2031C224.35 71.3086 224.725 71.3613 225.135 71.3613C226.178 71.3613 226.998 71.1504 227.596 70.7285C228.205 70.3066 228.633 69.7324 228.879 69.0059C229.137 68.2676 229.266 67.4473 229.266 66.5449ZM248.865 70.8516V48H253.963V75H249.375L248.865 70.8516ZM236.842 65.7188V65.3496C236.842 63.8965 237.006 62.5781 237.334 61.3945C237.662 60.1992 238.143 59.1738 238.775 58.3184C239.408 57.4629 240.188 56.8008 241.113 56.332C242.039 55.8633 243.094 55.6289 244.277 55.6289C245.391 55.6289 246.363 55.8633 247.195 56.332C248.039 56.8008 248.754 57.4688 249.34 58.3359C249.938 59.1914 250.418 60.2051 250.781 61.377C251.145 62.5371 251.408 63.8086 251.572 65.1914V66C251.408 67.3242 251.145 68.5547 250.781 69.6914C250.418 70.8281 249.938 71.8242 249.34 72.6797C248.754 73.5234 248.039 74.1797 247.195 74.6484C246.352 75.1172 245.367 75.3516 244.242 75.3516C243.059 75.3516 242.004 75.1113 241.078 74.6309C240.164 74.1504 239.391 73.4766 238.758 72.6094C238.137 71.7422 237.662 70.7227 237.334 69.5508C237.006 68.3789 236.842 67.1016 236.842 65.7188ZM241.904 65.3496V65.7188C241.904 66.5039 241.963 67.2363 242.08 67.916C242.209 68.5957 242.414 69.1992 242.695 69.7266C242.988 70.2422 243.363 70.6465 243.82 70.9395C244.289 71.2207 244.857 71.3613 245.525 71.3613C246.393 71.3613 247.107 71.168 247.67 70.7812C248.232 70.3828 248.66 69.8379 248.953 69.1465C249.258 68.4551 249.434 67.6582 249.48 66.7559V64.4531C249.445 63.7148 249.34 63.0527 249.164 62.4668C249 61.8691 248.754 61.3594 248.426 60.9375C248.109 60.5156 247.711 60.1875 247.23 59.9531C246.762 59.7188 246.205 59.6016 245.561 59.6016C244.904 59.6016 244.342 59.7539 243.873 60.0586C243.404 60.3516 243.023 60.7559 242.73 61.2715C242.449 61.7871 242.238 62.3965 242.098 63.0996C241.969 63.791 241.904 64.541 241.904 65.3496ZM284.373 70.8867V75H270.75V70.8867H284.373ZM272.473 49.4062V75H267.199V49.4062H272.473ZM282.598 59.8301V63.8379H270.75V59.8301H282.598ZM284.355 49.4062V53.5371H270.75V49.4062H284.355ZM292.477 48V75H287.396V48H292.477ZM319.266 68.3027C319.266 67.8457 319.195 67.4355 319.055 67.0723C318.926 66.6973 318.68 66.3574 318.316 66.0527C317.953 65.7363 317.443 65.4258 316.787 65.1211C316.131 64.8164 315.281 64.5 314.238 64.1719C313.078 63.7969 311.977 63.375 310.934 62.9062C309.902 62.4375 308.988 61.8926 308.191 61.2715C307.406 60.6387 306.785 59.9062 306.328 59.0742C305.883 58.2422 305.66 57.2754 305.66 56.1738C305.66 55.1074 305.895 54.1406 306.363 53.2734C306.832 52.3945 307.488 51.6445 308.332 51.0234C309.176 50.3906 310.172 49.9043 311.32 49.5645C312.48 49.2246 313.752 49.0547 315.135 49.0547C317.021 49.0547 318.668 49.3945 320.074 50.0742C321.48 50.7539 322.57 51.6855 323.344 52.8691C324.129 54.0527 324.521 55.4062 324.521 56.9297H319.283C319.283 56.1797 319.125 55.5234 318.809 54.9609C318.504 54.3867 318.035 53.9355 317.402 53.6074C316.781 53.2793 315.996 53.1152 315.047 53.1152C314.133 53.1152 313.371 53.2559 312.762 53.5371C312.152 53.8066 311.695 54.1758 311.391 54.6445C311.086 55.1016 310.934 55.6172 310.934 56.1914C310.934 56.625 311.039 57.0176 311.25 57.3691C311.473 57.7207 311.801 58.0488 312.234 58.3535C312.668 58.6582 313.201 58.9453 313.834 59.2148C314.467 59.4844 315.199 59.748 316.031 60.0059C317.426 60.4277 318.65 60.9023 319.705 61.4297C320.771 61.957 321.662 62.5488 322.377 63.2051C323.092 63.8613 323.631 64.6055 323.994 65.4375C324.357 66.2695 324.539 67.2129 324.539 68.2676C324.539 69.3809 324.322 70.377 323.889 71.2559C323.455 72.1348 322.828 72.8789 322.008 73.4883C321.188 74.0977 320.209 74.5605 319.072 74.877C317.936 75.1934 316.664 75.3516 315.258 75.3516C313.992 75.3516 312.744 75.1875 311.514 74.8594C310.283 74.5195 309.164 74.0098 308.156 73.3301C307.16 72.6504 306.363 71.7832 305.766 70.7285C305.168 69.6738 304.869 68.4258 304.869 66.9844H310.16C310.16 67.7812 310.283 68.4551 310.529 69.0059C310.775 69.5566 311.121 70.002 311.566 70.3418C312.023 70.6816 312.562 70.9277 313.184 71.0801C313.816 71.2324 314.508 71.3086 315.258 71.3086C316.172 71.3086 316.922 71.1797 317.508 70.9219C318.105 70.6641 318.545 70.3066 318.826 69.8496C319.119 69.3926 319.266 68.877 319.266 68.3027ZM338.074 70.7109V62.2383C338.074 61.6289 337.975 61.1074 337.775 60.6738C337.576 60.2285 337.266 59.8828 336.844 59.6367C336.434 59.3906 335.9 59.2676 335.244 59.2676C334.682 59.2676 334.195 59.3672 333.785 59.5664C333.375 59.7539 333.059 60.0293 332.836 60.3926C332.613 60.7441 332.502 61.1602 332.502 61.6406H327.439C327.439 60.832 327.627 60.0645 328.002 59.3379C328.377 58.6113 328.922 57.9727 329.637 57.4219C330.352 56.8594 331.201 56.4199 332.186 56.1035C333.182 55.7871 334.295 55.6289 335.525 55.6289C337.002 55.6289 338.314 55.875 339.463 56.3672C340.611 56.8594 341.514 57.5977 342.17 58.582C342.838 59.5664 343.172 60.7969 343.172 62.2734V70.4121C343.172 71.4551 343.236 72.3105 343.365 72.9785C343.494 73.6348 343.682 74.209 343.928 74.7012V75H338.812C338.566 74.4844 338.379 73.8398 338.25 73.0664C338.133 72.2812 338.074 71.4961 338.074 70.7109ZM338.742 63.416L338.777 66.2812H335.947C335.279 66.2812 334.699 66.3574 334.207 66.5098C333.715 66.6621 333.311 66.8789 332.994 67.1602C332.678 67.4297 332.443 67.7461 332.291 68.1094C332.15 68.4727 332.08 68.8711 332.08 69.3047C332.08 69.7383 332.18 70.1309 332.379 70.4824C332.578 70.8223 332.865 71.0918 333.24 71.291C333.615 71.4785 334.055 71.5723 334.559 71.5723C335.32 71.5723 335.982 71.4199 336.545 71.1152C337.107 70.8105 337.541 70.4355 337.846 69.9902C338.162 69.5449 338.326 69.123 338.338 68.7246L339.674 70.8691C339.486 71.3496 339.229 71.8477 338.9 72.3633C338.584 72.8789 338.18 73.3652 337.688 73.8223C337.195 74.2676 336.604 74.6367 335.912 74.9297C335.221 75.2109 334.4 75.3516 333.451 75.3516C332.244 75.3516 331.148 75.1113 330.164 74.6309C329.191 74.1387 328.418 73.4648 327.844 72.6094C327.281 71.7422 327 70.7578 327 69.6562C327 68.6602 327.188 67.7754 327.562 67.002C327.938 66.2285 328.488 65.5781 329.215 65.0508C329.953 64.5117 330.873 64.1074 331.975 63.8379C333.076 63.5566 334.354 63.416 335.807 63.416H338.742ZM352.436 72.8555L357.48 55.9805H362.912L355.266 77.8652C355.102 78.3457 354.879 78.8613 354.598 79.4121C354.328 79.9629 353.959 80.4844 353.49 80.9766C353.033 81.4805 352.453 81.8906 351.75 82.207C351.059 82.5234 350.209 82.6816 349.201 82.6816C348.721 82.6816 348.328 82.6523 348.023 82.5938C347.719 82.5352 347.355 82.4531 346.934 82.3477V78.6387C347.062 78.6387 347.197 78.6387 347.338 78.6387C347.479 78.6504 347.613 78.6562 347.742 78.6562C348.41 78.6562 348.955 78.5801 349.377 78.4277C349.799 78.2754 350.139 78.041 350.396 77.7246C350.654 77.4199 350.859 77.0215 351.012 76.5293L352.436 72.8555ZM350.326 55.9805L354.457 69.7617L355.178 75.123L351.732 75.4922L344.895 55.9805H350.326ZM373.441 75.3516C371.965 75.3516 370.641 75.1172 369.469 74.6484C368.297 74.168 367.301 73.5059 366.48 72.6621C365.672 71.8184 365.051 70.8398 364.617 69.7266C364.184 68.6016 363.967 67.4062 363.967 66.1406V65.4375C363.967 63.9961 364.172 62.6777 364.582 61.4824C364.992 60.2871 365.578 59.25 366.34 58.3711C367.113 57.4922 368.051 56.8184 369.152 56.3496C370.254 55.8691 371.496 55.6289 372.879 55.6289C374.227 55.6289 375.422 55.8516 376.465 56.2969C377.508 56.7422 378.381 57.375 379.084 58.1953C379.799 59.0156 380.338 60 380.701 61.1484C381.064 62.2852 381.246 63.5508 381.246 64.9453V67.0547H366.129V63.6797H376.271V63.293C376.271 62.5898 376.143 61.9629 375.885 61.4121C375.639 60.8496 375.264 60.4043 374.76 60.0762C374.256 59.748 373.611 59.584 372.826 59.584C372.158 59.584 371.584 59.7305 371.104 60.0234C370.623 60.3164 370.23 60.7266 369.926 61.2539C369.633 61.7812 369.41 62.4023 369.258 63.1172C369.117 63.8203 369.047 64.5938 369.047 65.4375V66.1406C369.047 66.9023 369.152 67.6055 369.363 68.25C369.586 68.8945 369.896 69.4512 370.295 69.9199C370.705 70.3887 371.197 70.752 371.771 71.0098C372.357 71.2676 373.02 71.3965 373.758 71.3965C374.672 71.3965 375.521 71.2207 376.307 70.8691C377.104 70.5059 377.789 69.9609 378.363 69.2344L380.824 71.9062C380.426 72.4805 379.881 73.0312 379.189 73.5586C378.51 74.0859 377.689 74.5195 376.729 74.8594C375.768 75.1875 374.672 75.3516 373.441 75.3516ZM395.361 70.8516V48H400.459V75H395.871L395.361 70.8516ZM383.338 65.7188V65.3496C383.338 63.8965 383.502 62.5781 383.83 61.3945C384.158 60.1992 384.639 59.1738 385.271 58.3184C385.904 57.4629 386.684 56.8008 387.609 56.332C388.535 55.8633 389.59 55.6289 390.773 55.6289C391.887 55.6289 392.859 55.8633 393.691 56.332C394.535 56.8008 395.25 57.4688 395.836 58.3359C396.434 59.1914 396.914 60.2051 397.277 61.377C397.641 62.5371 397.904 63.8086 398.068 65.1914V66C397.904 67.3242 397.641 68.5547 397.277 69.6914C396.914 70.8281 396.434 71.8242 395.836 72.6797C395.25 73.5234 394.535 74.1797 393.691 74.6484C392.848 75.1172 391.863 75.3516 390.738 75.3516C389.555 75.3516 388.5 75.1113 387.574 74.6309C386.66 74.1504 385.887 73.4766 385.254 72.6094C384.633 71.7422 384.158 70.7227 383.83 69.5508C383.502 68.3789 383.338 67.1016 383.338 65.7188ZM388.4 65.3496V65.7188C388.4 66.5039 388.459 67.2363 388.576 67.916C388.705 68.5957 388.91 69.1992 389.191 69.7266C389.484 70.2422 389.859 70.6465 390.316 70.9395C390.785 71.2207 391.354 71.3613 392.021 71.3613C392.889 71.3613 393.604 71.168 394.166 70.7812C394.729 70.3828 395.156 69.8379 395.449 69.1465C395.754 68.4551 395.93 67.6582 395.977 66.7559V64.4531C395.941 63.7148 395.836 63.0527 395.66 62.4668C395.496 61.8691 395.25 61.3594 394.922 60.9375C394.605 60.5156 394.207 60.1875 393.727 59.9531C393.258 59.7188 392.701 59.6016 392.057 59.6016C391.4 59.6016 390.838 59.7539 390.369 60.0586C389.9 60.3516 389.52 60.7559 389.227 61.2715C388.945 61.7871 388.734 62.3965 388.594 63.0996C388.465 63.791 388.4 64.541 388.4 65.3496Z" fill="#888888"/>
<path d="M123.434 132.617V140H102.215V132.617H123.434ZM105.633 100.188V140H96.0352V100.188H105.633ZM120.699 115.992V123.129H102.215V115.992H120.699ZM123.516 100.188V107.598H102.215V100.188H123.516ZM143.395 133.219V98H152.664V140H144.352L143.395 133.219ZM125.238 125.562V124.988C125.238 122.746 125.484 120.704 125.977 118.863C126.469 117.004 127.198 115.409 128.164 114.078C129.13 112.729 130.333 111.69 131.773 110.961C133.214 110.232 134.872 109.867 136.75 109.867C138.427 109.867 139.895 110.259 141.152 111.043C142.41 111.809 143.486 112.884 144.379 114.27C145.272 115.655 146.001 117.277 146.566 119.137C147.132 120.978 147.56 122.965 147.852 125.098V125.781C147.56 127.786 147.132 129.682 146.566 131.469C146.001 133.237 145.272 134.805 144.379 136.172C143.486 137.539 142.401 138.615 141.125 139.398C139.867 140.164 138.391 140.547 136.695 140.547C134.818 140.547 133.159 140.173 131.719 139.426C130.297 138.678 129.103 137.63 128.137 136.281C127.189 134.932 126.469 133.346 125.977 131.523C125.484 129.701 125.238 127.714 125.238 125.562ZM134.453 124.988V125.562C134.453 126.674 134.526 127.704 134.672 128.652C134.818 129.6 135.064 130.439 135.41 131.168C135.775 131.879 136.249 132.435 136.832 132.836C137.434 133.237 138.172 133.438 139.047 133.438C140.232 133.438 141.207 133.155 141.973 132.59C142.757 132.025 143.331 131.223 143.695 130.184C144.078 129.145 144.242 127.923 144.188 126.52V124.359C144.224 123.156 144.142 122.099 143.941 121.188C143.741 120.258 143.422 119.483 142.984 118.863C142.565 118.243 142.027 117.779 141.371 117.469C140.733 117.141 139.977 116.977 139.102 116.977C138.245 116.977 137.516 117.177 136.914 117.578C136.331 117.979 135.857 118.544 135.492 119.273C135.128 119.984 134.863 120.832 134.699 121.816C134.535 122.783 134.453 123.84 134.453 124.988ZM175.168 132.809V110.414H184.41V140H175.77L175.168 132.809ZM176.043 126.793L178.449 126.738C178.449 128.725 178.212 130.566 177.738 132.262C177.264 133.939 176.562 135.397 175.633 136.637C174.721 137.876 173.591 138.842 172.242 139.535C170.911 140.21 169.371 140.547 167.621 140.547C166.163 140.547 164.823 140.346 163.602 139.945C162.398 139.526 161.359 138.879 160.484 138.004C159.609 137.111 158.926 135.971 158.434 134.586C157.96 133.182 157.723 131.505 157.723 129.555V110.414H166.938V129.609C166.938 130.266 167.02 130.831 167.184 131.305C167.348 131.779 167.585 132.18 167.895 132.508C168.204 132.818 168.587 133.055 169.043 133.219C169.517 133.365 170.055 133.438 170.656 133.438C172.042 133.438 173.126 133.146 173.91 132.562C174.694 131.979 175.241 131.186 175.551 130.184C175.879 129.181 176.043 128.051 176.043 126.793ZM194.691 100.188H202.512L211.398 127.887L220.285 100.188H228.105L214.57 140H208.227L194.691 100.188ZM189.934 100.188H198.027L199.531 130.703V140H189.934V100.188ZM224.77 100.188H232.891V140H223.266V130.703L224.77 100.188ZM248.34 110.414V140H239.098V110.414H248.34ZM238.551 102.785C238.551 101.473 239.025 100.397 239.973 99.5586C240.921 98.7201 242.151 98.3008 243.664 98.3008C245.177 98.3008 246.408 98.7201 247.355 99.5586C248.303 100.397 248.777 101.473 248.777 102.785C248.777 104.098 248.303 105.173 247.355 106.012C246.408 106.85 245.177 107.27 243.664 107.27C242.151 107.27 240.921 106.85 239.973 106.012C239.025 105.173 238.551 104.098 238.551 102.785ZM263.078 116.73V140H253.863V110.414H262.504L263.078 116.73ZM261.984 124.195L259.824 124.25C259.824 121.99 260.098 119.975 260.645 118.207C261.191 116.421 261.966 114.908 262.969 113.668C263.971 112.428 265.165 111.49 266.551 110.852C267.954 110.195 269.513 109.867 271.227 109.867C272.594 109.867 273.842 110.068 274.973 110.469C276.121 110.87 277.105 111.517 277.926 112.41C278.764 113.303 279.402 114.488 279.84 115.965C280.296 117.423 280.523 119.228 280.523 121.379V140H271.254V121.352C271.254 120.167 271.09 119.264 270.762 118.645C270.434 118.007 269.96 117.569 269.34 117.332C268.72 117.095 267.964 116.977 267.07 116.977C266.122 116.977 265.32 117.159 264.664 117.523C264.008 117.888 263.479 118.398 263.078 119.055C262.695 119.693 262.413 120.449 262.23 121.324C262.066 122.199 261.984 123.156 261.984 124.195ZM302.645 133.219V98H311.914V140H303.602L302.645 133.219ZM284.488 125.562V124.988C284.488 122.746 284.734 120.704 285.227 118.863C285.719 117.004 286.448 115.409 287.414 114.078C288.38 112.729 289.583 111.69 291.023 110.961C292.464 110.232 294.122 109.867 296 109.867C297.677 109.867 299.145 110.259 300.402 111.043C301.66 111.809 302.736 112.884 303.629 114.27C304.522 115.655 305.251 117.277 305.816 119.137C306.382 120.978 306.81 122.965 307.102 125.098V125.781C306.81 127.786 306.382 129.682 305.816 131.469C305.251 133.237 304.522 134.805 303.629 136.172C302.736 137.539 301.651 138.615 300.375 139.398C299.117 140.164 297.641 140.547 295.945 140.547C294.068 140.547 292.409 140.173 290.969 139.426C289.547 138.678 288.353 137.63 287.387 136.281C286.439 134.932 285.719 133.346 285.227 131.523C284.734 129.701 284.488 127.714 284.488 125.562ZM293.703 124.988V125.562C293.703 126.674 293.776 127.704 293.922 128.652C294.068 129.6 294.314 130.439 294.66 131.168C295.025 131.879 295.499 132.435 296.082 132.836C296.684 133.237 297.422 133.438 298.297 133.438C299.482 133.438 300.457 133.155 301.223 132.59C302.007 132.025 302.581 131.223 302.945 130.184C303.328 129.145 303.492 127.923 303.438 126.52V124.359C303.474 123.156 303.392 122.099 303.191 121.188C302.991 120.258 302.672 119.483 302.234 118.863C301.815 118.243 301.277 117.779 300.621 117.469C299.983 117.141 299.227 116.977 298.352 116.977C297.495 116.977 296.766 117.177 296.164 117.578C295.581 117.979 295.107 118.544 294.742 119.273C294.378 119.984 294.113 120.832 293.949 121.816C293.785 122.783 293.703 123.84 293.703 124.988Z" fill="black"/>
<rect x="93" y="178" width="917" height="77" rx="10" fill="#D3D3D3"/>
<rect x="111" y="196" width="148" height="41" rx="3" fill="#424242"/>
<rect x="111" y="196" width="148" height="41" rx="3" stroke="#424242" stroke-width="4"/>
<path d="M134.234 210.203H139.271C140.255 210.203 141.11 210.35 141.837 210.643C142.563 210.936 143.123 211.369 143.516 211.943C143.914 212.518 144.113 213.227 144.113 214.07C144.113 214.803 143.999 215.415 143.771 215.907C143.542 216.399 143.223 216.807 142.812 217.129C142.408 217.445 141.937 217.706 141.397 217.911L140.387 218.482H136.159L136.142 216.101H139.271C139.663 216.101 139.988 216.03 140.246 215.89C140.504 215.749 140.697 215.55 140.826 215.292C140.961 215.028 141.028 214.715 141.028 214.352C141.028 213.982 140.961 213.666 140.826 213.402C140.691 213.139 140.492 212.937 140.229 212.796C139.971 212.655 139.651 212.585 139.271 212.585H137.319V223H134.234V210.203ZM141.239 223L138.409 217.34L141.679 217.322L144.544 222.868V223H141.239ZM150.441 223.176C149.668 223.176 148.977 223.056 148.367 222.815C147.758 222.569 147.242 222.232 146.82 221.805C146.404 221.377 146.085 220.885 145.862 220.328C145.646 219.771 145.537 219.183 145.537 218.562V218.228C145.537 217.53 145.634 216.886 145.827 216.294C146.021 215.696 146.308 215.175 146.688 214.729C147.069 214.284 147.547 213.938 148.121 213.692C148.695 213.44 149.363 213.314 150.125 213.314C150.799 213.314 151.402 213.423 151.936 213.64C152.469 213.856 152.92 214.167 153.289 214.571C153.664 214.976 153.948 215.465 154.142 216.039C154.341 216.613 154.44 217.258 154.44 217.973V219.177H146.671V217.322H151.549V217.094C151.555 216.777 151.499 216.508 151.382 216.285C151.271 216.062 151.106 215.893 150.89 215.775C150.673 215.658 150.409 215.6 150.099 215.6C149.776 215.6 149.51 215.67 149.299 215.811C149.094 215.951 148.933 216.145 148.815 216.391C148.704 216.631 148.625 216.909 148.578 217.226C148.531 217.542 148.508 217.876 148.508 218.228V218.562C148.508 218.913 148.555 219.232 148.648 219.52C148.748 219.807 148.889 220.053 149.07 220.258C149.258 220.457 149.48 220.612 149.738 220.724C150.002 220.835 150.301 220.891 150.635 220.891C151.039 220.891 151.438 220.814 151.83 220.662C152.223 220.51 152.56 220.258 152.841 219.906L154.186 221.506C153.992 221.781 153.717 222.048 153.359 222.306C153.008 222.563 152.586 222.774 152.094 222.938C151.602 223.097 151.051 223.176 150.441 223.176ZM160.584 220.609V216.689C160.584 216.42 160.546 216.188 160.47 215.995C160.394 215.802 160.273 215.652 160.109 215.547C159.945 215.436 159.726 215.38 159.45 215.38C159.228 215.38 159.037 215.418 158.879 215.494C158.721 215.57 158.601 215.685 158.519 215.837C158.437 215.989 158.396 216.183 158.396 216.417H155.434C155.434 215.978 155.53 215.57 155.724 215.195C155.923 214.814 156.204 214.483 156.567 214.202C156.937 213.921 157.376 213.704 157.886 213.552C158.401 213.394 158.976 213.314 159.608 213.314C160.364 213.314 161.038 213.44 161.63 213.692C162.228 213.944 162.699 214.322 163.045 214.826C163.391 215.324 163.563 215.951 163.563 216.707V220.601C163.563 221.222 163.599 221.693 163.669 222.016C163.739 222.332 163.839 222.61 163.968 222.851V223H160.997C160.856 222.707 160.751 222.35 160.681 221.928C160.616 221.5 160.584 221.061 160.584 220.609ZM160.944 217.19L160.962 218.772H159.652C159.377 218.772 159.143 218.811 158.949 218.887C158.762 218.963 158.609 219.068 158.492 219.203C158.381 219.332 158.299 219.479 158.246 219.643C158.199 219.807 158.176 219.979 158.176 220.161C158.176 220.337 158.217 220.495 158.299 220.636C158.387 220.771 158.504 220.876 158.65 220.952C158.797 221.028 158.961 221.066 159.143 221.066C159.471 221.066 159.749 221.005 159.978 220.882C160.212 220.753 160.391 220.598 160.514 220.416C160.637 220.234 160.698 220.064 160.698 219.906L161.349 221.119C161.231 221.354 161.097 221.591 160.944 221.831C160.798 222.071 160.613 222.294 160.391 222.499C160.174 222.698 159.907 222.862 159.591 222.991C159.274 223.114 158.891 223.176 158.439 223.176C157.854 223.176 157.314 223.056 156.822 222.815C156.336 222.575 155.946 222.241 155.653 221.813C155.36 221.38 155.214 220.882 155.214 220.319C155.214 219.827 155.302 219.388 155.478 219.001C155.659 218.614 155.932 218.286 156.295 218.017C156.658 217.747 157.121 217.542 157.684 217.401C158.246 217.261 158.908 217.19 159.67 217.19H160.944ZM169.224 220.891C169.499 220.891 169.733 220.841 169.927 220.741C170.126 220.636 170.275 220.489 170.375 220.302C170.48 220.108 170.53 219.877 170.524 219.607H173.311C173.316 220.322 173.141 220.949 172.783 221.488C172.432 222.021 171.951 222.438 171.342 222.736C170.738 223.029 170.056 223.176 169.294 223.176C168.55 223.176 167.899 223.056 167.343 222.815C166.786 222.569 166.32 222.229 165.945 221.796C165.576 221.356 165.298 220.844 165.11 220.258C164.929 219.672 164.838 219.036 164.838 218.351V218.148C164.838 217.463 164.929 216.827 165.11 216.241C165.298 215.649 165.576 215.137 165.945 214.703C166.32 214.264 166.783 213.924 167.334 213.684C167.891 213.438 168.538 213.314 169.276 213.314C170.067 213.314 170.765 213.464 171.368 213.763C171.978 214.062 172.455 214.495 172.801 215.063C173.146 215.632 173.316 216.32 173.311 217.129H170.524C170.53 216.842 170.486 216.584 170.393 216.355C170.299 216.127 170.152 215.945 169.953 215.811C169.76 215.67 169.511 215.6 169.206 215.6C168.901 215.6 168.655 215.667 168.468 215.802C168.28 215.937 168.137 216.124 168.037 216.364C167.943 216.599 167.879 216.868 167.844 217.173C167.814 217.478 167.8 217.803 167.8 218.148V218.351C167.8 218.702 167.814 219.033 167.844 219.344C167.879 219.648 167.946 219.918 168.046 220.152C168.146 220.381 168.289 220.562 168.477 220.697C168.664 220.826 168.913 220.891 169.224 220.891ZM179.586 213.49V215.547H173.855V213.49H179.586ZM175.06 211.126H178.021V219.897C178.021 220.149 178.051 220.346 178.109 220.486C178.168 220.621 178.268 220.718 178.408 220.776C178.555 220.829 178.748 220.855 178.988 220.855C179.158 220.855 179.299 220.853 179.41 220.847C179.521 220.835 179.627 220.82 179.727 220.803V222.921C179.475 223.003 179.211 223.064 178.936 223.105C178.66 223.152 178.367 223.176 178.057 223.176C177.424 223.176 176.882 223.076 176.431 222.877C175.985 222.678 175.646 222.364 175.411 221.937C175.177 221.509 175.06 220.952 175.06 220.267V211.126ZM196.074 210.203V223H192.998L188.472 215.037V223H185.387V210.203H188.472L192.998 218.166V210.203H196.074ZM202.824 220.609V216.689C202.824 216.42 202.786 216.188 202.71 215.995C202.634 215.802 202.514 215.652 202.35 215.547C202.186 215.436 201.966 215.38 201.69 215.38C201.468 215.38 201.277 215.418 201.119 215.494C200.961 215.57 200.841 215.685 200.759 215.837C200.677 215.989 200.636 216.183 200.636 216.417H197.674C197.674 215.978 197.771 215.57 197.964 215.195C198.163 214.814 198.444 214.483 198.808 214.202C199.177 213.921 199.616 213.704 200.126 213.552C200.642 213.394 201.216 213.314 201.849 213.314C202.604 213.314 203.278 213.44 203.87 213.692C204.468 213.944 204.939 214.322 205.285 214.826C205.631 215.324 205.804 215.951 205.804 216.707V220.601C205.804 221.222 205.839 221.693 205.909 222.016C205.979 222.332 206.079 222.61 206.208 222.851V223H203.237C203.097 222.707 202.991 222.35 202.921 221.928C202.856 221.5 202.824 221.061 202.824 220.609ZM203.185 217.19L203.202 218.772H201.893C201.617 218.772 201.383 218.811 201.189 218.887C201.002 218.963 200.85 219.068 200.732 219.203C200.621 219.332 200.539 219.479 200.486 219.643C200.439 219.807 200.416 219.979 200.416 220.161C200.416 220.337 200.457 220.495 200.539 220.636C200.627 220.771 200.744 220.876 200.891 220.952C201.037 221.028 201.201 221.066 201.383 221.066C201.711 221.066 201.989 221.005 202.218 220.882C202.452 220.753 202.631 220.598 202.754 220.416C202.877 220.234 202.938 220.064 202.938 219.906L203.589 221.119C203.472 221.354 203.337 221.591 203.185 221.831C203.038 222.071 202.854 222.294 202.631 222.499C202.414 222.698 202.147 222.862 201.831 222.991C201.515 223.114 201.131 223.176 200.68 223.176C200.094 223.176 199.555 223.056 199.062 222.815C198.576 222.575 198.187 222.241 197.894 221.813C197.601 221.38 197.454 220.882 197.454 220.319C197.454 219.827 197.542 219.388 197.718 219.001C197.899 218.614 198.172 218.286 198.535 218.017C198.898 217.747 199.361 217.542 199.924 217.401C200.486 217.261 201.148 217.19 201.91 217.19H203.185ZM212.457 213.49V215.547H206.727V213.49H212.457ZM207.931 211.126H210.893V219.897C210.893 220.149 210.922 220.346 210.98 220.486C211.039 220.621 211.139 220.718 211.279 220.776C211.426 220.829 211.619 220.855 211.859 220.855C212.029 220.855 212.17 220.853 212.281 220.847C212.393 220.835 212.498 220.82 212.598 220.803V222.921C212.346 223.003 212.082 223.064 211.807 223.105C211.531 223.152 211.238 223.176 210.928 223.176C210.295 223.176 209.753 223.076 209.302 222.877C208.856 222.678 208.517 222.364 208.282 221.937C208.048 221.509 207.931 220.952 207.931 220.267V211.126ZM216.764 213.49V223H213.793V213.49H216.764ZM213.617 211.038C213.617 210.616 213.77 210.271 214.074 210.001C214.379 209.731 214.774 209.597 215.261 209.597C215.747 209.597 216.143 209.731 216.447 210.001C216.752 210.271 216.904 210.616 216.904 211.038C216.904 211.46 216.752 211.806 216.447 212.075C216.143 212.345 215.747 212.479 215.261 212.479C214.774 212.479 214.379 212.345 214.074 212.075C213.77 211.806 213.617 211.46 213.617 211.038ZM222.02 220.97L223.892 213.49H227.012L223.9 223H222.055L222.02 220.97ZM220.912 213.49L222.758 220.97L222.74 223H220.886L217.783 213.49H220.912ZM232.373 223.176C231.6 223.176 230.908 223.056 230.299 222.815C229.689 222.569 229.174 222.232 228.752 221.805C228.336 221.377 228.017 220.885 227.794 220.328C227.577 219.771 227.469 219.183 227.469 218.562V218.228C227.469 217.53 227.565 216.886 227.759 216.294C227.952 215.696 228.239 215.175 228.62 214.729C229.001 214.284 229.479 213.938 230.053 213.692C230.627 213.44 231.295 213.314 232.057 213.314C232.73 213.314 233.334 213.423 233.867 213.64C234.4 213.856 234.852 214.167 235.221 214.571C235.596 214.976 235.88 215.465 236.073 216.039C236.272 216.613 236.372 217.258 236.372 217.973V219.177H228.603V217.322H233.48V217.094C233.486 216.777 233.431 216.508 233.313 216.285C233.202 216.062 233.038 215.893 232.821 215.775C232.604 215.658 232.341 215.6 232.03 215.6C231.708 215.6 231.441 215.67 231.23 215.811C231.025 215.951 230.864 216.145 230.747 216.391C230.636 216.631 230.557 216.909 230.51 217.226C230.463 217.542 230.439 217.876 230.439 218.228V218.562C230.439 218.913 230.486 219.232 230.58 219.52C230.68 219.807 230.82 220.053 231.002 220.258C231.189 220.457 231.412 220.612 231.67 220.724C231.934 220.835 232.232 220.891 232.566 220.891C232.971 220.891 233.369 220.814 233.762 220.662C234.154 220.51 234.491 220.258 234.772 219.906L236.117 221.506C235.924 221.781 235.648 222.048 235.291 222.306C234.939 222.563 234.518 222.774 234.025 222.938C233.533 223.097 232.982 223.176 232.373 223.176Z" fill="white"/>
<rect x="279" y="196" width="133" height="41" rx="3" fill="#424242"/>
<rect x="279" y="196" width="133" height="41" rx="3" stroke="#424242" stroke-width="4"/>
<path d="M310.994 220.627V223H304.174V220.627H310.994ZM305.272 210.203V223H302.188V210.203H305.272ZM310.115 215.283V217.577H304.174V215.283H310.115ZM311.021 210.203V212.585H304.174V210.203H311.021ZM315.248 209.5V223H312.277V209.5H315.248ZM321.682 223.176C320.908 223.176 320.217 223.056 319.607 222.815C318.998 222.569 318.482 222.232 318.061 221.805C317.645 221.377 317.325 220.885 317.103 220.328C316.886 219.771 316.777 219.183 316.777 218.562V218.228C316.777 217.53 316.874 216.886 317.067 216.294C317.261 215.696 317.548 215.175 317.929 214.729C318.31 214.284 318.787 213.938 319.361 213.692C319.936 213.44 320.604 213.314 321.365 213.314C322.039 213.314 322.643 213.423 323.176 213.64C323.709 213.856 324.16 214.167 324.529 214.571C324.904 214.976 325.188 215.465 325.382 216.039C325.581 216.613 325.681 217.258 325.681 217.973V219.177H317.911V217.322H322.789V217.094C322.795 216.777 322.739 216.508 322.622 216.285C322.511 216.062 322.347 215.893 322.13 215.775C321.913 215.658 321.649 215.6 321.339 215.6C321.017 215.6 320.75 215.67 320.539 215.811C320.334 215.951 320.173 216.145 320.056 216.391C319.944 216.631 319.865 216.909 319.818 217.226C319.771 217.542 319.748 217.876 319.748 218.228V218.562C319.748 218.913 319.795 219.232 319.889 219.52C319.988 219.807 320.129 220.053 320.311 220.258C320.498 220.457 320.721 220.612 320.979 220.724C321.242 220.835 321.541 220.891 321.875 220.891C322.279 220.891 322.678 220.814 323.07 220.662C323.463 220.51 323.8 220.258 324.081 219.906L325.426 221.506C325.232 221.781 324.957 222.048 324.6 222.306C324.248 222.563 323.826 222.774 323.334 222.938C322.842 223.097 322.291 223.176 321.682 223.176ZM330.901 220.891C331.177 220.891 331.411 220.841 331.604 220.741C331.804 220.636 331.953 220.489 332.053 220.302C332.158 220.108 332.208 219.877 332.202 219.607H334.988C334.994 220.322 334.818 220.949 334.461 221.488C334.109 222.021 333.629 222.438 333.02 222.736C332.416 223.029 331.733 223.176 330.972 223.176C330.228 223.176 329.577 223.056 329.021 222.815C328.464 222.569 327.998 222.229 327.623 221.796C327.254 221.356 326.976 220.844 326.788 220.258C326.606 219.672 326.516 219.036 326.516 218.351V218.148C326.516 217.463 326.606 216.827 326.788 216.241C326.976 215.649 327.254 215.137 327.623 214.703C327.998 214.264 328.461 213.924 329.012 213.684C329.568 213.438 330.216 213.314 330.954 213.314C331.745 213.314 332.442 213.464 333.046 213.763C333.655 214.062 334.133 214.495 334.479 215.063C334.824 215.632 334.994 216.32 334.988 217.129H332.202C332.208 216.842 332.164 216.584 332.07 216.355C331.977 216.127 331.83 215.945 331.631 215.811C331.438 215.67 331.188 215.6 330.884 215.6C330.579 215.6 330.333 215.667 330.146 215.802C329.958 215.937 329.814 216.124 329.715 216.364C329.621 216.599 329.557 216.868 329.521 217.173C329.492 217.478 329.478 217.803 329.478 218.148V218.351C329.478 218.702 329.492 219.033 329.521 219.344C329.557 219.648 329.624 219.918 329.724 220.152C329.823 220.381 329.967 220.562 330.154 220.697C330.342 220.826 330.591 220.891 330.901 220.891ZM341.264 213.49V215.547H335.533V213.49H341.264ZM336.737 211.126H339.699V219.897C339.699 220.149 339.729 220.346 339.787 220.486C339.846 220.621 339.945 220.718 340.086 220.776C340.232 220.829 340.426 220.855 340.666 220.855C340.836 220.855 340.977 220.853 341.088 220.847C341.199 220.835 341.305 220.82 341.404 220.803V222.921C341.152 223.003 340.889 223.064 340.613 223.105C340.338 223.152 340.045 223.176 339.734 223.176C339.102 223.176 338.56 223.076 338.108 222.877C337.663 222.678 337.323 222.364 337.089 221.937C336.854 221.509 336.737 220.952 336.737 220.267V211.126ZM345.43 215.846V223H342.468V213.49H345.236L345.43 215.846ZM348.242 213.42L348.189 216.171C348.072 216.159 347.914 216.145 347.715 216.127C347.516 216.109 347.349 216.101 347.214 216.101C346.868 216.101 346.569 216.142 346.317 216.224C346.071 216.3 345.866 216.417 345.702 216.575C345.544 216.728 345.427 216.921 345.351 217.155C345.28 217.39 345.248 217.662 345.254 217.973L344.718 217.621C344.718 216.982 344.779 216.402 344.902 215.881C345.031 215.354 345.213 214.899 345.447 214.519C345.682 214.132 345.966 213.836 346.3 213.631C346.634 213.42 347.009 213.314 347.425 213.314C347.571 213.314 347.715 213.323 347.855 213.341C348.002 213.358 348.131 213.385 348.242 213.42ZM348.576 218.342V218.157C348.576 217.46 348.676 216.818 348.875 216.232C349.074 215.641 349.367 215.128 349.754 214.694C350.141 214.261 350.618 213.924 351.187 213.684C351.755 213.438 352.411 213.314 353.155 213.314C353.905 213.314 354.564 213.438 355.133 213.684C355.707 213.924 356.188 214.261 356.574 214.694C356.961 215.128 357.254 215.641 357.453 216.232C357.652 216.818 357.752 217.46 357.752 218.157V218.342C357.752 219.033 357.652 219.675 357.453 220.267C357.254 220.853 356.961 221.365 356.574 221.805C356.188 222.238 355.71 222.575 355.142 222.815C354.573 223.056 353.917 223.176 353.173 223.176C352.429 223.176 351.77 223.056 351.195 222.815C350.621 222.575 350.141 222.238 349.754 221.805C349.367 221.365 349.074 220.853 348.875 220.267C348.676 219.675 348.576 219.033 348.576 218.342ZM351.538 218.157V218.342C351.538 218.699 351.564 219.033 351.617 219.344C351.67 219.654 351.758 219.927 351.881 220.161C352.004 220.39 352.171 220.568 352.382 220.697C352.593 220.826 352.856 220.891 353.173 220.891C353.483 220.891 353.741 220.826 353.946 220.697C354.157 220.568 354.324 220.39 354.447 220.161C354.57 219.927 354.658 219.654 354.711 219.344C354.764 219.033 354.79 218.699 354.79 218.342V218.157C354.79 217.812 354.764 217.486 354.711 217.182C354.658 216.871 354.57 216.599 354.447 216.364C354.324 216.124 354.157 215.937 353.946 215.802C353.735 215.667 353.472 215.6 353.155 215.6C352.845 215.6 352.584 215.667 352.373 215.802C352.168 215.937 352.004 216.124 351.881 216.364C351.758 216.599 351.67 216.871 351.617 217.182C351.564 217.486 351.538 217.812 351.538 218.157ZM361.979 215.521V223H359.018V213.49H361.795L361.979 215.521ZM361.628 217.92L360.934 217.938C360.934 217.211 361.021 216.563 361.197 215.995C361.373 215.421 361.622 214.935 361.944 214.536C362.267 214.138 362.65 213.836 363.096 213.631C363.547 213.42 364.048 213.314 364.599 213.314C365.038 213.314 365.439 213.379 365.803 213.508C366.172 213.637 366.488 213.845 366.752 214.132C367.021 214.419 367.227 214.8 367.367 215.274C367.514 215.743 367.587 216.323 367.587 217.015V223H364.607V217.006C364.607 216.625 364.555 216.335 364.449 216.136C364.344 215.931 364.191 215.79 363.992 215.714C363.793 215.638 363.55 215.6 363.263 215.6C362.958 215.6 362.7 215.658 362.489 215.775C362.278 215.893 362.108 216.057 361.979 216.268C361.856 216.473 361.766 216.716 361.707 216.997C361.654 217.278 361.628 217.586 361.628 217.92ZM374.46 218.983V210.203H377.536V218.983C377.536 219.839 377.34 220.58 376.947 221.207C376.561 221.834 376.033 222.32 375.365 222.666C374.703 223.006 373.959 223.176 373.133 223.176C372.277 223.176 371.516 223.032 370.848 222.745C370.186 222.458 369.664 222.016 369.283 221.418C368.908 220.82 368.721 220.059 368.721 219.133H371.814C371.814 219.566 371.864 219.906 371.964 220.152C372.063 220.393 372.21 220.562 372.403 220.662C372.603 220.756 372.846 220.803 373.133 220.803C373.414 220.803 373.651 220.732 373.845 220.592C374.044 220.445 374.196 220.237 374.302 219.968C374.407 219.692 374.46 219.364 374.46 218.983ZM386.088 219.599C386.088 219.399 386.059 219.221 386 219.062C385.941 218.898 385.833 218.746 385.675 218.605C385.517 218.465 385.288 218.324 384.989 218.184C384.696 218.037 384.31 217.885 383.829 217.727C383.267 217.539 382.725 217.328 382.203 217.094C381.682 216.854 381.216 216.575 380.806 216.259C380.396 215.937 380.07 215.562 379.83 215.134C379.59 214.7 379.47 214.196 379.47 213.622C379.47 213.071 379.593 212.576 379.839 212.137C380.085 211.691 380.428 211.313 380.867 211.003C381.312 210.687 381.834 210.446 382.432 210.282C383.029 210.112 383.683 210.027 384.392 210.027C385.329 210.027 386.155 210.191 386.87 210.52C387.591 210.842 388.153 211.302 388.558 211.899C388.968 212.491 389.173 213.191 389.173 214H386.105C386.105 213.678 386.038 213.394 385.903 213.147C385.774 212.901 385.578 212.708 385.314 212.567C385.051 212.427 384.72 212.356 384.321 212.356C383.935 212.356 383.609 212.415 383.346 212.532C383.082 212.649 382.883 212.808 382.748 213.007C382.613 213.2 382.546 213.414 382.546 213.648C382.546 213.842 382.599 214.018 382.704 214.176C382.815 214.328 382.971 214.472 383.17 214.606C383.375 214.741 383.621 214.87 383.908 214.993C384.201 215.116 384.529 215.236 384.893 215.354C385.572 215.57 386.176 215.813 386.703 216.083C387.236 216.347 387.685 216.648 388.048 216.988C388.417 217.322 388.695 217.703 388.883 218.131C389.076 218.559 389.173 219.042 389.173 219.581C389.173 220.155 389.062 220.665 388.839 221.11C388.616 221.556 388.297 221.934 387.881 222.244C387.465 222.549 386.967 222.78 386.387 222.938C385.807 223.097 385.159 223.176 384.444 223.176C383.788 223.176 383.141 223.094 382.502 222.93C381.869 222.76 381.295 222.502 380.779 222.156C380.264 221.805 379.851 221.356 379.54 220.812C379.235 220.261 379.083 219.607 379.083 218.852H382.177C382.177 219.227 382.227 219.543 382.326 219.801C382.426 220.059 382.572 220.267 382.766 220.425C382.959 220.577 383.196 220.688 383.478 220.759C383.759 220.823 384.081 220.855 384.444 220.855C384.837 220.855 385.153 220.8 385.394 220.688C385.634 220.571 385.81 220.419 385.921 220.231C386.032 220.038 386.088 219.827 386.088 219.599Z" fill="white"/>
<rect x="432" y="196" width="109" height="41" rx="3" fill="#424242"/>
<rect x="432" y="196" width="109" height="41" rx="3" stroke="#424242" stroke-width="4"/>
<path d="M466.118 210.203V223H463.042L458.516 215.037V223H455.431V210.203H458.516L463.042 218.166V210.203H466.118ZM467.56 218.342V218.157C467.56 217.46 467.659 216.818 467.858 216.232C468.058 215.641 468.351 215.128 468.737 214.694C469.124 214.261 469.602 213.924 470.17 213.684C470.738 213.438 471.395 213.314 472.139 213.314C472.889 213.314 473.548 213.438 474.116 213.684C474.69 213.924 475.171 214.261 475.558 214.694C475.944 215.128 476.237 215.641 476.437 216.232C476.636 216.818 476.735 217.46 476.735 218.157V218.342C476.735 219.033 476.636 219.675 476.437 220.267C476.237 220.853 475.944 221.365 475.558 221.805C475.171 222.238 474.693 222.575 474.125 222.815C473.557 223.056 472.9 223.176 472.156 223.176C471.412 223.176 470.753 223.056 470.179 222.815C469.604 222.575 469.124 222.238 468.737 221.805C468.351 221.365 468.058 220.853 467.858 220.267C467.659 219.675 467.56 219.033 467.56 218.342ZM470.521 218.157V218.342C470.521 218.699 470.548 219.033 470.601 219.344C470.653 219.654 470.741 219.927 470.864 220.161C470.987 220.39 471.154 220.568 471.365 220.697C471.576 220.826 471.84 220.891 472.156 220.891C472.467 220.891 472.725 220.826 472.93 220.697C473.141 220.568 473.308 220.39 473.431 220.161C473.554 219.927 473.642 219.654 473.694 219.344C473.747 219.033 473.773 218.699 473.773 218.342V218.157C473.773 217.812 473.747 217.486 473.694 217.182C473.642 216.871 473.554 216.599 473.431 216.364C473.308 216.124 473.141 215.937 472.93 215.802C472.719 215.667 472.455 215.6 472.139 215.6C471.828 215.6 471.567 215.667 471.356 215.802C471.151 215.937 470.987 216.124 470.864 216.364C470.741 216.599 470.653 216.871 470.601 217.182C470.548 217.486 470.521 217.812 470.521 218.157ZM483.521 220.82V209.5H486.5V223H483.828L483.521 220.82ZM477.685 218.359V218.175C477.685 217.454 477.764 216.798 477.922 216.206C478.08 215.608 478.314 215.096 478.625 214.668C478.936 214.234 479.322 213.9 479.785 213.666C480.248 213.432 480.781 213.314 481.385 213.314C481.924 213.314 482.396 213.44 482.8 213.692C483.204 213.938 483.55 214.284 483.837 214.729C484.124 215.175 484.358 215.696 484.54 216.294C484.722 216.886 484.859 217.524 484.953 218.21V218.43C484.859 219.074 484.722 219.684 484.54 220.258C484.358 220.826 484.124 221.33 483.837 221.77C483.55 222.209 483.201 222.555 482.791 222.807C482.387 223.053 481.912 223.176 481.367 223.176C480.764 223.176 480.23 223.056 479.768 222.815C479.311 222.575 478.927 222.238 478.616 221.805C478.312 221.371 478.08 220.861 477.922 220.275C477.764 219.689 477.685 219.051 477.685 218.359ZM480.646 218.175V218.359C480.646 218.717 480.67 219.048 480.717 219.353C480.764 219.657 480.843 219.927 480.954 220.161C481.071 220.39 481.224 220.568 481.411 220.697C481.604 220.826 481.842 220.891 482.123 220.891C482.504 220.891 482.817 220.8 483.063 220.618C483.315 220.437 483.5 220.179 483.617 219.845C483.74 219.511 483.793 219.118 483.775 218.667V217.973C483.787 217.586 483.761 217.246 483.696 216.953C483.632 216.654 483.529 216.405 483.389 216.206C483.254 216.007 483.081 215.857 482.87 215.758C482.665 215.652 482.422 215.6 482.141 215.6C481.865 215.6 481.631 215.664 481.438 215.793C481.25 215.922 481.098 216.104 480.98 216.338C480.863 216.566 480.778 216.839 480.726 217.155C480.673 217.466 480.646 217.806 480.646 218.175ZM492.784 223.176C492.011 223.176 491.319 223.056 490.71 222.815C490.101 222.569 489.585 222.232 489.163 221.805C488.747 221.377 488.428 220.885 488.205 220.328C487.988 219.771 487.88 219.183 487.88 218.562V218.228C487.88 217.53 487.977 216.886 488.17 216.294C488.363 215.696 488.65 215.175 489.031 214.729C489.412 214.284 489.89 213.938 490.464 213.692C491.038 213.44 491.706 213.314 492.468 213.314C493.142 213.314 493.745 213.423 494.278 213.64C494.812 213.856 495.263 214.167 495.632 214.571C496.007 214.976 496.291 215.465 496.484 216.039C496.684 216.613 496.783 217.258 496.783 217.973V219.177H489.014V217.322H493.892V217.094C493.897 216.777 493.842 216.508 493.725 216.285C493.613 216.062 493.449 215.893 493.232 215.775C493.016 215.658 492.752 215.6 492.441 215.6C492.119 215.6 491.853 215.67 491.642 215.811C491.437 215.951 491.275 216.145 491.158 216.391C491.047 216.631 490.968 216.909 490.921 217.226C490.874 217.542 490.851 217.876 490.851 218.228V218.562C490.851 218.913 490.897 219.232 490.991 219.52C491.091 219.807 491.231 220.053 491.413 220.258C491.601 220.457 491.823 220.612 492.081 220.724C492.345 220.835 492.644 220.891 492.978 220.891C493.382 220.891 493.78 220.814 494.173 220.662C494.565 220.51 494.902 220.258 495.184 219.906L496.528 221.506C496.335 221.781 496.06 222.048 495.702 222.306C495.351 222.563 494.929 222.774 494.437 222.938C493.944 223.097 493.394 223.176 492.784 223.176ZM503.217 218.983V210.203H506.293V218.983C506.293 219.839 506.097 220.58 505.704 221.207C505.317 221.834 504.79 222.32 504.122 222.666C503.46 223.006 502.716 223.176 501.89 223.176C501.034 223.176 500.272 223.032 499.604 222.745C498.942 222.458 498.421 222.016 498.04 221.418C497.665 220.82 497.478 220.059 497.478 219.133H500.571C500.571 219.566 500.621 219.906 500.721 220.152C500.82 220.393 500.967 220.562 501.16 220.662C501.359 220.756 501.603 220.803 501.89 220.803C502.171 220.803 502.408 220.732 502.602 220.592C502.801 220.445 502.953 220.237 503.059 219.968C503.164 219.692 503.217 219.364 503.217 218.983ZM514.845 219.599C514.845 219.399 514.815 219.221 514.757 219.062C514.698 218.898 514.59 218.746 514.432 218.605C514.273 218.465 514.045 218.324 513.746 218.184C513.453 218.037 513.066 217.885 512.586 217.727C512.023 217.539 511.481 217.328 510.96 217.094C510.438 216.854 509.973 216.575 509.562 216.259C509.152 215.937 508.827 215.562 508.587 215.134C508.347 214.7 508.227 214.196 508.227 213.622C508.227 213.071 508.35 212.576 508.596 212.137C508.842 211.691 509.185 211.313 509.624 211.003C510.069 210.687 510.591 210.446 511.188 210.282C511.786 210.112 512.439 210.027 513.148 210.027C514.086 210.027 514.912 210.191 515.627 210.52C516.348 210.842 516.91 211.302 517.314 211.899C517.725 212.491 517.93 213.191 517.93 214H514.862C514.862 213.678 514.795 213.394 514.66 213.147C514.531 212.901 514.335 212.708 514.071 212.567C513.808 212.427 513.477 212.356 513.078 212.356C512.691 212.356 512.366 212.415 512.103 212.532C511.839 212.649 511.64 212.808 511.505 213.007C511.37 213.2 511.303 213.414 511.303 213.648C511.303 213.842 511.355 214.018 511.461 214.176C511.572 214.328 511.728 214.472 511.927 214.606C512.132 214.741 512.378 214.87 512.665 214.993C512.958 215.116 513.286 215.236 513.649 215.354C514.329 215.57 514.933 215.813 515.46 216.083C515.993 216.347 516.441 216.648 516.805 216.988C517.174 217.322 517.452 217.703 517.64 218.131C517.833 218.559 517.93 219.042 517.93 219.581C517.93 220.155 517.818 220.665 517.596 221.11C517.373 221.556 517.054 221.934 516.638 222.244C516.222 222.549 515.724 222.78 515.144 222.938C514.563 223.097 513.916 223.176 513.201 223.176C512.545 223.176 511.897 223.094 511.259 222.93C510.626 222.76 510.052 222.502 509.536 222.156C509.021 221.805 508.607 221.356 508.297 220.812C507.992 220.261 507.84 219.607 507.84 218.852H510.934C510.934 219.227 510.983 219.543 511.083 219.801C511.183 220.059 511.329 220.267 511.522 220.425C511.716 220.577 511.953 220.688 512.234 220.759C512.516 220.823 512.838 220.855 513.201 220.855C513.594 220.855 513.91 220.8 514.15 220.688C514.391 220.571 514.566 220.419 514.678 220.231C514.789 220.038 514.845 219.827 514.845 219.599Z" fill="white"/>
<rect x="561" y="196" width="142" height="41" rx="3" fill="#424242"/>
<rect x="561" y="196" width="142" height="41" rx="3" stroke="#424242" stroke-width="4"/>
<path d="M589.373 218.658H586.191V216.276H589.373C589.807 216.276 590.158 216.203 590.428 216.057C590.697 215.91 590.894 215.708 591.017 215.45C591.146 215.187 591.21 214.891 591.21 214.562C591.21 214.211 591.146 213.886 591.017 213.587C590.894 213.288 590.697 213.048 590.428 212.866C590.158 212.679 589.807 212.585 589.373 212.585H587.352V223H584.267V210.203H589.373C590.398 210.203 591.28 210.391 592.019 210.766C592.763 211.141 593.334 211.656 593.732 212.312C594.131 212.963 594.33 213.707 594.33 214.545C594.33 215.371 594.131 216.092 593.732 216.707C593.334 217.322 592.763 217.803 592.019 218.148C591.28 218.488 590.398 218.658 589.373 218.658ZM595.358 218.342V218.157C595.358 217.46 595.458 216.818 595.657 216.232C595.856 215.641 596.149 215.128 596.536 214.694C596.923 214.261 597.4 213.924 597.969 213.684C598.537 213.438 599.193 213.314 599.938 213.314C600.688 213.314 601.347 213.438 601.915 213.684C602.489 213.924 602.97 214.261 603.356 214.694C603.743 215.128 604.036 215.641 604.235 216.232C604.435 216.818 604.534 217.46 604.534 218.157V218.342C604.534 219.033 604.435 219.675 604.235 220.267C604.036 220.853 603.743 221.365 603.356 221.805C602.97 222.238 602.492 222.575 601.924 222.815C601.355 223.056 600.699 223.176 599.955 223.176C599.211 223.176 598.552 223.056 597.978 222.815C597.403 222.575 596.923 222.238 596.536 221.805C596.149 221.365 595.856 220.853 595.657 220.267C595.458 219.675 595.358 219.033 595.358 218.342ZM598.32 218.157V218.342C598.32 218.699 598.347 219.033 598.399 219.344C598.452 219.654 598.54 219.927 598.663 220.161C598.786 220.39 598.953 220.568 599.164 220.697C599.375 220.826 599.639 220.891 599.955 220.891C600.266 220.891 600.523 220.826 600.729 220.697C600.939 220.568 601.106 220.39 601.229 220.161C601.353 219.927 601.44 219.654 601.493 219.344C601.546 219.033 601.572 218.699 601.572 218.342V218.157C601.572 217.812 601.546 217.486 601.493 217.182C601.44 216.871 601.353 216.599 601.229 216.364C601.106 216.124 600.939 215.937 600.729 215.802C600.518 215.667 600.254 215.6 599.938 215.6C599.627 215.6 599.366 215.667 599.155 215.802C598.95 215.937 598.786 216.124 598.663 216.364C598.54 216.599 598.452 216.871 598.399 217.182C598.347 217.486 598.32 217.812 598.32 218.157ZM610.836 220.328C610.836 220.164 610.78 220.023 610.669 219.906C610.563 219.783 610.376 219.672 610.106 219.572C609.837 219.467 609.459 219.361 608.973 219.256C608.51 219.156 608.073 219.024 607.663 218.86C607.259 218.696 606.904 218.497 606.6 218.263C606.295 218.028 606.055 217.75 605.879 217.428C605.709 217.105 605.624 216.736 605.624 216.32C605.624 215.916 605.709 215.535 605.879 215.178C606.055 214.814 606.31 214.495 606.644 214.22C606.983 213.938 607.396 213.719 607.883 213.561C608.369 213.396 608.923 213.314 609.544 213.314C610.399 213.314 611.138 213.446 611.759 213.71C612.38 213.968 612.857 214.331 613.191 214.8C613.531 215.263 613.701 215.799 613.701 216.408H610.739C610.739 216.168 610.698 215.963 610.616 215.793C610.54 215.623 610.414 215.494 610.238 215.406C610.062 215.312 609.828 215.266 609.535 215.266C609.33 215.266 609.143 215.304 608.973 215.38C608.809 215.456 608.677 215.562 608.577 215.696C608.478 215.831 608.428 215.989 608.428 216.171C608.428 216.3 608.457 216.417 608.516 216.522C608.58 216.622 608.677 216.716 608.806 216.804C608.935 216.886 609.099 216.962 609.298 217.032C609.497 217.097 609.737 217.155 610.019 217.208C610.657 217.325 611.255 217.492 611.812 217.709C612.368 217.926 612.819 218.233 613.165 218.632C613.517 219.03 613.692 219.566 613.692 220.24C613.692 220.662 613.596 221.052 613.402 221.409C613.209 221.761 612.931 222.071 612.567 222.341C612.204 222.604 611.768 222.81 611.258 222.956C610.748 223.103 610.174 223.176 609.535 223.176C608.627 223.176 607.859 223.015 607.232 222.692C606.605 222.364 606.131 221.954 605.809 221.462C605.492 220.964 605.334 220.46 605.334 219.95H608.094C608.105 220.243 608.176 220.483 608.305 220.671C608.439 220.858 608.618 220.996 608.841 221.084C609.063 221.172 609.321 221.216 609.614 221.216C609.884 221.216 610.106 221.178 610.282 221.102C610.464 221.025 610.602 220.923 610.695 220.794C610.789 220.659 610.836 220.504 610.836 220.328ZM620.091 213.49V215.547H614.36V213.49H620.091ZM615.564 211.126H618.526V219.897C618.526 220.149 618.556 220.346 618.614 220.486C618.673 220.621 618.772 220.718 618.913 220.776C619.06 220.829 619.253 220.855 619.493 220.855C619.663 220.855 619.804 220.853 619.915 220.847C620.026 220.835 620.132 220.82 620.231 220.803V222.921C619.979 223.003 619.716 223.064 619.44 223.105C619.165 223.152 618.872 223.176 618.562 223.176C617.929 223.176 617.387 223.076 616.936 222.877C616.49 222.678 616.15 222.364 615.916 221.937C615.682 221.509 615.564 220.952 615.564 220.267V211.126ZM627.245 213.49H629.935V222.631C629.935 223.51 629.732 224.254 629.328 224.863C628.924 225.479 628.358 225.944 627.632 226.261C626.911 226.583 626.067 226.744 625.101 226.744C624.673 226.744 624.236 226.688 623.791 226.577C623.346 226.472 622.93 226.313 622.543 226.103C622.156 225.892 621.831 225.631 621.567 225.32L622.807 223.58C623.047 223.85 623.349 224.078 623.712 224.266C624.075 224.459 624.503 224.556 624.995 224.556C625.423 224.556 625.78 224.479 626.067 224.327C626.36 224.175 626.583 223.952 626.735 223.659C626.888 223.372 626.964 223.023 626.964 222.613V215.74L627.245 213.49ZM620.926 218.359V218.175C620.926 217.454 621.014 216.798 621.189 216.206C621.371 215.608 621.629 215.096 621.963 214.668C622.303 214.234 622.713 213.9 623.193 213.666C623.674 213.432 624.216 213.314 624.819 213.314C625.47 213.314 626.003 213.44 626.419 213.692C626.841 213.938 627.178 214.284 627.43 214.729C627.688 215.175 627.887 215.696 628.027 216.294C628.174 216.886 628.297 217.524 628.396 218.21V218.43C628.297 219.074 628.159 219.684 627.983 220.258C627.813 220.826 627.591 221.33 627.315 221.77C627.04 222.209 626.694 222.555 626.278 222.807C625.868 223.053 625.376 223.176 624.802 223.176C624.204 223.176 623.665 223.056 623.185 222.815C622.71 222.575 622.303 222.238 621.963 221.805C621.629 221.371 621.371 220.861 621.189 220.275C621.014 219.689 620.926 219.051 620.926 218.359ZM623.888 218.175V218.359C623.888 218.717 623.92 219.048 623.984 219.353C624.055 219.657 624.16 219.927 624.301 220.161C624.441 220.39 624.614 220.568 624.819 220.697C625.03 220.826 625.276 220.891 625.558 220.891C625.985 220.891 626.331 220.8 626.595 220.618C626.858 220.437 627.049 220.179 627.166 219.845C627.283 219.511 627.333 219.118 627.315 218.667V217.973C627.327 217.586 627.301 217.246 627.236 216.953C627.172 216.654 627.069 216.405 626.929 216.206C626.794 216.007 626.612 215.857 626.384 215.758C626.161 215.652 625.892 215.6 625.575 215.6C625.3 215.6 625.057 215.664 624.846 215.793C624.635 215.922 624.459 216.104 624.318 216.338C624.178 216.566 624.069 216.839 623.993 217.155C623.923 217.466 623.888 217.806 623.888 218.175ZM634.628 215.846V223H631.666V213.49H634.435L634.628 215.846ZM637.44 213.42L637.388 216.171C637.271 216.159 637.112 216.145 636.913 216.127C636.714 216.109 636.547 216.101 636.412 216.101C636.066 216.101 635.768 216.142 635.516 216.224C635.27 216.3 635.064 216.417 634.9 216.575C634.742 216.728 634.625 216.921 634.549 217.155C634.479 217.39 634.446 217.662 634.452 217.973L633.916 217.621C633.916 216.982 633.978 216.402 634.101 215.881C634.229 215.354 634.411 214.899 634.646 214.519C634.88 214.132 635.164 213.836 635.498 213.631C635.832 213.42 636.207 213.314 636.623 213.314C636.77 213.314 636.913 213.323 637.054 213.341C637.2 213.358 637.329 213.385 637.44 213.42ZM642.89 223.176C642.116 223.176 641.425 223.056 640.815 222.815C640.206 222.569 639.69 222.232 639.269 221.805C638.853 221.377 638.533 220.885 638.311 220.328C638.094 219.771 637.985 219.183 637.985 218.562V218.228C637.985 217.53 638.082 216.886 638.275 216.294C638.469 215.696 638.756 215.175 639.137 214.729C639.518 214.284 639.995 213.938 640.569 213.692C641.144 213.44 641.812 213.314 642.573 213.314C643.247 213.314 643.851 213.423 644.384 213.64C644.917 213.856 645.368 214.167 645.737 214.571C646.112 214.976 646.396 215.465 646.59 216.039C646.789 216.613 646.889 217.258 646.889 217.973V219.177H639.119V217.322H643.997V217.094C644.003 216.777 643.947 216.508 643.83 216.285C643.719 216.062 643.555 215.893 643.338 215.775C643.121 215.658 642.857 215.6 642.547 215.6C642.225 215.6 641.958 215.67 641.747 215.811C641.542 215.951 641.381 216.145 641.264 216.391C641.152 216.631 641.073 216.909 641.026 217.226C640.979 217.542 640.956 217.876 640.956 218.228V218.562C640.956 218.913 641.003 219.232 641.097 219.52C641.196 219.807 641.337 220.053 641.519 220.258C641.706 220.457 641.929 220.612 642.187 220.724C642.45 220.835 642.749 220.891 643.083 220.891C643.487 220.891 643.886 220.814 644.278 220.662C644.671 220.51 645.008 220.258 645.289 219.906L646.634 221.506C646.44 221.781 646.165 222.048 645.808 222.306C645.456 222.563 645.034 222.774 644.542 222.938C644.05 223.097 643.499 223.176 642.89 223.176ZM654.825 219.599C654.825 219.399 654.796 219.221 654.737 219.062C654.679 218.898 654.57 218.746 654.412 218.605C654.254 218.465 654.025 218.324 653.727 218.184C653.434 218.037 653.047 217.885 652.566 217.727C652.004 217.539 651.462 217.328 650.94 217.094C650.419 216.854 649.953 216.575 649.543 216.259C649.133 215.937 648.808 215.562 648.567 215.134C648.327 214.7 648.207 214.196 648.207 213.622C648.207 213.071 648.33 212.576 648.576 212.137C648.822 211.691 649.165 211.313 649.604 211.003C650.05 210.687 650.571 210.446 651.169 210.282C651.767 210.112 652.42 210.027 653.129 210.027C654.066 210.027 654.893 210.191 655.607 210.52C656.328 210.842 656.891 211.302 657.295 211.899C657.705 212.491 657.91 213.191 657.91 214H654.843C654.843 213.678 654.775 213.394 654.641 213.147C654.512 212.901 654.315 212.708 654.052 212.567C653.788 212.427 653.457 212.356 653.059 212.356C652.672 212.356 652.347 212.415 652.083 212.532C651.819 212.649 651.62 212.808 651.485 213.007C651.351 213.2 651.283 213.414 651.283 213.648C651.283 213.842 651.336 214.018 651.441 214.176C651.553 214.328 651.708 214.472 651.907 214.606C652.112 214.741 652.358 214.87 652.646 214.993C652.938 215.116 653.267 215.236 653.63 215.354C654.31 215.57 654.913 215.813 655.44 216.083C655.974 216.347 656.422 216.648 656.785 216.988C657.154 217.322 657.433 217.703 657.62 218.131C657.813 218.559 657.91 219.042 657.91 219.581C657.91 220.155 657.799 220.665 657.576 221.11C657.354 221.556 657.034 221.934 656.618 222.244C656.202 222.549 655.704 222.78 655.124 222.938C654.544 223.097 653.896 223.176 653.182 223.176C652.525 223.176 651.878 223.094 651.239 222.93C650.606 222.76 650.032 222.502 649.517 222.156C649.001 221.805 648.588 221.356 648.277 220.812C647.973 220.261 647.82 219.607 647.82 218.852H650.914C650.914 219.227 650.964 219.543 651.063 219.801C651.163 220.059 651.31 220.267 651.503 220.425C651.696 220.577 651.934 220.688 652.215 220.759C652.496 220.823 652.818 220.855 653.182 220.855C653.574 220.855 653.891 220.8 654.131 220.688C654.371 220.571 654.547 220.419 654.658 220.231C654.77 220.038 654.825 219.827 654.825 219.599ZM666.638 220.891L670.206 223.721L668.29 225.338L664.783 222.508L666.638 220.891ZM670.355 216.347V216.865C670.355 217.844 670.218 218.723 669.942 219.502C669.673 220.275 669.286 220.938 668.782 221.488C668.284 222.033 667.695 222.452 667.016 222.745C666.336 223.032 665.586 223.176 664.766 223.176C663.939 223.176 663.184 223.032 662.498 222.745C661.818 222.452 661.227 222.033 660.723 221.488C660.225 220.938 659.838 220.275 659.562 219.502C659.293 218.723 659.158 217.844 659.158 216.865V216.347C659.158 215.368 659.293 214.489 659.562 213.71C659.838 212.931 660.222 212.269 660.714 211.724C661.212 211.173 661.801 210.754 662.48 210.467C663.166 210.174 663.922 210.027 664.748 210.027C665.568 210.027 666.318 210.174 666.998 210.467C667.684 210.754 668.275 211.173 668.773 211.724C669.277 212.269 669.667 212.931 669.942 213.71C670.218 214.489 670.355 215.368 670.355 216.347ZM667.218 216.865V216.329C667.218 215.696 667.162 215.14 667.051 214.659C666.945 214.173 666.787 213.766 666.576 213.438C666.365 213.109 666.104 212.863 665.794 212.699C665.489 212.529 665.141 212.444 664.748 212.444C664.338 212.444 663.98 212.529 663.676 212.699C663.371 212.863 663.116 213.109 662.911 213.438C662.706 213.766 662.551 214.173 662.445 214.659C662.346 215.14 662.296 215.696 662.296 216.329V216.865C662.296 217.492 662.346 218.049 662.445 218.535C662.551 219.016 662.706 219.423 662.911 219.757C663.122 220.091 663.38 220.343 663.685 220.513C663.995 220.683 664.355 220.768 664.766 220.768C665.158 220.768 665.507 220.683 665.812 220.513C666.116 220.343 666.371 220.091 666.576 219.757C666.787 219.423 666.945 219.016 667.051 218.535C667.162 218.049 667.218 217.492 667.218 216.865ZM680.384 220.627V223H673.915V220.627H680.384ZM675.014 210.203V223H671.929V210.203H675.014Z" fill="white"/>
<rect x="723" y="196" width="198" height="41" rx="3" fill="#424242"/>
<rect x="723" y="196" width="198" height="41" rx="3" stroke="#424242" stroke-width="4"/>
<path d="M756.583 216.162V221.418C756.366 221.658 756.032 221.916 755.581 222.191C755.136 222.461 754.573 222.692 753.894 222.886C753.214 223.079 752.414 223.176 751.494 223.176C750.645 223.176 749.874 223.041 749.183 222.771C748.491 222.496 747.896 222.095 747.398 221.567C746.906 221.034 746.525 220.384 746.256 219.616C745.992 218.843 745.86 217.958 745.86 216.962V216.25C745.86 215.254 745.995 214.369 746.265 213.596C746.534 212.822 746.912 212.172 747.398 211.645C747.891 211.111 748.468 210.707 749.13 210.432C749.798 210.156 750.53 210.019 751.327 210.019C752.505 210.019 753.463 210.206 754.201 210.581C754.939 210.95 755.499 211.463 755.88 212.119C756.261 212.77 756.492 213.522 756.574 214.378H753.612C753.554 213.956 753.442 213.599 753.278 213.306C753.12 213.007 752.892 212.781 752.593 212.629C752.294 212.471 751.907 212.392 751.433 212.392C751.063 212.392 750.727 212.471 750.422 212.629C750.123 212.787 749.868 213.027 749.657 213.35C749.446 213.666 749.282 214.064 749.165 214.545C749.054 215.025 748.998 215.588 748.998 216.232V216.962C748.998 217.601 749.051 218.16 749.156 218.641C749.268 219.121 749.432 219.522 749.648 219.845C749.871 220.161 750.152 220.401 750.492 220.565C750.838 220.724 751.245 220.803 751.714 220.803C752.042 220.803 752.323 220.776 752.558 220.724C752.792 220.665 752.985 220.595 753.138 220.513C753.296 220.425 753.416 220.343 753.498 220.267V218.28H751.354V216.162H756.583ZM757.875 218.342V218.157C757.875 217.46 757.975 216.818 758.174 216.232C758.373 215.641 758.666 215.128 759.053 214.694C759.439 214.261 759.917 213.924 760.485 213.684C761.054 213.438 761.71 213.314 762.454 213.314C763.204 213.314 763.863 213.438 764.432 213.684C765.006 213.924 765.486 214.261 765.873 214.694C766.26 215.128 766.553 215.641 766.752 216.232C766.951 216.818 767.051 217.46 767.051 218.157V218.342C767.051 219.033 766.951 219.675 766.752 220.267C766.553 220.853 766.26 221.365 765.873 221.805C765.486 222.238 765.009 222.575 764.44 222.815C763.872 223.056 763.216 223.176 762.472 223.176C761.728 223.176 761.068 223.056 760.494 222.815C759.92 222.575 759.439 222.238 759.053 221.805C758.666 221.365 758.373 220.853 758.174 220.267C757.975 219.675 757.875 219.033 757.875 218.342ZM760.837 218.157V218.342C760.837 218.699 760.863 219.033 760.916 219.344C760.969 219.654 761.057 219.927 761.18 220.161C761.303 220.39 761.47 220.568 761.681 220.697C761.892 220.826 762.155 220.891 762.472 220.891C762.782 220.891 763.04 220.826 763.245 220.697C763.456 220.568 763.623 220.39 763.746 220.161C763.869 219.927 763.957 219.654 764.01 219.344C764.062 219.033 764.089 218.699 764.089 218.342V218.157C764.089 217.812 764.062 217.486 764.01 217.182C763.957 216.871 763.869 216.599 763.746 216.364C763.623 216.124 763.456 215.937 763.245 215.802C763.034 215.667 762.771 215.6 762.454 215.6C762.144 215.6 761.883 215.667 761.672 215.802C761.467 215.937 761.303 216.124 761.18 216.364C761.057 216.599 760.969 216.871 760.916 217.182C760.863 217.486 760.837 217.812 760.837 218.157ZM768 218.342V218.157C768 217.46 768.1 216.818 768.299 216.232C768.498 215.641 768.791 215.128 769.178 214.694C769.564 214.261 770.042 213.924 770.61 213.684C771.179 213.438 771.835 213.314 772.579 213.314C773.329 213.314 773.988 213.438 774.557 213.684C775.131 213.924 775.611 214.261 775.998 214.694C776.385 215.128 776.678 215.641 776.877 216.232C777.076 216.818 777.176 217.46 777.176 218.157V218.342C777.176 219.033 777.076 219.675 776.877 220.267C776.678 220.853 776.385 221.365 775.998 221.805C775.611 222.238 775.134 222.575 774.565 222.815C773.997 223.056 773.341 223.176 772.597 223.176C771.853 223.176 771.193 223.056 770.619 222.815C770.045 222.575 769.564 222.238 769.178 221.805C768.791 221.365 768.498 220.853 768.299 220.267C768.1 219.675 768 219.033 768 218.342ZM770.962 218.157V218.342C770.962 218.699 770.988 219.033 771.041 219.344C771.094 219.654 771.182 219.927 771.305 220.161C771.428 220.39 771.595 220.568 771.806 220.697C772.017 220.826 772.28 220.891 772.597 220.891C772.907 220.891 773.165 220.826 773.37 220.697C773.581 220.568 773.748 220.39 773.871 220.161C773.994 219.927 774.082 219.654 774.135 219.344C774.188 219.033 774.214 218.699 774.214 218.342V218.157C774.214 217.812 774.188 217.486 774.135 217.182C774.082 216.871 773.994 216.599 773.871 216.364C773.748 216.124 773.581 215.937 773.37 215.802C773.159 215.667 772.896 215.6 772.579 215.6C772.269 215.6 772.008 215.667 771.797 215.802C771.592 215.937 771.428 216.124 771.305 216.364C771.182 216.599 771.094 216.871 771.041 217.182C770.988 217.486 770.962 217.812 770.962 218.157ZM784.471 213.49H787.16V222.631C787.16 223.51 786.958 224.254 786.554 224.863C786.149 225.479 785.584 225.944 784.857 226.261C784.137 226.583 783.293 226.744 782.326 226.744C781.898 226.744 781.462 226.688 781.017 226.577C780.571 226.472 780.155 226.313 779.769 226.103C779.382 225.892 779.057 225.631 778.793 225.32L780.032 223.58C780.272 223.85 780.574 224.078 780.938 224.266C781.301 224.459 781.729 224.556 782.221 224.556C782.648 224.556 783.006 224.479 783.293 224.327C783.586 224.175 783.809 223.952 783.961 223.659C784.113 223.372 784.189 223.023 784.189 222.613V215.74L784.471 213.49ZM778.151 218.359V218.175C778.151 217.454 778.239 216.798 778.415 216.206C778.597 215.608 778.854 215.096 779.188 214.668C779.528 214.234 779.938 213.9 780.419 213.666C780.899 213.432 781.441 213.314 782.045 213.314C782.695 213.314 783.229 213.44 783.645 213.692C784.066 213.938 784.403 214.284 784.655 214.729C784.913 215.175 785.112 215.696 785.253 216.294C785.399 216.886 785.522 217.524 785.622 218.21V218.43C785.522 219.074 785.385 219.684 785.209 220.258C785.039 220.826 784.816 221.33 784.541 221.77C784.266 222.209 783.92 222.555 783.504 222.807C783.094 223.053 782.602 223.176 782.027 223.176C781.43 223.176 780.891 223.056 780.41 222.815C779.936 222.575 779.528 222.238 779.188 221.805C778.854 221.371 778.597 220.861 778.415 220.275C778.239 219.689 778.151 219.051 778.151 218.359ZM781.113 218.175V218.359C781.113 218.717 781.146 219.048 781.21 219.353C781.28 219.657 781.386 219.927 781.526 220.161C781.667 220.39 781.84 220.568 782.045 220.697C782.256 220.826 782.502 220.891 782.783 220.891C783.211 220.891 783.557 220.8 783.82 220.618C784.084 220.437 784.274 220.179 784.392 219.845C784.509 219.511 784.559 219.118 784.541 218.667V217.973C784.553 217.586 784.526 217.246 784.462 216.953C784.397 216.654 784.295 216.405 784.154 216.206C784.02 216.007 783.838 215.857 783.609 215.758C783.387 215.652 783.117 215.6 782.801 215.6C782.525 215.6 782.282 215.664 782.071 215.793C781.86 215.922 781.685 216.104 781.544 216.338C781.403 216.566 781.295 216.839 781.219 217.155C781.148 217.466 781.113 217.806 781.113 218.175ZM791.994 209.5V223H789.023V209.5H791.994ZM798.428 223.176C797.654 223.176 796.963 223.056 796.354 222.815C795.744 222.569 795.229 222.232 794.807 221.805C794.391 221.377 794.071 220.885 793.849 220.328C793.632 219.771 793.523 219.183 793.523 218.562V218.228C793.523 217.53 793.62 216.886 793.813 216.294C794.007 215.696 794.294 215.175 794.675 214.729C795.056 214.284 795.533 213.938 796.107 213.692C796.682 213.44 797.35 213.314 798.111 213.314C798.785 213.314 799.389 213.423 799.922 213.64C800.455 213.856 800.906 214.167 801.275 214.571C801.65 214.976 801.935 215.465 802.128 216.039C802.327 216.613 802.427 217.258 802.427 217.973V219.177H794.657V217.322H799.535V217.094C799.541 216.777 799.485 216.508 799.368 216.285C799.257 216.062 799.093 215.893 798.876 215.775C798.659 215.658 798.396 215.6 798.085 215.6C797.763 215.6 797.496 215.67 797.285 215.811C797.08 215.951 796.919 216.145 796.802 216.391C796.69 216.631 796.611 216.909 796.564 217.226C796.518 217.542 796.494 217.876 796.494 218.228V218.562C796.494 218.913 796.541 219.232 796.635 219.52C796.734 219.807 796.875 220.053 797.057 220.258C797.244 220.457 797.467 220.612 797.725 220.724C797.988 220.835 798.287 220.891 798.621 220.891C799.025 220.891 799.424 220.814 799.816 220.662C800.209 220.51 800.546 220.258 800.827 219.906L802.172 221.506C801.979 221.781 801.703 222.048 801.346 222.306C800.994 222.563 800.572 222.774 800.08 222.938C799.588 223.097 799.037 223.176 798.428 223.176ZM818.722 216.162V221.418C818.505 221.658 818.171 221.916 817.72 222.191C817.274 222.461 816.712 222.692 816.032 222.886C815.353 223.079 814.553 223.176 813.633 223.176C812.783 223.176 812.013 223.041 811.321 222.771C810.63 222.496 810.035 222.095 809.537 221.567C809.045 221.034 808.664 220.384 808.395 219.616C808.131 218.843 807.999 217.958 807.999 216.962V216.25C807.999 215.254 808.134 214.369 808.403 213.596C808.673 212.822 809.051 212.172 809.537 211.645C810.029 211.111 810.606 210.707 811.269 210.432C811.937 210.156 812.669 210.019 813.466 210.019C814.644 210.019 815.602 210.206 816.34 210.581C817.078 210.95 817.638 211.463 818.019 212.119C818.399 212.77 818.631 213.522 818.713 214.378H815.751C815.692 213.956 815.581 213.599 815.417 213.306C815.259 213.007 815.03 212.781 814.731 212.629C814.433 212.471 814.046 212.392 813.571 212.392C813.202 212.392 812.865 212.471 812.561 212.629C812.262 212.787 812.007 213.027 811.796 213.35C811.585 213.666 811.421 214.064 811.304 214.545C811.192 215.025 811.137 215.588 811.137 216.232V216.962C811.137 217.601 811.189 218.16 811.295 218.641C811.406 219.121 811.57 219.522 811.787 219.845C812.01 220.161 812.291 220.401 812.631 220.565C812.977 220.724 813.384 220.803 813.853 220.803C814.181 220.803 814.462 220.776 814.696 220.724C814.931 220.665 815.124 220.595 815.276 220.513C815.435 220.425 815.555 220.343 815.637 220.267V218.28H813.492V216.162H818.722ZM824.988 223.176C824.215 223.176 823.523 223.056 822.914 222.815C822.305 222.569 821.789 222.232 821.367 221.805C820.951 221.377 820.632 220.885 820.409 220.328C820.192 219.771 820.084 219.183 820.084 218.562V218.228C820.084 217.53 820.181 216.886 820.374 216.294C820.567 215.696 820.854 215.175 821.235 214.729C821.616 214.284 822.094 213.938 822.668 213.692C823.242 213.44 823.91 213.314 824.672 213.314C825.346 213.314 825.949 213.423 826.482 213.64C827.016 213.856 827.467 214.167 827.836 214.571C828.211 214.976 828.495 215.465 828.688 216.039C828.888 216.613 828.987 217.258 828.987 217.973V219.177H821.218V217.322H826.096V217.094C826.102 216.777 826.046 216.508 825.929 216.285C825.817 216.062 825.653 215.893 825.437 215.775C825.22 215.658 824.956 215.6 824.646 215.6C824.323 215.6 824.057 215.67 823.846 215.811C823.641 215.951 823.479 216.145 823.362 216.391C823.251 216.631 823.172 216.909 823.125 217.226C823.078 217.542 823.055 217.876 823.055 218.228V218.562C823.055 218.913 823.102 219.232 823.195 219.52C823.295 219.807 823.436 220.053 823.617 220.258C823.805 220.457 824.027 220.612 824.285 220.724C824.549 220.835 824.848 220.891 825.182 220.891C825.586 220.891 825.984 220.814 826.377 220.662C826.77 220.51 827.106 220.258 827.388 219.906L828.732 221.506C828.539 221.781 828.264 222.048 827.906 222.306C827.555 222.563 827.133 222.774 826.641 222.938C826.148 223.097 825.598 223.176 824.988 223.176ZM833.18 215.503V223H830.218V213.49H832.995L833.18 215.503ZM832.819 217.92L832.143 217.938C832.143 217.27 832.222 216.654 832.38 216.092C832.538 215.529 832.772 215.04 833.083 214.624C833.394 214.208 833.774 213.886 834.226 213.657C834.683 213.429 835.21 213.314 835.808 213.314C836.224 213.314 836.602 213.379 836.941 213.508C837.281 213.631 837.574 213.827 837.82 214.097C838.066 214.36 838.254 214.706 838.383 215.134C838.518 215.556 838.585 216.062 838.585 216.654V223H835.623V217.032C835.623 216.628 835.576 216.323 835.482 216.118C835.395 215.913 835.266 215.775 835.096 215.705C834.926 215.635 834.718 215.6 834.472 215.6C834.214 215.6 833.982 215.658 833.777 215.775C833.572 215.893 833.396 216.057 833.25 216.268C833.109 216.473 833.001 216.716 832.925 216.997C832.854 217.278 832.819 217.586 832.819 217.92ZM838.251 217.92L837.425 217.938C837.425 217.27 837.498 216.654 837.645 216.092C837.797 215.529 838.022 215.04 838.321 214.624C838.626 214.208 839.004 213.886 839.455 213.657C839.906 213.429 840.431 213.314 841.028 213.314C841.462 213.314 841.86 213.379 842.224 213.508C842.587 213.637 842.9 213.845 843.164 214.132C843.428 214.419 843.633 214.8 843.779 215.274C843.926 215.743 843.999 216.323 843.999 217.015V223H841.028V217.015C841.028 216.622 840.981 216.326 840.888 216.127C840.8 215.922 840.671 215.784 840.501 215.714C840.331 215.638 840.129 215.6 839.895 215.6C839.613 215.6 839.37 215.658 839.165 215.775C838.96 215.893 838.787 216.057 838.646 216.268C838.512 216.473 838.412 216.716 838.348 216.997C838.283 217.278 838.251 217.586 838.251 217.92ZM848.824 213.49V223H845.854V213.49H848.824ZM845.678 211.038C845.678 210.616 845.83 210.271 846.135 210.001C846.439 209.731 846.835 209.597 847.321 209.597C847.808 209.597 848.203 209.731 848.508 210.001C848.812 210.271 848.965 210.616 848.965 211.038C848.965 211.46 848.812 211.806 848.508 212.075C848.203 212.345 847.808 212.479 847.321 212.479C846.835 212.479 846.439 212.345 846.135 212.075C845.83 211.806 845.678 211.46 845.678 211.038ZM853.562 215.521V223H850.6V213.49H853.377L853.562 215.521ZM853.21 217.92L852.516 217.938C852.516 217.211 852.604 216.563 852.779 215.995C852.955 215.421 853.204 214.935 853.526 214.536C853.849 214.138 854.232 213.836 854.678 213.631C855.129 213.42 855.63 213.314 856.181 213.314C856.62 213.314 857.021 213.379 857.385 213.508C857.754 213.637 858.07 213.845 858.334 214.132C858.604 214.419 858.809 214.8 858.949 215.274C859.096 215.743 859.169 216.323 859.169 217.015V223H856.189V217.006C856.189 216.625 856.137 216.335 856.031 216.136C855.926 215.931 855.773 215.79 855.574 215.714C855.375 215.638 855.132 215.6 854.845 215.6C854.54 215.6 854.282 215.658 854.071 215.775C853.86 215.893 853.69 216.057 853.562 216.268C853.438 216.473 853.348 216.716 853.289 216.997C853.236 217.278 853.21 217.586 853.21 217.92ZM863.941 213.49V223H860.971V213.49H863.941ZM860.795 211.038C860.795 210.616 860.947 210.271 861.252 210.001C861.557 209.731 861.952 209.597 862.438 209.597C862.925 209.597 863.32 209.731 863.625 210.001C863.93 210.271 864.082 210.616 864.082 211.038C864.082 211.46 863.93 211.806 863.625 212.075C863.32 212.345 862.925 212.479 862.438 212.479C861.952 212.479 861.557 212.345 861.252 212.075C860.947 211.806 860.795 211.46 860.795 211.038ZM875.815 212.893L872.695 223H869.382L874.084 210.203H876.185L875.815 212.893ZM878.399 223L875.271 212.893L874.866 210.203H876.993L881.722 223H878.399ZM878.276 218.228V220.609H871.711V218.228H878.276ZM887.769 218.658H884.587V216.276H887.769C888.202 216.276 888.554 216.203 888.823 216.057C889.093 215.91 889.289 215.708 889.412 215.45C889.541 215.187 889.605 214.891 889.605 214.562C889.605 214.211 889.541 213.886 889.412 213.587C889.289 213.288 889.093 213.048 888.823 212.866C888.554 212.679 888.202 212.585 887.769 212.585H885.747V223H882.662V210.203H887.769C888.794 210.203 889.676 210.391 890.414 210.766C891.158 211.141 891.729 211.656 892.128 212.312C892.526 212.963 892.726 213.707 892.726 214.545C892.726 215.371 892.526 216.092 892.128 216.707C891.729 217.322 891.158 217.803 890.414 218.148C889.676 218.488 888.794 218.658 887.769 218.658ZM897.665 210.203V223H894.589V210.203H897.665Z" fill="white"/>
<path d="M1066 0H1348C1356.28 0 1363 6.71573 1363 15V282C1363 290.284 1356.28 297 1348 297H1066V0Z" fill="white"/>
</svg>
